<?xml version="1.0" encoding="utf-8"?>
<!-- Generator: Adobe Illustrator 27.0.1, SVG Export Plug-In . SVG Version: 6.00 Build 0)  -->
<svg version="1.1" id="圖層_1" xmlns="http://www.w3.org/2000/svg" xmlns:xlink="http://www.w3.org/1999/xlink" x="0px" y="0px"
	 width="1500px" height="750px" viewBox="0 0 1500 750" style="enable-background:new 0 0 1500 750;" xml:space="preserve">
<style type="text/css">
	.st0{opacity:0.34;fill:#F7F8F8;enable-background:new    ;}
	.st1{fill:url(#SVGID_1_);}
	.st2{fill:url(#XMLID_00000131355224922709160110000012008841926006166691_);}
	.st3{fill:url(#XMLID_00000030446813940020054420000011063089601393261446_);}
	.st4{fill:url(#XMLID_00000052826122858543938200000001777082883761723546_);}
	.st5{fill:url(#XMLID_00000079445191621420879750000004621026741721437885_);}
	.st6{fill:url(#XMLID_00000030478452072774804870000006770670710820013730_);}
	.st7{fill:url(#XMLID_00000020379044966362307790000002564428900585579928_);}
	.st8{fill:url(#XMLID_00000087399680973757799070000008523394393251442061_);}
</style>
<path class="st0" d="M-714.5,1559.7c0,0,60.6-89.3,251.7-124.1s280.2,17.2,409.1,1.6s172.1-69.4,336.6-70.5s182.4,43.3,288.4,18.4
	s129.2-33.1,214.1,4.5v463.6H-714.5V1559.7z"/>
<linearGradient id="SVGID_1_" gradientUnits="userSpaceOnUse" x1="752.8192" y1="-594.3928" x2="748.4794" y2="802.9959" gradientTransform="matrix(1 0 0 -1 0 752)">
	<stop  offset="0" style="stop-color:#56B4C0"/>
	<stop  offset="1" style="stop-color:#FFFFFF"/>
</linearGradient>
<rect x="-2.6" y="-1.1" class="st1" width="1504.8" height="750.7"/>
<linearGradient id="XMLID_00000103982249809656380310000014758748026125290390_" gradientUnits="userSpaceOnUse" x1="-427.45" y1="753.1547" x2="-427.45" y2="33.5048" gradientTransform="matrix(1 0 0 -1 0 752)">
	<stop  offset="0" style="stop-color:#DDE09B"/>
	<stop  offset="0.225" style="stop-color:#C2DDB5"/>
	<stop  offset="0.482" style="stop-color:#ABD9CC"/>
	<stop  offset="0.7229" style="stop-color:#9DD8DA"/>
	<stop  offset="0.9293" style="stop-color:#98D7DF"/>
</linearGradient>
<polygon id="XMLID_264_" style="fill:url(#XMLID_00000103982249809656380310000014758748026125290390_);" points="-257.6,43.3 
	-257.6,798.2 -597.3,798.2 -597.3,43.3 "/>
<g id="XMLID_548_">
	
		<linearGradient id="XMLID_00000120551380782733291690000001976656657935783092_" gradientUnits="userSpaceOnUse" x1="1843.1464" y1="817.6203" x2="1843.1464" y2="600.1666" gradientTransform="matrix(-1 0 0 -1 1947.4464 752)">
		<stop  offset="0" style="stop-color:#FFFFFF"/>
		<stop  offset="1" style="stop-color:#FFFFFF;stop-opacity:0"/>
	</linearGradient>
	<path id="XMLID_564_" style="fill:url(#XMLID_00000120551380782733291690000001976656657935783092_);" d="M38.7,123.6
		c0-6,4.9-10.9,10.9-10.9h84.2c6.3,0,11.5-5.1,11.5-11.5c0-6.3,5.1-11.5,11.5-11.5H197c6.8,0,12.3-5.5,12.3-12.3
		s-5.5-12.3-12.3-12.3h-69.5c-5.6,0-10.1-4.5-10.1-10.1s-4.5-10.1-10.1-10.1H46.9c-6.6,0-12-5.4-12-12s5.4-12,12-12
		c9.1,0,16.4-7.3,16.4-16.4V1.9c0-1.6-0.2-3.1-0.6-4.6H-0.7v137.2h28.4C33.8,134.6,38.7,129.7,38.7,123.6z"/>
	
		<linearGradient id="XMLID_00000160893393718250454700000011920631786243957904_" gradientUnits="userSpaceOnUse" x1="273.7036" y1="850.6053" x2="273.7036" y2="707.8986" gradientTransform="matrix(1 0 0 -1 19.4464 752)">
		<stop  offset="0" style="stop-color:#FFFFFF"/>
		<stop  offset="1" style="stop-color:#FFFFFF;stop-opacity:0"/>
	</linearGradient>
	<path id="XMLID_568_" style="fill:url(#XMLID_00000160893393718250454700000011920631786243957904_);" d="M255.1,3.3h26.4
		c4.2,0,7.5,3.4,7.5,7.5s3.4,7.5,7.5,7.5H339v-21h-91.7C248.3,0.8,251.4,3.3,255.1,3.3z"/>
</g>
<linearGradient id="XMLID_00000023961790444523711460000008609635235888472761_" gradientUnits="userSpaceOnUse" x1="1132.7294" y1="860.3241" x2="1132.7294" y2="335.6394" gradientTransform="matrix(1 0 0 -1 0 752)">
	<stop  offset="0" style="stop-color:#FFFFFF"/>
	<stop  offset="1" style="stop-color:#FFFFFF;stop-opacity:0"/>
</linearGradient>
<path id="XMLID_8527_" style="fill:url(#XMLID_00000023961790444523711460000008609635235888472761_);" d="M1271.7,9.1h-108.8
	c-25.1,0-45.6,20.3-45.6,45.6v6c0,22,17.6,39.6,39.6,39.6l0,0c15.9,0,29,13,29,29s-13,29-29,29h-145.7c-13.5,0-24.4,10.9-24.4,24.4
	c0,13.5-10.9,24.4-24.4,24.4H794.7c-16.4,0-29.7,13.3-29.7,29.7s13.3,29.7,29.7,29.7h97c15.2,0,27.7,12.3,27.7,27.7
	c0,15.2,12.3,27.7,27.7,27.7h203.2c14.5,0,26.3,11.8,26.3,26.3l0,0c0,14.5,11.8,26.3,26.3,26.3h297.5V9.1H1271.7z"/>
<linearGradient id="XMLID_00000097496026641603921800000004065130618159591096_" gradientUnits="userSpaceOnUse" x1="1679.5812" y1="554.2358" x2="1679.5812" y2="1.6291" gradientTransform="matrix(-1 0 0 -1 1928 752)">
	<stop  offset="0" style="stop-color:#FFFFFF"/>
	<stop  offset="1" style="stop-color:#FFFFFF;stop-opacity:0"/>
</linearGradient>
<path id="XMLID_8526_" style="fill:url(#XMLID_00000097496026641603921800000004065130618159591096_);" d="M464.7,529.9H288.3
	c-14.2,0-25.7-11.4-25.7-25.7s-11.4-25.7-25.7-25.7H83.5c-16.8,0-30.5-13.7-30.5-30.5c0-16.8,13.7-30.5,30.5-30.5
	c23.1,0,41.7-18.6,41.7-41.7v-6.4c0-26.4-21.3-48-48-48H0.9v385h33.8c15.2,0,27.7-12.5,27.7-27.7s12.5-27.7,27.7-27.7h214
	c16,0,29.2-13,29.2-29.2l0,0c0-16,13-29.2,29.2-29.2h102.2c17.3,0,31.3-14,31.3-31.3l0,0C495.9,544.1,482,529.9,464.7,529.9z"/>
<linearGradient id="XMLID_00000166659833297289924120000016283653174158484392_" gradientUnits="userSpaceOnUse" x1="1810.3291" y1="830.591" x2="1810.3291" y2="467.9358" gradientTransform="matrix(-1 0 0 -1 1928 752)">
	<stop  offset="0" style="stop-color:#FFFFFF"/>
	<stop  offset="1" style="stop-color:#FFFFFF;stop-opacity:0"/>
</linearGradient>
<path id="XMLID_8525_" style="fill:url(#XMLID_00000166659833297289924120000016283653174158484392_);" d="M213.9,139.5H98
	c-9.4,0-16.8-7.6-16.8-16.8c0-9.4-7.6-16.8-16.8-16.8H0.9v113.1h107.7c10.7,0,19.1-8.6,19.1-19.1s8.6-19.1,19.1-19.1h67.1
	c11.4,0,20.6-9.1,20.6-20.6C234.4,148.7,225.3,139.5,213.9,139.5z"/>
<linearGradient id="XMLID_00000003094431699052205400000012789149191801665180_" gradientUnits="userSpaceOnUse" x1="1255.6415" y1="533.5371" x2="1255.6415" y2="189.206" gradientTransform="matrix(1 0 0 -1 19.4464 752)">
	<stop  offset="0" style="stop-color:#FFFFFF"/>
	<stop  offset="1" style="stop-color:#FFFFFF;stop-opacity:0"/>
</linearGradient>
<path id="XMLID_429_" style="fill:url(#XMLID_00000003094431699052205400000012789149191801665180_);" d="M1069.3,425.5h110
	c8.9,0,15.9-7.2,15.9-15.9c0-8.9,7.2-15.9,15.9-15.9h289.3V501h-331.3c-10.1,0-18.1-8.2-18.1-18.1s-8.2-18.1-18.1-18.1h-63.7
	c-10.9,0-19.5-8.7-19.5-19.5C1049.7,434.2,1058.4,425.5,1069.3,425.5z"/>
</svg>
