<?xml version="1.0" encoding="utf-8"?>
<!-- Generator: Adobe Illustrator 27.0.1, SVG Export Plug-In . SVG Version: 6.00 Build 0)  -->
<svg version="1.1" id="圖層_1" xmlns="http://www.w3.org/2000/svg" xmlns:xlink="http://www.w3.org/1999/xlink" x="0px" y="0px"
	 width="1500px" height="750px" viewBox="0 0 1500 750" style="enable-background:new 0 0 1500 750;" xml:space="preserve">
<style type="text/css">
	.st0{fill:#68BE96;}
	.st1{fill:url(#SVGID_1_);}
	.st2{fill:url(#SVGID_00000047040478185729924720000014017177129617617570_);}
	.st3{fill:url(#SVGID_00000086649333397261100910000006752731400541143699_);}
	.st4{fill:#A5D8DA;}
	.st5{fill:#005876;}
	.st6{fill:#00AEBB;}
	.st7{fill:url(#SVGID_00000021119426027493681870000012980874775285231548_);}
	.st8{fill:#6AC1B1;}
	.st9{fill:#82CCD6;}
	.st10{fill:#FFFFFF;}
	.st11{fill:#90CEBC;}
	.st12{clip-path:url(#XMLID_00000058559665776737961150000004522381494600075157_);}
	.st13{fill:url(#SVGID_00000005969507427923320760000011445443950420441737_);}
	.st14{fill:#143C6D;}
	.st15{fill:#0ABB77;}
	.st16{fill:#5BC3C4;}
	.st17{fill:#002A4F;}
	.st18{fill:none;stroke:#002A4F;stroke-width:0.5329;stroke-miterlimit:10;}
	.st19{fill:#EDE6CE;}
	.st20{fill:#079E60;}
	.st21{fill:none;stroke:#002A4F;stroke-width:2.4158;stroke-linejoin:round;stroke-miterlimit:10;}
	.st22{fill:#ADD483;}
	.st23{opacity:0.31;fill:#FFFFFF;}
	.st24{fill:#00B9C9;}
	.st25{fill:#008987;}
	.st26{fill:#4FDDA4;}
	.st27{fill:url(#SVGID_00000033357027454605952480000002589593089189140661_);}
	.st28{opacity:0.53;fill:#4FDDA4;}
	.st29{fill:#9FF3F0;}
	
		.st30{clip-path:url(#XMLID_00000119095382837956412760000012091922813892098468_);fill:url(#SVGID_00000075144002358753730520000003474842306020107415_);}
	.st31{clip-path:url(#XMLID_00000119095382837956412760000012091922813892098468_);}
	.st32{fill:#20D6B7;}
	.st33{fill:#87F0FD;}
	.st34{clip-path:url(#XMLID_00000057128439165662609720000006316246010768118951_);fill:#008987;}
	.st35{fill-rule:evenodd;clip-rule:evenodd;fill:#FFFFFF;}
	.st36{opacity:0.53;}
	.st37{fill:#93E4FD;}
	.st38{fill:url(#SVGID_00000005228102554004424960000012305412991530651309_);}
	.st39{fill:#20AABB;}
	.st40{fill:url(#SVGID_00000086651070305518344080000006594456280257590184_);}
	.st41{fill:#005B7A;}
	.st42{clip-path:url(#XMLID_00000083070073502892248790000014375412702370518959_);fill:#005B7A;}
	.st43{clip-path:url(#XMLID_00000070098663718928967640000009905948130110343064_);fill:#005B7A;}
	.st44{fill:#C5F2F1;}
	.st45{opacity:0.54;fill:#00B9C9;}
	.st46{opacity:0.6;fill:#4FDDA4;}
	.st47{fill:none;stroke:#C5F2F1;stroke-width:1.4382;stroke-miterlimit:10;}
	.st48{fill:#42EBC9;}
	.st49{fill:#77E5EC;}
	.st50{fill:#87EED0;}
	.st51{fill:#1AADAD;}
</style>
<g>
	<rect x="67.4" y="51" class="st0" width="127.6" height="64.1"/>
</g>
<g>
	
		<linearGradient id="SVGID_1_" gradientUnits="userSpaceOnUse" x1="6013.7285" y1="136.8874" x2="6029.6636" y2="136.8874" gradientTransform="matrix(-1 0 0 -1 6232.7163 205.6702)">
		<stop  offset="0" style="stop-color:#002A37"/>
		<stop  offset="1" style="stop-color:#008B9A"/>
	</linearGradient>
	<path class="st1" d="M218.5,67.8l-13.7-9.3c-0.8-0.5-1.8,0-1.8,0.9l0,18.6c0,0.9,1,1.4,1.8,0.9l13.7-9.3
		C219.2,69.3,219.2,68.3,218.5,67.8z"/>
	
		<linearGradient id="SVGID_00000058547664191259405510000017385889235441206921_" gradientUnits="userSpaceOnUse" x1="6001.0498" y1="136.8874" x2="6016.9854" y2="136.8874" gradientTransform="matrix(-1 0 0 -1 6232.7163 205.6702)">
		<stop  offset="0" style="stop-color:#002A37"/>
		<stop  offset="1" style="stop-color:#008B9A"/>
	</linearGradient>
	<path style="fill:url(#SVGID_00000058547664191259405510000017385889235441206921_);" d="M231.2,67.8l-13.7-9.3
		c-0.8-0.5-1.8,0-1.8,0.9v18.6c0,0.9,1,1.4,1.8,0.9l13.7-9.3C231.8,69.3,231.8,68.3,231.2,67.8z"/>
	
		<linearGradient id="SVGID_00000053547376580195167240000002293015509279146895_" gradientUnits="userSpaceOnUse" x1="5988.3716" y1="136.8874" x2="6004.3066" y2="136.8874" gradientTransform="matrix(-1 0 0 -1 6232.7163 205.6702)">
		<stop  offset="0" style="stop-color:#002A37"/>
		<stop  offset="1" style="stop-color:#008B9A"/>
	</linearGradient>
	<path style="fill:url(#SVGID_00000053547376580195167240000002293015509279146895_);" d="M243.8,67.8l-13.7-9.3
		c-0.8-0.5-1.8,0-1.8,0.9l0,18.6c0,0.9,1,1.4,1.8,0.9l13.7-9.3C244.5,69.3,244.5,68.3,243.8,67.8z"/>
</g>
<g>
	<rect x="251.2" y="-0.9" class="st4" width="73.4" height="73.4"/>
	<g>
		<g>
			<path class="st5" d="M273.6,21.6h-17.3c0-4.8,3.9-8.6,8.6-8.6C269.7,13,273.6,16.9,273.6,21.6z"/>
			<path class="st5" d="M285.1,21.6h-17.3c0-4.8,3.9-8.6,8.6-8.6C281.2,13,285.1,16.9,285.1,21.6z"/>
			<path class="st5" d="M296.6,21.6h-17.3c0-4.8,3.9-8.6,8.6-8.6C292.7,13,296.6,16.9,296.6,21.6z"/>
			<path class="st5" d="M308.1,21.6h-17.3c0-4.8,3.9-8.6,8.6-8.6C304.2,13,308.1,16.9,308.1,21.6z"/>
			<path class="st5" d="M319.5,21.6h-17.3c0-4.8,3.9-8.6,8.6-8.6C315.7,13,319.5,16.9,319.5,21.6z"/>
		</g>
		<g>
			<path class="st6" d="M273.6,33.3h-17.3c0-4.8,3.9-8.6,8.6-8.6C269.7,24.7,273.6,28.6,273.6,33.3z"/>
			<path class="st6" d="M285.1,33.3h-17.3c0-4.8,3.9-8.6,8.6-8.6C281.2,24.7,285.1,28.6,285.1,33.3z"/>
			<path class="st6" d="M296.6,33.3h-17.3c0-4.8,3.9-8.6,8.6-8.6C292.7,24.7,296.6,28.6,296.6,33.3z"/>
			<path class="st6" d="M308.1,33.3h-17.3c0-4.8,3.9-8.6,8.6-8.6C304.2,24.7,308.1,28.6,308.1,33.3z"/>
			<path class="st6" d="M319.5,33.3h-17.3c0-4.8,3.9-8.6,8.6-8.6C315.7,24.7,319.5,28.6,319.5,33.3z"/>
		</g>
		<g>
			<path class="st5" d="M273.6,46.9h-17.3c0-4.8,3.9-8.6,8.6-8.6C269.7,38.2,273.6,42.1,273.6,46.9z"/>
			<path class="st5" d="M285.1,46.9h-17.3c0-4.8,3.9-8.6,8.6-8.6C281.2,38.2,285.1,42.1,285.1,46.9z"/>
			<path class="st5" d="M296.6,46.9h-17.3c0-4.8,3.9-8.6,8.6-8.6C292.7,38.2,296.6,42.1,296.6,46.9z"/>
			<path class="st5" d="M308.1,46.9h-17.3c0-4.8,3.9-8.6,8.6-8.6C304.2,38.2,308.1,42.1,308.1,46.9z"/>
			<path class="st5" d="M319.5,46.9h-17.3c0-4.8,3.9-8.6,8.6-8.6C315.7,38.2,319.5,42.1,319.5,46.9z"/>
		</g>
		<g>
			<path class="st6" d="M273.6,58.6h-17.3c0-4.8,3.9-8.6,8.6-8.6C269.7,49.9,273.6,53.8,273.6,58.6z"/>
			<path class="st6" d="M285.1,58.6h-17.3c0-4.8,3.9-8.6,8.6-8.6C281.2,49.9,285.1,53.8,285.1,58.6z"/>
			<path class="st6" d="M296.6,58.6h-17.3c0-4.8,3.9-8.6,8.6-8.6C292.7,49.9,296.6,53.8,296.6,58.6z"/>
			<path class="st6" d="M308.1,58.6h-17.3c0-4.8,3.9-8.6,8.6-8.6C304.2,49.9,308.1,53.8,308.1,58.6z"/>
			<path class="st6" d="M319.5,58.6h-17.3c0-4.8,3.9-8.6,8.6-8.6C315.7,49.9,319.5,53.8,319.5,58.6z"/>
		</g>
	</g>
</g>
<rect x="247" y="89.4" class="st4" width="38.8" height="34.3"/>
<g>
	
		<linearGradient id="SVGID_00000175323507126467038810000010362350640449015464_" gradientUnits="userSpaceOnUse" x1="194.8918" y1="109.6681" x2="246.998" y2="109.6681">
		<stop  offset="0" style="stop-color:#002A37"/>
		<stop  offset="0" style="stop-color:#005C69"/>
	</linearGradient>
	
		<rect x="194.9" y="83.6" style="fill:url(#SVGID_00000175323507126467038810000010362350640449015464_);" width="52.1" height="52.1"/>
	<g>
		<path class="st6" d="M229.9,103c0,0.7-0.1,1.4-0.2,2c-0.6-0.1-1.2-0.2-1.9-0.2c-2.8,0-5.4,1.2-7.1,3.2c-1.7-1.7-4-2.7-6.6-2.7
			c-0.9,0-1.8,0.1-2.6,0.4c-0.3-0.9-0.4-1.8-0.4-2.8c0-5.2,4.2-9.4,9.4-9.4C225.7,93.5,229.9,97.8,229.9,103z"/>
		<path class="st0" d="M221.2,121c-1.7,2-4.3,3.2-7.1,3.2c-5.2,0-9.4-4.2-9.4-9.4c0-4.3,2.9-7.9,6.8-9.1c1,3.3,3.7,5.8,7.1,6.5
			c-0.1,0.7-0.2,1.3-0.2,2C218.4,116.9,219.4,119.3,221.2,121z"/>
		<path class="st8" d="M220.7,108.1c-1,1.2-1.8,2.6-2.1,4.1c-3.4-0.7-6.1-3.2-7.1-6.5c0.8-0.2,1.7-0.4,2.6-0.4
			C216.7,105.4,219,106.4,220.7,108.1z"/>
		<path class="st9" d="M229.7,105c-0.7,3.4-3.3,6-6.6,7c-0.5-1.5-1.3-2.9-2.4-4c1.7-2,4.3-3.2,7.1-3.2
			C228.4,104.8,229.1,104.9,229.7,105z"/>
		<path class="st10" d="M223.1,112c-0.8,0.2-1.7,0.4-2.6,0.4c-0.6,0-1.3-0.1-1.9-0.2c0.3-1.6,1.1-3,2.1-4.1
			C221.8,109.1,222.6,110.5,223.1,112z"/>
		<path class="st11" d="M223.5,114.8c0,2.4-0.9,4.5-2.3,6.2c-1.8-1.7-2.8-4.1-2.8-6.7c0-0.7,0.1-1.4,0.2-2c0.6,0.1,1.2,0.2,1.9,0.2
			c0.9,0,1.8-0.1,2.6-0.4C223.4,112.9,223.5,113.8,223.5,114.8z"/>
		<path class="st4" d="M237.2,114.3c0,5.2-4.2,9.4-9.4,9.4c-2.6,0-4.9-1-6.6-2.7c1.4-1.7,2.3-3.8,2.3-6.2c0-1-0.1-1.9-0.4-2.8
			c3.3-1,5.8-3.6,6.6-7C234,105.9,237.2,109.7,237.2,114.3z"/>
	</g>
</g>
<g>
	<defs>
		
			<rect id="XMLID_00000062899387198777753160000003982403116892049342_" x="157.1" y="-42.2" transform="matrix(-1.836970e-16 1 -1 -1.836970e-16 209.0344 -157.5237)" width="52.4" height="135.9"/>
	</defs>
	<use xlink:href="#XMLID_00000062899387198777753160000003982403116892049342_"  style="overflow:visible;fill:#68BE96;"/>
	<clipPath id="XMLID_00000107564419258969962170000016405572814082221199_">
		<use xlink:href="#XMLID_00000062899387198777753160000003982403116892049342_"  style="overflow:visible;"/>
	</clipPath>
	<g style="clip-path:url(#XMLID_00000107564419258969962170000016405572814082221199_);">
		<polygon class="st6" points="262.6,-18.1 267,-12.1 157.1,221.2 152.7,215.1 		"/>
		<polygon class="st6" points="272.2,-4.8 276.6,1.3 166.8,234.6 162.4,228.5 		"/>
		<polygon class="st6" points="252.8,-31.7 257.2,-25.6 147.3,207.7 142.9,201.6 		"/>
		<polygon class="st6" points="243,-45.3 247.4,-39.2 137.5,194.1 133.1,188 		"/>
		<polygon class="st6" points="233.2,-58.8 237.6,-52.7 127.7,180.6 123.3,174.5 		"/>
		<polygon class="st6" points="223.4,-72.4 227.8,-66.3 117.9,167 113.5,160.9 		"/>
	</g>
	<g style="clip-path:url(#XMLID_00000107564419258969962170000016405572814082221199_);">
		<polygon class="st6" points="178.9,-46.6 183.3,-40.5 73.5,192.7 69.1,186.6 		"/>
		<polygon class="st6" points="188.6,-33.2 193,-27.2 83.2,206.1 78.8,200 		"/>
		<polygon class="st6" points="169.1,-60.2 173.5,-54.1 63.7,179.2 59.3,173.1 		"/>
		<polygon class="st6" points="159.3,-73.7 163.7,-67.7 53.9,165.6 49.5,159.5 		"/>
		<polygon class="st6" points="149.5,-87.3 153.9,-81.2 44.1,152.1 39.7,146 		"/>
		<polygon class="st6" points="139.7,-100.8 144.1,-94.8 34.3,138.5 29.9,132.4 		"/>
	</g>
</g>
<linearGradient id="SVGID_00000026882577922046411600000015869643261691131037_" gradientUnits="userSpaceOnUse" x1="324.7049" y1="15.2839" x2="424.0961" y2="15.2839">
	<stop  offset="0" style="stop-color:#002A37"/>
	<stop  offset="1" style="stop-color:#008B9A"/>
</linearGradient>
<rect x="324.7" y="-0.3" style="fill:url(#SVGID_00000026882577922046411600000015869643261691131037_);" width="99.4" height="31.1"/>
<rect x="282" y="70.6" class="st0" width="77.2" height="31.1"/>
<g>
	<g>
		<g>
			<path class="st14" d="M619.5,731.4c0-11,8.9-20,20-20l0,0c11,0,19.9,8.9,19.9,20l0,0c0,11-8.9,19.9-19.9,19.9l0,0
				C628.4,751.4,619.5,742.4,619.5,731.4L619.5,731.4z M622.1,731.4c0,9.6,7.8,17.3,17.3,17.3l0,0c9.6,0,17.3-7.8,17.3-17.3l0,0
				c0-9.6-7.8-17.3-17.3-17.3l0,0C629.8,714.1,622.1,721.8,622.1,731.4L622.1,731.4z"/>
		</g>
		<g>
			<path class="st14" d="M555.2,731.4c0-11,8.9-20,20-20l0,0c11,0,20,8.9,20,20l0,0c0,11-8.9,19.9-20,19.9l0,0
				C564.1,751.3,555.2,742.4,555.2,731.4L555.2,731.4z M557.8,731.4c0,9.6,7.8,17.3,17.3,17.3l0,0c9.6,0,17.3-7.8,17.3-17.3l0,0
				c0-9.6-7.8-17.3-17.3-17.3l0,0C565.5,714,557.8,721.8,557.8,731.4L557.8,731.4z"/>
		</g>
		<g>
			<path class="st14" d="M630.7,714.7c-4.2-8.9-8.8-18.4-9.9-20.2l0,0c-0.4-0.7-1.1-1-2.3-1l0,0c-2.1,0-5,1.2-6.2,1.8l0,0
				c-0.4,0.2-0.6,0.3-0.7,0.3l0,0l-1-1.8c0.1,0,4.2-2.4,7.9-2.4l0,0c1.5,0,3.1,0.5,4,1.9l0,0c1.2,2,5.7,11.4,10,20.3l0,0
				c4.3,9,8.2,17.5,8.2,17.5l0,0l-1.8,0.8C638.9,732.1,634.9,723.6,630.7,714.7L630.7,714.7z M611.6,695.7L611.6,695.7L611.6,695.7
				L611.6,695.7L611.6,695.7L611.6,695.7z"/>
		</g>
		<g>
			<path class="st14" d="M616.6,718.9c-1.8,3.6-3.6,7-6.5,9.5c-2.9,2.5-6.8,4.1-13,4.2c-1.3,0-2.7-0.1-4.2-0.2
				c-9.4-1-14.6-1.5-17-1.7l16.7-23.7l-1.6-1.2l-18.7,26.5l1.7,0.1c0,0,4.6,0.4,18.7,1.9c1.6,0.2,3.1,0.2,4.4,0.2c0,0,0,0,0.1,0
				c6.6,0,11.1-1.8,14.3-4.6c3.2-2.8,5.2-6.5,6.9-10.2c1.9-3.8,5.1-7.1,7.9-9.4c1.1-0.9,2.1-1.7,3-2.2l-1-1.7
				C625.2,708.5,619.5,712.9,616.6,718.9z"/>
		</g>
		<g>
			<polygon class="st14" points="589.8,704.7 591.6,703.9 604.4,733.1 602.5,733.9 589.8,704.7 			"/>
		</g>
		<g>
			<path class="st14" d="M626.5,703.2c-3.1,1.2-8.3,3.8-12.2,8.5c-2.8,3.3-6.1,6.2-8.9,8.2c-1.4,1-2.7,1.8-3.7,2.3
				c-1,0.5-1.9,0.8-2,0.8v2c0.9,0,1.8-0.4,2.9-1c3.4-1.8,8.9-5.8,13.3-11c2.8-3.3,6.3-5.5,9.1-6.8c1-0.5,1.9-0.9,2.6-1.2
				L626.5,703.2z"/>
		</g>
		<polygon class="st14" points="596.9,701.7 581.5,699 582,704.6 599.2,704.6 		"/>
		<g>
			<polygon class="st14" points="608,693.9 616.2,691.1 617.3,694.2 609.1,697 608,693.9 			"/>
		</g>
		<circle class="st14" cx="639.4" cy="731.4" r="3.1"/>
		<path class="st14" d="M578.2,731.4c0,1.7-1.4,3.1-3.1,3.1c-1.7,0-3.1-1.4-3.1-3.1c0-1.7,1.4-3.1,3.1-3.1
			C576.8,728.3,578.2,729.7,578.2,731.4z"/>
	</g>
</g>
<g>
	<g>
		<path class="st14" d="M714.9,672.6c0-0.4,0-0.9,0-1.4c-0.4-4.2-3.8-7.6-8.1-8c-1.6-0.1-3.1,0.1-4.4,0.7c-1.5,0.7-3.2,0.8-4.7,0.3
			c-0.7-0.2-1.4-0.3-2.2-0.3c-2.4,0.2-4.4,2.2-4.7,4.6c0,0,0,0,0,0.1c-0.2,1.7-1.1,3.2-2.5,4.1c-3.6,2.1-5.9,6.1-5.5,10.7
			c0.5,5.5,4.9,9.9,10.4,10.2c1.6,0.1,3.1-0.1,4.4-0.6c2.7-0.9,5.7-0.9,8.5-0.2c1,0.2,2,0.3,3,0.2c4.5-0.4,8.1-4,8.5-8.5
			c0.2-2.1-0.3-4.1-1.3-5.7C715.2,677,714.8,674.8,714.9,672.6z"/>
	</g>
	<g>
		<g>
			<rect x="701" y="675.5" class="st15" width="1.1" height="28"/>
		</g>
		<g>
			
				<rect x="700.8" y="679.2" transform="matrix(0.7071 -0.7071 0.7071 0.7071 -274.6717 696.3269)" class="st15" width="4.7" height="1.1"/>
		</g>
		<g>
			
				<rect x="699.1" y="681.7" transform="matrix(0.7071 -0.7072 0.7072 0.7071 -278.8161 695.2062)" class="st15" width="1.1" height="4.8"/>
		</g>
	</g>
</g>
<g>
	<g>
		<path class="st14" d="M360.9,62.1c0-12.9-10.5-22.1-23.4-22.1c-12.9,0-23.4,9.2-23.4,22.1c0,8.7,10.5,19.2,17.4,25.3h12
			C350.4,81.3,360.9,70.7,360.9,62.1z"/>
		<path class="st10" d="M355.6,62.1c0-12.9-8.1-22.1-18.1-22.1c-10,0-18.1,9.2-18.1,22.1c0,8.7,8.1,19.2,13.5,25.3h9.3
			C347.4,81.3,355.6,70.7,355.6,62.1z"/>
		<path class="st16" d="M348.3,62.1c0-12.9-4.9-22.1-10.9-22.1c-6,0-10.9,9.2-10.9,22.1c0,8.7,4.9,19.2,8.1,25.3h5.6
			C343.5,81.3,348.3,70.7,348.3,62.1z"/>
		<path class="st14" d="M341.8,62.1c0-12.9-1.9-22.1-4.3-22.1c-2.4,0-4.3,9.2-4.3,22.1c0,8.7,1.9,19.2,3.2,25.3h2.2
			C339.8,81.3,341.8,70.7,341.8,62.1z"/>
	</g>
	<path class="st17" d="M338.3,101.7h-1.6c-1.2,0-2.2-1-2.2-2.2v-2.3h6v2.3C340.4,100.8,339.5,101.7,338.3,101.7z"/>
	<path class="st17" d="M331.5,87.4h12c0.7-0.6,1.5-1.3,2.2-2h-16.5C330,86.1,330.8,86.7,331.5,87.4z"/>
	<line class="st18" x1="331.3" y1="86.4" x2="335.4" y2="98.9"/>
	<line class="st18" x1="343.6" y1="86.4" x2="339.5" y2="98.9"/>
</g>
<path class="st15" d="M551.4,739.6c-2.6,0-4.9,0.7-7,1.9c-2.8-6.3-9.1-10.6-16.4-10.6c-6.6,0-12.3,3.5-15.5,8.8
	c-5.8,0.6-10.5,4.9-11.8,10.4h9.3h17.3h10.8h7.8h18.7C563.2,744.1,557.8,739.6,551.4,739.6z"/>
<g>
	<g>
		<g>
			<polygon class="st15" points="1016.9,512.7 996.8,512.7 996.8,425 1016.9,417.9 			"/>
			<polygon class="st14" points="1031.6,512.7 1016.9,512.7 1016.9,417.9 1031.6,428.2 			"/>
		</g>
		<g>
			<g>
				<g>
					<rect x="1000.1" y="431.6" class="st19" width="0.8" height="78.5"/>
				</g>
				<g>
					<rect x="1003.3" y="430.7" class="st19" width="0.8" height="79.4"/>
				</g>
				<g>
					<rect x="1006.5" y="429.8" class="st19" width="0.8" height="80.4"/>
				</g>
				<g>
					<rect x="1009.7" y="428.8" class="st19" width="0.8" height="81.3"/>
				</g>
				<g>
					<rect x="1012.8" y="427.9" class="st19" width="0.8" height="82.3"/>
				</g>
			</g>
		</g>
	</g>
	<g>
		<g>
			<polygon class="st16" points="1052.3,428.4 1052.3,512.7 1025.8,512.7 1025.8,444.5 1026.1,444.4 1026.6,444.1 1031.9,440.8 
				1032.7,440.3 1038.6,436.8 1039.4,436.2 1045.2,432.7 1046,432.2 			"/>
			<rect x="1052.3" y="428.4" class="st14" width="19.2" height="84.4"/>
		</g>
		<polygon class="st10" points="1032.7,440.3 1032.7,512.7 1031.9,512.7 1031.9,440.8 		"/>
		<polygon class="st10" points="1039.4,436.2 1039.4,512.7 1038.6,512.7 1038.6,436.8 		"/>
		<polygon class="st10" points="1046,432.2 1046,512.7 1045.2,512.7 1045.2,432.7 		"/>
		<rect x="1052" y="444.1" class="st19" width="19.5" height="0.8"/>
		<rect x="1052" y="458" class="st19" width="19.5" height="0.8"/>
		<rect x="1052" y="472" class="st19" width="19.5" height="0.8"/>
		<rect x="1052" y="486" class="st19" width="19.5" height="0.8"/>
		<rect x="1052" y="500" class="st19" width="19.5" height="0.8"/>
		<rect x="1058.5" y="428.4" class="st19" width="0.8" height="84.4"/>
		<rect x="1065.2" y="428.4" class="st19" width="0.8" height="84.4"/>
		<polygon class="st10" points="1052.3,444.1 1052.3,444.9 1025.8,444.9 1025.8,444.5 1026.1,444.4 1026.6,444.1 		"/>
		<rect x="1025.8" y="458" class="st10" width="26.5" height="0.8"/>
		<rect x="1025.8" y="472" class="st10" width="26.5" height="0.8"/>
		<rect x="1025.8" y="486" class="st10" width="26.5" height="0.8"/>
		<rect x="1025.8" y="500" class="st10" width="26.5" height="0.8"/>
	</g>
	<g>
		<rect x="1071.4" y="456.7" class="st16" width="25.9" height="56"/>
		
			<rect x="1097.3" y="456.7" transform="matrix(-1 -1.224647e-16 1.224647e-16 -1 2201.2622 969.4575)" class="st20" width="6.6" height="56"/>
		<rect x="1071.4" y="454.4" class="st19" width="25.9" height="2.4"/>
		
			<rect x="1097.3" y="454.4" transform="matrix(-1 -1.224647e-16 1.224647e-16 -1 2201.2622 911.1218)" class="st14" width="6.6" height="2.4"/>
		<g>
			<line class="st21" x1="1076.1" y1="463.1" x2="1092.6" y2="463.1"/>
			<line class="st21" x1="1076.1" y1="469.3" x2="1092.6" y2="469.3"/>
			<line class="st21" x1="1076.1" y1="475.5" x2="1092.6" y2="475.5"/>
			<line class="st21" x1="1076.1" y1="481.6" x2="1092.6" y2="481.6"/>
			<line class="st21" x1="1076.1" y1="487.8" x2="1092.6" y2="487.8"/>
			<line class="st21" x1="1076.1" y1="494" x2="1092.6" y2="494"/>
			<line class="st21" x1="1076.1" y1="500.2" x2="1092.6" y2="500.2"/>
			<line class="st21" x1="1076.1" y1="506.4" x2="1092.6" y2="506.4"/>
		</g>
	</g>
	<g id="XMLID_325_">
		<g id="XMLID_357_">
			
				<rect id="XMLID_391_" x="972.3" y="470.2" transform="matrix(-1 -1.224647e-16 1.224647e-16 -1 1946.1588 945.9276)" class="st16" width="1.6" height="5.5"/>
			
				<rect id="XMLID_390_" x="984" y="479.3" transform="matrix(-1 -1.224647e-16 1.224647e-16 -1 1986.2748 991.9783)" class="st14" width="18.3" height="33.4"/>
			<polygon id="XMLID_389_" class="st16" points="967.1,512.7 985.4,512.7 985.4,479.3 975.9,471 967.1,479.3 			"/>
			<polygon id="XMLID_388_" class="st10" points="975.9,471 992.6,471 1002.3,479.3 985.4,479.3 			"/>
			<g id="XMLID_383_">
				<g id="XMLID_386_">
					<path id="XMLID_387_" class="st22" d="M981.8,483.9v4.3h-3.6v-4.3c0-0.8,0.5-1.4,1.2-1.7c0.2-0.1,0.4-0.1,0.6-0.1
						C981,482.1,981.8,482.9,981.8,483.9z"/>
				</g>
			</g>
			<g id="XMLID_378_">
				<g id="XMLID_381_">
					<path id="XMLID_382_" class="st14" d="M973.9,483.9v4.3h-3.6v-4.3c0-0.8,0.5-1.4,1.2-1.7c0.2-0.1,0.4-0.1,0.6-0.1
						C973.1,482.1,973.9,482.9,973.9,483.9z"/>
				</g>
			</g>
			<g id="XMLID_373_">
				<g id="XMLID_376_">
					<path id="XMLID_377_" class="st14" d="M981.8,493.8v4.3h-3.6v-4.3c0-0.8,0.5-1.4,1.2-1.7c0.2-0.1,0.4-0.1,0.6-0.1
						C981,492,981.8,492.8,981.8,493.8z"/>
				</g>
			</g>
			<g id="XMLID_368_">
				<g id="XMLID_371_">
					<path id="XMLID_372_" class="st14" d="M973.9,493.8v4.3h-3.6v-4.3c0-0.8,0.5-1.4,1.2-1.7c0.2-0.1,0.4-0.1,0.6-0.1
						C973.1,492,973.9,492.8,973.9,493.8z"/>
				</g>
			</g>
			<g id="XMLID_363_">
				<g id="XMLID_366_">
					<path id="XMLID_367_" class="st14" d="M981.8,503.7v4.3h-3.6v-4.3c0-0.8,0.5-1.4,1.2-1.7c0.2-0.1,0.4-0.1,0.6-0.1
						C981,501.9,981.8,502.7,981.8,503.7z"/>
				</g>
			</g>
			<g id="XMLID_358_">
				<g id="XMLID_361_">
					<path id="XMLID_362_" class="st22" d="M973.9,503.7v4.3h-3.6v-4.3c0-0.8,0.5-1.4,1.2-1.7c0.2-0.1,0.4-0.1,0.6-0.1
						C973.1,501.9,973.9,502.7,973.9,503.7z"/>
				</g>
			</g>
		</g>
		<g id="XMLID_350_">
			
				<rect id="XMLID_351_" x="989.7" y="487.3" transform="matrix(-1.836970e-16 1 -1 -1.836970e-16 1480.5082 -502.9737)" class="st10" width="4.1" height="2.9"/>
		</g>
		<g id="XMLID_345_">
			
				<rect id="XMLID_346_" x="994.8" y="487.3" transform="matrix(-1.836970e-16 1 -1 -1.836970e-16 1485.6074 -508.0729)" class="st10" width="4.1" height="2.9"/>
		</g>
		<g id="XMLID_340_">
			
				<rect id="XMLID_341_" x="989.7" y="494" transform="matrix(-1.836970e-16 1 -1 -1.836970e-16 1487.2035 -496.2784)" class="st10" width="4.1" height="2.9"/>
		</g>
		<g id="XMLID_335_">
			
				<rect id="XMLID_336_" x="994.8" y="494" transform="matrix(-1.836970e-16 1 -1 -1.836970e-16 1492.3027 -501.3775)" class="st10" width="4.1" height="2.9"/>
		</g>
	</g>
	<g>
		<polygon class="st22" points="1042.6,482.2 1093.4,482.2 1078.1,467 1057.8,467 		"/>
		<polygon class="st10" points="1073.1,482.2 1057.8,467 1042.6,482.2 1042.6,482.2 1042.6,482.2 1042.6,482.2 1042.6,482.2 
			1042.6,512.7 1093.4,512.7 1093.4,482.2 		"/>
		<rect x="1073.1" y="482.2" class="st14" width="20.3" height="30.5"/>
		<g>
			<g>
				<g>
					<rect x="1086.4" y="490.1" class="st10" width="1.8" height="4.1"/>
				</g>
			</g>
			<g>
				<g>
					<rect x="1082.7" y="490.1" class="st10" width="1.8" height="4.1"/>
				</g>
			</g>
			<g>
				<g>
					<rect x="1079.1" y="490.1" class="st10" width="1.8" height="4.1"/>
				</g>
			</g>
			<g>
				<g>
					<rect x="1086.4" y="497.6" class="st10" width="1.8" height="4.1"/>
				</g>
			</g>
			<g>
				<g>
					<rect x="1082.7" y="497.6" class="st10" width="1.8" height="4.1"/>
				</g>
			</g>
			<g>
				<g>
					<rect x="1079.1" y="497.6" class="st10" width="1.8" height="4.1"/>
				</g>
			</g>
		</g>
		<rect x="1045.7" y="488.6" class="st19" width="23.2" height="1.3"/>
		<rect x="1045.7" y="493.7" class="st19" width="23.2" height="1.3"/>
		<rect x="1045.7" y="498.9" class="st19" width="23.2" height="1.3"/>
		<rect x="1045.7" y="504" class="st19" width="23.2" height="1.3"/>
	</g>
	<g>
		<rect x="1103.4" y="488.5" class="st10" width="24.2" height="24.2"/>
		<polygon class="st14" points="1103.4,488.5 1115.5,476.4 1139.7,476.4 1127.6,488.5 		"/>
		<polygon class="st20" points="1139.7,476.4 1139.7,512.7 1127.6,512.7 1127.6,488.3 		"/>
		<g>
			<g>
				<g>
					
						<rect x="1135" y="491.6" transform="matrix(6.123234e-17 -1 1 6.123234e-17 643.4291 1628.7458)" class="st10" width="2.1" height="2.1"/>
				</g>
			</g>
			<g>
				<g>
					
						<rect x="1135" y="495.8" transform="matrix(6.123234e-17 -1 1 6.123234e-17 639.2667 1632.9082)" class="st10" width="2.1" height="2.1"/>
				</g>
			</g>
			<g>
				<g>
					
						<rect x="1135" y="499.9" transform="matrix(6.123234e-17 -1 1 6.123234e-17 635.1042 1637.0707)" class="st10" width="2.1" height="2.1"/>
				</g>
			</g>
			<g>
				<g>
					
						<rect x="1135" y="504.1" transform="matrix(6.123234e-17 -1 1 6.123234e-17 630.9417 1641.2333)" class="st10" width="2.1" height="2.1"/>
				</g>
			</g>
			<g>
				<g>
					
						<rect x="1131.2" y="491.6" transform="matrix(6.123234e-17 -1 1 6.123234e-17 639.6021 1624.9188)" class="st10" width="2.1" height="2.1"/>
				</g>
			</g>
			<g>
				<g>
					
						<rect x="1131.2" y="495.8" transform="matrix(6.123234e-17 -1 1 6.123234e-17 635.4397 1629.0812)" class="st10" width="2.1" height="2.1"/>
				</g>
			</g>
			<g>
				<g>
					
						<rect x="1131.2" y="499.9" transform="matrix(6.123234e-17 -1 1 6.123234e-17 631.2772 1633.2438)" class="st10" width="2.1" height="2.1"/>
				</g>
			</g>
			<g>
				<g>
					
						<rect x="1131.2" y="504.1" transform="matrix(6.123234e-17 -1 1 6.123234e-17 627.1147 1637.4062)" class="st10" width="2.1" height="2.1"/>
				</g>
			</g>
		</g>
		<g>
			<rect x="1106.5" y="491.6" class="st19" width="1.9" height="5"/>
			<rect x="1112.1" y="491.6" class="st19" width="1.9" height="5"/>
			<rect x="1117.7" y="491.6" class="st19" width="1.9" height="5"/>
			<rect x="1123.3" y="491.6" class="st19" width="1.9" height="5"/>
		</g>
		<g>
			<rect x="1106.5" y="500.8" class="st19" width="1.9" height="5"/>
			<rect x="1112.1" y="500.8" class="st19" width="1.9" height="5"/>
			<rect x="1117.7" y="500.8" class="st19" width="1.9" height="5"/>
			<rect x="1123.3" y="500.8" class="st19" width="1.9" height="5"/>
		</g>
	</g>
	<g>
		<g>
			<g>
				<g>
					<path class="st10" d="M1118.4,444.6c-0.5-1.1,0.1-2.4,1.1-2.8l0,0l12.5-5.2c1.1-0.5,2.4,0.1,2.8,1.1l0,0
						c0.5,1.1-0.1,2.4-1.1,2.8l0,0l-12.5,5.2c-0.3,0.1-0.6,0.2-0.8,0.2l0,0C1119.6,445.9,1118.8,445.4,1118.4,444.6L1118.4,444.6z"
						/>
				</g>
				<g>
					<path class="st10" d="M1118.4,439.1c-0.5-1.1,0.1-2.4,1.1-2.8l0,0l12.5-5.2c1.1-0.5,2.4,0.1,2.8,1.1l0,0
						c0.5,1.1-0.1,2.4-1.1,2.8l0,0l-12.5,5.2c-0.3,0.1-0.6,0.2-0.8,0.2l0,0C1119.6,440.4,1118.8,439.9,1118.4,439.1L1118.4,439.1z"
						/>
				</g>
				<g>
					<path class="st10" d="M1118.5,433.5c-0.5-1.1,0-2.4,1.1-2.8l0,0l8-3.5c1.1-0.5,2.4,0,2.8,1.1l0,0c0.5,1.1,0,2.4-1.1,2.8l0,0
						l-8,3.5c-0.3,0.1-0.6,0.2-0.9,0.2l0,0C1119.6,434.8,1118.8,434.3,1118.5,433.5L1118.5,433.5z"/>
				</g>
				<g>
					<path class="st10" d="M1118.4,450.3c-0.5-1.1,0.1-2.4,1.1-2.8l0,0l12.5-5.2c1.1-0.5,2.4,0.1,2.8,1.1l0,0
						c0.5,1.1-0.1,2.4-1.1,2.8l0,0l-12.5,5.2c-0.3,0.1-0.6,0.2-0.8,0.2l0,0C1119.6,451.6,1118.8,451.1,1118.4,450.3L1118.4,450.3z"
						/>
				</g>
				<g>
					<path class="st10" d="M1126.6,451.8c-1-1.5-2.8-2.5-5.1-2.7c-0.7-0.1-1.4,0.4-1.5,1.2c-0.1,0.7,0.5,1.4,1.2,1.5
						c1.9,0.2,2.7,0.8,3.2,1.5c0.3,0.4,0.5,1,0.6,1.7h2.7C1127.5,453.9,1127.2,452.8,1126.6,451.8z"/>
				</g>
				<g>
					<path class="st10" d="M1135.8,447.4c-0.2-0.7-1-1.1-1.7-0.8v0c-2.5,0.8-4,2.7-4.6,4.6c-0.4,1.3-0.6,2.6-0.7,3.8h2.7
						c0.1-1.1,0.2-2.1,0.5-3c0.5-1.4,1.2-2.3,3-2.9C1135.7,448.9,1136.1,448.1,1135.8,447.4z"/>
				</g>
				<g>
					<g>
						<path class="st10" d="M1122.8,455.9v5c0,1.9,1.5,3.4,3.4,3.4h4.3c1.9,0,3.4-1.5,3.4-3.4v-5H1122.8z"/>
					</g>
					<g>
						<path class="st10" d="M1125.5,462.3v4.9c0,1,0.8,1.7,1.7,1.7h2.2c1,0,1.7-0.8,1.7-1.7v-4.9H1125.5z"/>
					</g>
				</g>
			</g>
		</g>
	</g>
</g>
<path class="st15" d="M813,613.9c2.1,0,4.1,0.6,5.8,1.6c2.4-5.2,7.6-8.9,13.8-8.9c5.5,0,10.3,3,13,7.4c4.8,0.5,8.8,4.1,9.9,8.7h-7.8
	h-14.5h-9h-6.6h-15.7C803.1,617.6,807.6,613.9,813,613.9z"/>
<rect x="1059.7" y="634.9" class="st23" width="114.8" height="114.8"/>
<rect x="1172.6" y="637" class="st24" width="112.8" height="112.8"/>
<rect x="1285.3" y="637" class="st24" width="112.8" height="112.8"/>
<path class="st25" d="M1398.1,712.8c0,0-25.2-15.1-71.3-15.1s-152.2,20.9-152.2,20.9v31.2h223.5V712.8z"/>
<path class="st26" d="M1172.6,712.8c0,0,9.9-19.4,56.4-19.4s169.1,41.7,169.1,41.7v14.7h-225.5V712.8z"/>
<linearGradient id="SVGID_00000060718529090394543560000011138800865825498509_" gradientUnits="userSpaceOnUse" x1="1227.4615" y1="292.1144" x2="1240.7897" y2="544.0165">
	<stop  offset="0" style="stop-color:#002B38"/>
	<stop  offset="1" style="stop-color:#0093A3"/>
</linearGradient>
<rect x="1190.5" y="436.2" style="fill:url(#SVGID_00000060718529090394543560000011138800865825498509_);" width="94.1" height="94.1"/>
<rect x="947.1" y="679.9" class="st28" width="112.8" height="69.8"/>
<rect x="834.3" y="637" class="st29" width="112.8" height="112.8"/>
<g>
	<defs>
		<rect id="XMLID_00000135682122467138357940000005888263147772306100_" x="1102.5" y="530.2" width="304.1" height="106.9"/>
	</defs>
	<use xlink:href="#XMLID_00000135682122467138357940000005888263147772306100_"  style="overflow:visible;fill:#005B7A;"/>
	<clipPath id="XMLID_00000094575779845260152470000005628827503248333449_">
		<use xlink:href="#XMLID_00000135682122467138357940000005888263147772306100_"  style="overflow:visible;"/>
	</clipPath>
	
		<linearGradient id="SVGID_00000142145957407733661450000005994182413515827105_" gradientUnits="userSpaceOnUse" x1="1246.8494" y1="665.9433" x2="1246.8494" y2="563.4718">
		<stop  offset="0" style="stop-color:#002B38"/>
		<stop  offset="1" style="stop-color:#0093A3"/>
	</linearGradient>
	
		<path style="clip-path:url(#XMLID_00000094575779845260152470000005628827503248333449_);fill:url(#SVGID_00000142145957407733661450000005994182413515827105_);" d="
		M1106.6,603.3c0,0,18.6-20.3,53.6-20.4c34.9-0.1,60.2,15.9,77.2,12.3c17.1-3.6,33.2-28.3,69.6-32.3s64.1,23,89.2-2.2l-3.9,89.2
		h-294.7l0.9-45.8L1106.6,603.3"/>
	<g style="clip-path:url(#XMLID_00000094575779845260152470000005628827503248333449_);">
		<g>
			<g id="_03-eco_earth_00000034079567438032251860000014030973991045963431_">
				<path class="st24" d="M1236.5,571.8c-3.7-0.8-7.7-0.2-10.9,1.8c-1.6,1.2-2.7,2.8-3.2,4.7c-0.4,1.9,0.3,3.8,1.7,5
					c0.9,0.7,2,1.3,3,1.7c1.3,0.7,2.8,1,4.2,0.8c0.8-0.2,1.6-0.7,2.2-1.3c0.6-0.6,1-1.2,1.5-1.9c1.6-1.7,3.4-3.2,5.2-4.7
					c0.6-0.5,1-1.1,1.3-1.8c0.1-0.7-0.1-1.4-0.6-2c-0.4-0.7-1-1.3-1.7-1.7C1238.4,572.2,1237.5,571.9,1236.5,571.8z M1257.2,571.5
					c-2.7-0.1-4.9,2-5,4.7c0,1.2,0.3,2.4,0.9,3.5c0.7,1,1.8,1.6,3,1.5h1.2c2,0,3.6,1.6,3.6,3.6c0,2-1.6,3.6-3.6,3.6h-6
					c-2.7,0-4.8,2.2-4.8,4.8v0.9c0,2.2,1.7,3.9,3.9,3.9c0,0,0,0,0,0c0.5,0,1-0.1,1.5-0.3c1.4-0.6,2.8-0.9,4.3-1.1c0.5,0,1,0,1.5,0.1
					c2.1,0.4,1.7,1,3.6,1.8c1.5,0.5,3,1,4.5,1.3c1.4,0.4,2.4,1.6,2.4,3.1c0,1-0.3,1.9-0.7,2.8c-0.3,0.9-0.9,1.6-1.7,2h-2.4
					c-2.3-0.5-4.7-3.1-7-3.7c-4.6-1.2-9.5,1.8-12.2,5.6c-1.7,2.3-2.6,5.1-2.6,8c0.2,3,2.1,5.5,4.8,6.6c3.1,1.1,6.9,0,9.7,1.7
					c1.4,1,2.4,2.3,3.1,3.9c1,1.8,1.7,3.7,1.9,5.7c0.2,3.1-1.7,7.7-3,11.9c-0.7,2.7,0.9,5.4,3.5,6.1c0.5,0.1,1,0.2,1.5,0.2
					c1.1,0,2.3-0.3,3.2-1c3.9-2.9,5.5-9.1,8.3-13c2.2-3.1,5.1-5.8,7.2-9c2.3-3.1,2.7-7.2,1-10.7c-1.2-1.4-2.6-2.6-4.1-3.7
					c-0.7-0.7-1-1.6-1-2.5c0-2,1.6-3.5,3.6-3.6h0.3c0.6,0,1.2,0.1,1.8,0.5c4,2.3,6.5,5.6,11.2,6.8c0,0.8,0.1,1.6,0.1,2.4
					c0,30.7-24.9,55.6-55.6,55.6c-30.7,0-55.6-24.9-55.6-55.6c0-0.7,0-1.4,0-2.1c1.6,1.9,3.5,3.6,5.6,4.9c1.3,1,2.7,1.9,4.2,2.6
					c2.6,1.2,5.6,1.4,8.3,2.5c0.7,0.2,1.3,0.7,1.7,1.3c0.5,0.8,0.6,1.8,0.4,2.8c-0.2,0.7-3.3,1.7-3.3,2.4c0,2.4,0,2.5,0,4.8
					c0,1.5,3.5,2.5,4.6,3.6c1.3,1.2,2.5,2.3,3.8,3.5c1,0.9,2.1,1.3,3.1,2.2c2,2,3.7,4.3,4.9,6.9c1,2,2.3,3.8,3.8,5.4
					c0.7,0.7,1.4,1.3,2.2,1.9c0.7,0.5,1.4,0.7,2.2,0.7c1.2-0.1,2.3-0.7,3-1.7c0.8-0.9,1.3-2,1.4-3.2v-7.2c0.9-0.9,1.8-1.8,2.5-2.9
					c1-1.2,0.9-2.8,1.6-4.2c0.9-1.9,3.1-2.3,3.1-4.9c0.1-1.9-1.1-3.6-2.9-4.1c-1.6-0.8-3.4-1.1-5-1.8c-2-0.8-4-1.9-5.8-3.1
					c-4.3-2.6-8.6-4.9-13.1-7c-2.7-1.3-5.1-2.9-7.3-4.9c-0.6-0.5-1.3-0.8-2-1v-4.8c0.9-0.5,1.7-1.2,2.2-2.1c0.6-0.9,1.2-1.7,1.7-2.7
					c1.5-2,3.2-3.8,5.1-5.6c1.9-1.4,4.2-2.2,6.6-2.1c1.1-0.1,2.5-0.1,3.8-0.3c2.4-0.3,4.7-1.9,4.7-4.2v-2.4c-0.2-2.1-1.3-2.7-3-4.2
					c-1-1-2.3-1.8-3.7-2.2c-2.2-0.2-4.4,0.2-6.3,1.1c-1.7,0.6-3.5,1-5.3,1.4c-1.5,0.2-2.3-1.2-2.4-2.5c-0.1-1,0.4-2,1.3-2.6
					c1-0.7,2.2-1.2,3.3-1.5l4.1-1.5v-2.4c0-0.8-1.9-1.8-2.4-2.4h-4.8l-0.3-0.4c17.5-13.6,41.5-15.5,60.9-4.8l-0.2,0.4H1257.2z
					 M1224.4,618.6c0.5-1.3,0.3-2.8-0.3-4c-0.8-1.7-2.1-3.1-3.7-4.1c-1.7-1.1-3.3,0-4.4,1.4c-0.6,0.5-0.9,1.3-0.9,2.1
					c0.1,0.5,0.3,1,0.7,1.4c0.5,0.7,1.1,1.4,1.7,2.1c1.3,1.1,2.8,1.9,4.4,2.2c0.6,0.2,1.2,0.2,1.8-0.1
					C1224,619.4,1224.3,619,1224.4,618.6z"/>
				<path class="st26" d="M1239.3,572.6c0.7,0.4,1.3,1,1.7,1.7c0.4,0.6,0.6,1.3,0.6,2c-0.2,0.7-0.7,1.3-1.3,1.8
					c-1.8,1.4-3.6,3-5.2,4.7c-0.5,0.6-0.9,1.3-1.5,1.9c-0.6,0.7-1.3,1.1-2.2,1.3c-1.5,0.2-2.9-0.1-4.2-0.8c-1.1-0.4-2.1-1-3-1.7
					c-1.5-1.2-2.1-3.2-1.7-5c0.5-1.9,1.6-3.6,3.2-4.7c3.3-2,7.2-2.7,10.9-1.8C1237.5,571.9,1238.4,572.2,1239.3,572.6z"/>
				<path class="st26" d="M1205.4,576.3h4.8c0.6,0.6,2.4,1.6,2.4,2.4v2.4l-4.1,1.5c-1.2,0.3-2.3,0.8-3.3,1.5
					c-0.9,0.6-1.3,1.6-1.3,2.6c0.1,1.3,0.9,2.8,2.4,2.5c1.8-0.3,3.6-0.8,5.3-1.4c2-0.9,4.2-1.3,6.3-1.1c1.4,0.4,2.7,1.2,3.7,2.2
					c1.7,1.5,2.8,2.1,3,4.2v2.4c0,2.3-2.4,3.9-4.7,4.2c-1.3,0.2-2.7,0.2-3.8,0.3c-2.4-0.1-4.7,0.7-6.6,2.1c-1.8,1.7-3.6,3.6-5.1,5.6
					c-0.5,0.9-1.1,1.8-1.7,2.7c-0.5,0.9-1.3,1.6-2.2,2.1v4.8c0.7,0.2,1.4,0.6,2,1c2.2,2,4.7,3.6,7.3,4.9c4.5,2.1,8.9,4.5,13.1,7
					c1.8,1.2,3.8,2.3,5.8,3.1c1.7,0.6,3.5,1,5,1.8c1.8,0.5,3,2.2,2.9,4.1c0,2.5-2.3,3-3.1,4.9c-0.7,1.4-0.6,3-1.6,4.2
					c-0.8,1-1.6,2-2.5,2.9v7.2c-0.1,1.2-0.6,2.3-1.4,3.2c-0.7,0.9-1.8,1.6-3,1.7c-0.8,0-1.6-0.2-2.2-0.7c-0.8-0.6-1.5-1.2-2.2-1.9
					c-1.5-1.6-2.8-3.5-3.8-5.4c-1.2-2.6-2.9-4.9-4.9-6.9c-1-0.8-2.1-1.3-3.1-2.2c-1.3-1.2-2.5-2.3-3.8-3.5c-1.1-1-4.6-2.1-4.6-3.6
					c0-2.3,0-2.4,0-4.8c0-0.7,3.1-1.7,3.3-2.4c0.3-0.9,0.1-1.9-0.4-2.8c-0.4-0.6-1-1.1-1.7-1.3c-2.7-1.1-5.7-1.3-8.3-2.5
					c-1.5-0.7-2.9-1.6-4.2-2.6c-2.1-1.3-4-3-5.6-4.9c0.6-16.4,8.4-31.7,21.4-41.8L1205.4,576.3z"/>
				<path class="st26" d="M1224.1,614.6c0.7,1.2,0.8,2.7,0.3,4c-0.1,0.4-0.4,0.7-0.8,0.9c-0.6,0.3-1.2,0.3-1.8,0.1
					c-1.7-0.3-3.2-1.1-4.4-2.2c-0.6-0.6-1.2-1.3-1.7-2.1c-0.3-0.4-0.6-0.9-0.7-1.4c0-0.8,0.3-1.6,0.9-2.1c1.1-1.3,2.8-2.4,4.4-1.4
					C1222,611.5,1223.3,612.9,1224.1,614.6z"/>
				<path class="st26" d="M1294.7,617.4c-4.6-1.2-7.2-4.4-11.2-6.8c-0.5-0.3-1.1-0.5-1.8-0.5h-0.3c-2,0-3.5,1.6-3.6,3.6
					c0,0.9,0.3,1.8,1,2.5c1.5,1.1,2.9,2.3,4.1,3.7c1.7,3.5,1.3,7.6-1,10.7c-2,3.2-5,5.9-7.2,9c-2.9,4-4.4,10.1-8.3,13
					c-0.9,0.7-2,1-3.2,1c-2.7,0.1-5.1-2-5.2-4.7c0-0.5,0-1,0.2-1.5c1.3-4.2,3.2-8.7,3-11.9c-0.2-2-0.9-4-1.9-5.7
					c-0.7-1.5-1.7-2.9-3.1-3.9c-2.8-1.7-6.6-0.6-9.7-1.7c-2.7-1.1-4.6-3.7-4.8-6.6c-0.1-2.9,0.8-5.7,2.6-8c2.7-3.8,7.6-6.8,12.2-5.6
					c2.3,0.6,4.6,3.2,7,3.7h2.4c0.8-0.4,1.5-1.1,1.7-2c0.4-0.9,0.6-1.8,0.7-2.8c0-1.5-1-2.7-2.4-3.1c-1.5-0.3-3-0.8-4.5-1.3
					c-1.9-0.8-1.5-1.4-3.6-1.8c-0.5-0.1-1-0.2-1.5-0.1c-1.5,0.2-2.9,0.5-4.3,1.1c-0.5,0.2-1,0.3-1.5,0.3c-2.2,0-3.9-1.7-3.9-3.9
					c0,0,0,0,0,0v-0.9c0-2.7,2.2-4.8,4.8-4.8h6c2,0,3.6-1.6,3.6-3.6c0-2-1.6-3.6-3.6-3.6h-1.2c-1.2,0.1-2.3-0.5-3-1.5
					c-0.6-1-1-2.3-0.9-3.5c0.1-2.7,2.3-4.8,5-4.7h8.6l0.2-0.4C1283,580.5,1293.9,598,1294.7,617.4z"/>
				<path class="st24" d="M1269.9,648.4c-0.9,1.6-2.1,3-3.5,4.2c-0.9,0.7-2,1-3.2,1c-1.4,0-2.8-0.5-3.8-1.5c-9.8,2.4-20.1,2-29.8-1
					c-0.1,0.1-0.1,0.1-0.2,0.2v7.2c-0.1,1.2-0.6,2.3-1.4,3.2c-0.7,0.9-1.8,1.6-3,1.7c-0.8,0-1.6-0.2-2.2-0.7
					c-0.8-0.6-1.5-1.2-2.2-1.9c-1.5-1.6-2.8-3.5-3.8-5.4c-1.2-2.6-2.9-4.9-4.9-6.9c-1-0.8-2.1-1.3-3.1-2.2c-1.3-1.2-2.5-2.3-3.8-3.5
					c-1.1-1-4.6-2.1-4.6-3.6c0-2.3,0-2.4,0-4.8c0-0.5,1.4-1.1,2.4-1.7c-1.4-1.8-2.8-3.7-4-5.7c-1.9-0.4-3.7-0.9-5.5-1.7
					c-1.5-0.7-2.9-1.6-4.2-2.6c-2.1-1.3-4-3-5.6-4.9c0,0.7,0,1.4,0,2.1c0,30.7,25,55.5,55.6,55.5c28.2,0,51.9-21.2,55.1-49.2
					C1288.7,635.9,1280.1,643.6,1269.9,648.4z"/>
				<path class="st26" d="M1202.9,632.6c-1,0.6-2.4,1.2-2.4,1.7c0,2.4,0,2.5,0,4.8c0,1.5,3.5,2.5,4.6,3.6c1.3,1.2,2.5,2.3,3.8,3.5
					c1,0.9,2.1,1.3,3.1,2.2c2,2,3.7,4.3,4.9,6.9c1,2,2.3,3.8,3.8,5.4c0.7,0.7,1.4,1.3,2.2,1.9c0.7,0.5,1.4,0.7,2.2,0.7
					c1.2-0.1,2.3-0.7,3-1.7c0.8-0.9,1.3-2,1.4-3.2v-7.2c0.1-0.1,0.1-0.1,0.2-0.2C1219.1,647.7,1209.8,641.3,1202.9,632.6z"/>
				<path class="st26" d="M1189.2,622.6c1.3,1,2.7,1.9,4.2,2.6c1.8,0.7,3.6,1.3,5.5,1.7c-5.3-8.7-8.1-18.7-8.1-28.9
					c0-2.1,0.1-4.2,0.4-6.3c-4.7,7.9-7.3,16.9-7.6,26C1185.2,619.7,1187.1,621.3,1189.2,622.6z"/>
				<path class="st32" d="M1263.2,653.6c1.1,0,2.3-0.3,3.2-1c1.4-1.2,2.6-2.6,3.5-4.2c-3.4,1.6-6.9,2.8-10.5,3.7
					C1260.4,653.1,1261.8,653.6,1263.2,653.6z"/>
				<path class="st33" d="M1208.5,582.6c-1.2,0.3-2.3,0.8-3.3,1.5c-0.4,0.3-0.7,0.7-1,1.1c1.6-1,3.2-1.9,4.8-2.8L1208.5,582.6z"/>
			</g>
		</g>
	</g>
</g>
<rect x="1284.6" y="436.2" class="st23" width="74.2" height="94.1"/>
<path class="st26" d="M758.8,703.2L758.8,703.2c0-20.6,16.7-37.4,37.4-37.4h0c20.6,0,37.4,16.7,37.4,37.4l0,0H758.8z"/>
<g>
	<defs>
		<rect id="XMLID_00000043433682018499648370000008196438611733417891_" x="967.3" y="507" width="170.1" height="130.2"/>
	</defs>
	<use xlink:href="#XMLID_00000043433682018499648370000008196438611733417891_"  style="overflow:visible;fill:#00B9C9;"/>
	<clipPath id="XMLID_00000052087305867388297770000014399321738085050547_">
		<use xlink:href="#XMLID_00000043433682018499648370000008196438611733417891_"  style="overflow:visible;"/>
	</clipPath>
	<path style="clip-path:url(#XMLID_00000052087305867388297770000014399321738085050547_);fill:#008987;" d="M957.2,596h187.1
		c3.7,0,6.7,3,6.7,6.7v41.5c0,3.7-3,6.7-6.7,6.7H957.2c-3.7,0-6.7-3-6.7-6.7v-41.5C950.5,599.1,953.5,596,957.2,596z"/>
</g>
<g>
	<path class="st35" d="M1181.9,677.6l11.3-3c0.2,0.3,0.5,0.6,0.8,0.7l-0.8,43c0,0.6,0.5,1.1,1.1,1.1h0.6c0.6,0,1.1-0.5,1.1-1.1
		l-0.8-43c0.1,0,0.2-0.1,0.2-0.1l0.7,0.7c0.4,0.8,0.8,2.2,1.3,2.6c0.5,0.5,4.2,3.5,6.1,4.9c0.3,0.2,0.5,0.2,0.7,0.1
		c0.1-0.1,0.1-0.4,0-0.5l-8.3-8.3c0.2-0.2,0.2-0.5,0.2-0.8c0-0.6-0.3-1.1-0.8-1.4l0.3-0.9c0.5-0.7,1.5-1.8,1.6-2.4
		c0.2-0.7,0.9-5.4,1.1-7.7c0-0.4-0.1-0.6-0.3-0.6c-0.2,0-0.4,0.1-0.4,0.2l-3,11.3c0,0,0,0-0.1,0c-0.9,0-1.6,0.7-1.6,1.6
		c0,0,0,0,0,0.1l-0.9,0.3c-0.9-0.1-2.3-0.4-2.9-0.2c-0.7,0.2-5.2,1.9-7.3,2.9c-0.3,0.2-0.5,0.3-0.4,0.5
		C1181.6,677.5,1181.8,677.6,1181.9,677.6z"/>
	<path class="st35" d="M1204.6,678.9h10.6c0.1,0.5,0.4,0.8,0.9,1l-0.7,38.4c0,0.6,0.5,1.1,1.1,1.1h0.4c0.6,0,1.1-0.5,1.1-1.1
		l-0.7-38.2l0.3,0.6c0.2,0.8,0.2,2.1,0.5,2.6c0.3,0.5,2.9,4.1,4.2,5.7c0.2,0.3,0.4,0.3,0.6,0.3c0.2-0.1,0.2-0.3,0.1-0.4l-5.3-9.2
		c0.3-0.3,0.5-0.6,0.5-1c0-0.4-0.2-0.8-0.5-1l0.4-0.8c0.6-0.5,1.7-1.2,2-1.7c0.3-0.5,2.1-4.5,2.8-6.5c0.1-0.3,0.1-0.5-0.1-0.6
		c-0.2-0.1-0.3,0-0.4,0.1l-5.3,9.2c-0.1,0-0.3-0.1-0.4-0.1c-0.7,0-1.2,0.5-1.4,1.1h-0.9c-0.8-0.3-1.9-0.9-2.5-0.9
		c-0.6,0-5,0.5-7.1,0.8c-0.3,0.1-0.5,0.2-0.5,0.4C1204.3,678.7,1204.4,678.9,1204.6,678.9z"/>
	<path class="st35" d="M1226.6,688.3h8.1c0.1,0.4,0.3,0.6,0.7,0.8l-0.6,29.4c0,0.5,0.4,0.9,0.8,0.9h0.3c0.5,0,0.8-0.4,0.8-0.9
		l-0.6-29.3l0.3,0.4c0.1,0.6,0.2,1.6,0.4,2c0.2,0.4,2.2,3.1,3.2,4.4c0.2,0.2,0.3,0.3,0.4,0.2c0.1-0.1,0.2-0.2,0.1-0.3l-4.1-7.1
		c0.2-0.2,0.4-0.5,0.4-0.8c0-0.3-0.1-0.6-0.4-0.8l0.3-0.6c0.5-0.4,1.3-0.9,1.5-1.3c0.2-0.4,1.6-3.5,2.2-5c0.1-0.2,0.1-0.4-0.1-0.5
		c-0.1-0.1-0.3,0-0.3,0.1l-4.1,7.1c-0.1,0-0.2-0.1-0.3-0.1c-0.5,0-1,0.4-1.1,0.8h-0.7c-0.6-0.2-1.5-0.7-1.9-0.7
		c-0.5,0-3.8,0.4-5.4,0.6c-0.2,0-0.4,0.1-0.4,0.3C1226.3,688.2,1226.4,688.3,1226.6,688.3z"/>
</g>
<g class="st36">
	<path class="st29" d="M996.1,713l-25-17c-0.7-0.5-1.6,0-1.6,0.8v34c0,0.8,0.9,1.3,1.6,0.8l25-17C996.7,714.3,996.7,713.4,996.1,713
		z"/>
	<path class="st29" d="M1017.1,713l-25-17c-0.7-0.5-1.6,0-1.6,0.8v34c0,0.8,0.9,1.3,1.6,0.8l25-17
		C1017.7,714.3,1017.7,713.4,1017.1,713z"/>
	<path class="st29" d="M1038.1,713l-25-17c-0.7-0.5-1.6,0-1.6,0.8v34c0,0.8,0.9,1.3,1.6,0.8l25-17
		C1038.7,714.3,1038.7,713.4,1038.1,713z"/>
</g>
<g>
	<g>
		<polygon class="st10" points="1271.8,724.4 1257.7,724.4 1257.7,697.4 1264.7,688.4 1271.8,697.4 		"/>
		<rect x="1271.8" y="697.4" class="st37" width="17.8" height="27"/>
		
			<linearGradient id="SVGID_00000062909560096759859260000000177331178840634555_" gradientUnits="userSpaceOnUse" x1="1289.615" y1="692.8995" x2="1264.7374" y2="692.8995">
			<stop  offset="0" style="stop-color:#264F57"/>
			<stop  offset="1" style="stop-color:#35A3B1"/>
		</linearGradient>
		<polygon style="fill:url(#SVGID_00000062909560096759859260000000177331178840634555_);" points="1264.7,688.4 1282.5,688.4 
			1289.6,697.4 1271.8,697.4 		"/>
		<path class="st39" d="M1279.9,712.3h-2.6v-8.1c0-0.7,0.6-1.3,1.3-1.3l0,0c0.7,0,1.3,0.6,1.3,1.3V712.3z"/>
		<path class="st39" d="M1285.4,712.3h-2.6v-8.1c0-0.7,0.6-1.3,1.3-1.3l0,0c0.7,0,1.3,0.6,1.3,1.3V712.3z"/>
	</g>
	<g>
		<polygon class="st10" points="1304.2,724.9 1290,724.9 1290,686.3 1297.1,677.3 1304.2,686.3 		"/>
		<rect x="1304.2" y="686.3" class="st37" width="17.8" height="38.6"/>
		
			<linearGradient id="SVGID_00000151506112828076460760000000188695550023344560_" gradientUnits="userSpaceOnUse" x1="1321.9509" y1="681.8222" x2="1297.0734" y2="681.8222">
			<stop  offset="0" style="stop-color:#264F57"/>
			<stop  offset="1" style="stop-color:#35A3B1"/>
		</linearGradient>
		<polygon style="fill:url(#SVGID_00000151506112828076460760000000188695550023344560_);" points="1297.1,677.3 1314.9,677.3 
			1322,686.3 1304.2,686.3 		"/>
		<path class="st39" d="M1312.3,701.2h-2.6v-8.1c0-0.7,0.6-1.3,1.3-1.3l0,0c0.7,0,1.3,0.6,1.3,1.3V701.2z"/>
		<path class="st39" d="M1317.8,701.2h-2.6v-8.1c0-0.7,0.6-1.3,1.3-1.3l0,0c0.7,0,1.3,0.6,1.3,1.3V701.2z"/>
		<path class="st39" d="M1312.3,713.8h-2.6v-8.1c0-0.7,0.6-1.3,1.3-1.3l0,0c0.7,0,1.3,0.6,1.3,1.3V713.8z"/>
		<path class="st39" d="M1317.8,713.8h-2.6v-8.1c0-0.7,0.6-1.3,1.3-1.3l0,0c0.7,0,1.3,0.6,1.3,1.3V713.8z"/>
	</g>
</g>
<g>
	<g>
		<path class="st41" d="M868.7,671.6h-26.6c0-7.3,5.9-13.3,13.3-13.3C862.7,658.3,868.7,664.3,868.7,671.6z"/>
		<path class="st41" d="M886.3,671.6h-26.6c0-7.3,5.9-13.3,13.3-13.3C880.4,658.3,886.3,664.3,886.3,671.6z"/>
		<path class="st41" d="M904,671.6h-26.6c0-7.3,5.9-13.3,13.3-13.3C898,658.3,904,664.3,904,671.6z"/>
		<path class="st41" d="M921.6,671.6h-26.6c0-7.3,5.9-13.3,13.3-13.3C915.7,658.3,921.6,664.3,921.6,671.6z"/>
		<path class="st41" d="M939.3,671.6h-26.6c0-7.3,5.9-13.3,13.3-13.3C933.3,658.3,939.3,664.3,939.3,671.6z"/>
	</g>
	<g>
		<path class="st24" d="M868.7,689.6h-26.6c0-7.3,5.9-13.3,13.3-13.3C862.7,676.3,868.7,682.3,868.7,689.6z"/>
		<path class="st24" d="M886.3,689.6h-26.6c0-7.3,5.9-13.3,13.3-13.3C880.4,676.3,886.3,682.3,886.3,689.6z"/>
		<path class="st24" d="M904,689.6h-26.6c0-7.3,5.9-13.3,13.3-13.3C898,676.3,904,682.3,904,689.6z"/>
		<path class="st24" d="M921.6,689.6h-26.6c0-7.3,5.9-13.3,13.3-13.3C915.7,676.3,921.6,682.3,921.6,689.6z"/>
		<path class="st24" d="M939.3,689.6h-26.6c0-7.3,5.9-13.3,13.3-13.3C933.3,676.3,939.3,682.3,939.3,689.6z"/>
	</g>
	<g>
		<path class="st41" d="M868.7,710.4h-26.6c0-7.3,5.9-13.3,13.3-13.3C862.7,697.1,868.7,703.1,868.7,710.4z"/>
		<path class="st41" d="M886.3,710.4h-26.6c0-7.3,5.9-13.3,13.3-13.3C880.4,697.1,886.3,703.1,886.3,710.4z"/>
		<path class="st41" d="M904,710.4h-26.6c0-7.3,5.9-13.3,13.3-13.3C898,697.1,904,703.1,904,710.4z"/>
		<path class="st41" d="M921.6,710.4h-26.6c0-7.3,5.9-13.3,13.3-13.3C915.7,697.1,921.6,703.1,921.6,710.4z"/>
		<path class="st41" d="M939.3,710.4h-26.6c0-7.3,5.9-13.3,13.3-13.3C933.3,697.1,939.3,703.1,939.3,710.4z"/>
	</g>
	<g>
		<path class="st24" d="M868.7,728.4h-26.6c0-7.3,5.9-13.3,13.3-13.3C862.7,715.1,868.7,721,868.7,728.4z"/>
		<path class="st24" d="M886.3,728.4h-26.6c0-7.3,5.9-13.3,13.3-13.3C880.4,715.1,886.3,721,886.3,728.4z"/>
		<path class="st24" d="M904,728.4h-26.6c0-7.3,5.9-13.3,13.3-13.3C898,715.1,904,721,904,728.4z"/>
		<path class="st24" d="M921.6,728.4h-26.6c0-7.3,5.9-13.3,13.3-13.3C915.7,715.1,921.6,721,921.6,728.4z"/>
		<path class="st24" d="M939.3,728.4h-26.6c0-7.3,5.9-13.3,13.3-13.3C933.3,715.1,939.3,721,939.3,728.4z"/>
	</g>
</g>
<g>
	<rect x="1342.9" y="698.2" class="st41" width="6.5" height="8.7"/>
	<ellipse class="st26" cx="1346.1" cy="691.7" rx="8.6" ry="9.8"/>
	<ellipse class="st26" cx="1346.1" cy="684.5" rx="8.6" ry="9.8"/>
	<ellipse class="st26" cx="1346.1" cy="677.3" rx="8.6" ry="9.8"/>
</g>
<g>
	<rect x="1365.1" y="699.8" class="st41" width="5.3" height="7.1"/>
	<ellipse class="st26" cx="1367.8" cy="694.4" rx="7" ry="8"/>
	<ellipse class="st26" cx="1367.8" cy="688.6" rx="7" ry="8"/>
	<ellipse class="st26" cx="1367.8" cy="682.7" rx="7" ry="8"/>
</g>
<g>
	<g>
		<g>
			<path class="st26" d="M1060.4,545c-2.9-2.9-3.2-7.4-3.2-7.4s4.5,0.3,7.4,3.2c2.9,2.9,3.2,7.4,3.2,7.4S1063.4,547.9,1060.4,545z"
				/>
			<path class="st26" d="M1075.2,545c2.9-2.9,3.2-7.4,3.2-7.4s-4.5,0.3-7.4,3.2c-2.9,2.9-3.2,7.4-3.2,7.4S1072.3,547.9,1075.2,545z"
				/>
		</g>
		<g>
			<path class="st26" d="M1062.1,536.3c-2.3-2.3-2.5-5.8-2.5-5.8s3.5,0.2,5.8,2.5c2.3,2.3,2.5,5.8,2.5,5.8
				S1064.4,538.6,1062.1,536.3z"/>
			<path class="st26" d="M1073.6,536.3c2.3-2.3,2.5-5.8,2.5-5.8s-3.5,0.2-5.8,2.5c-2.3,2.3-2.5,5.8-2.5,5.8
				S1071.3,538.6,1073.6,536.3z"/>
		</g>
	</g>
	<path class="st10" d="M1087.7,618.2h-68.8c-1.3,0-2.4-1.1-2.4-2.4v-42.1c0-1.3,1.1-2.4,2.4-2.4h68.8c1.3,0,2.4,1.1,2.4,2.4v42.1
		C1090.1,617.2,1089,618.2,1087.7,618.2z"/>
	<g>
		<defs>
			<rect id="XMLID_00000026164200157135056290000009904846660303799428_" x="1063.8" y="549.4" width="9.7" height="23.9"/>
		</defs>
		<use xlink:href="#XMLID_00000026164200157135056290000009904846660303799428_"  style="overflow:visible;fill:#FFFFFF;"/>
		<clipPath id="XMLID_00000099661401048830958440000008677233734075050906_">
			<use xlink:href="#XMLID_00000026164200157135056290000009904846660303799428_"  style="overflow:visible;"/>
		</clipPath>
		
			<rect x="1059.1" y="561.9" style="clip-path:url(#XMLID_00000099661401048830958440000008677233734075050906_);fill:#005B7A;" width="17.6" height="6.3"/>
		
			<rect x="1059.1" y="552" style="clip-path:url(#XMLID_00000099661401048830958440000008677233734075050906_);fill:#005B7A;" width="17.6" height="6.3"/>
	</g>
	<g>
		<defs>
			<rect id="XMLID_00000072273779946886437880000008463744629695095995_" x="1080.4" y="549.4" width="9.7" height="23.9"/>
		</defs>
		<use xlink:href="#XMLID_00000072273779946886437880000008463744629695095995_"  style="overflow:visible;fill:#FFFFFF;"/>
		<clipPath id="XMLID_00000100353708944217560030000012417441398412070301_">
			<use xlink:href="#XMLID_00000072273779946886437880000008463744629695095995_"  style="overflow:visible;"/>
		</clipPath>
		
			<rect x="1075.6" y="561.9" style="clip-path:url(#XMLID_00000100353708944217560030000012417441398412070301_);fill:#005B7A;" width="17.6" height="6.3"/>
		
			<rect x="1075.6" y="552" style="clip-path:url(#XMLID_00000100353708944217560030000012417441398412070301_);fill:#005B7A;" width="17.6" height="6.3"/>
	</g>
	<rect x="1038" y="599.7" class="st41" width="30.5" height="18.6"/>
	<rect x="1023.2" y="582.9" class="st26" width="15.6" height="10.3"/>
	<rect x="1044.1" y="582.9" class="st26" width="15.6" height="10.3"/>
	<rect x="1065" y="582.9" class="st26" width="15.6" height="10.3"/>
</g>
<g>
	<polygon class="st41" points="1337,467.1 1337,456.3 1327.6,450.9 1318.2,456.3 1318.2,467.1 1327.6,472.5 	"/>
	<polygon class="st26" points="1346.1,483.2 1346.1,472.4 1336.7,467 1327.4,472.4 1327.4,483.2 1336.7,488.6 	"/>
	<polygon class="st44" points="1327.3,483.2 1327.3,472.4 1317.9,467 1308.5,472.4 1308.5,483.2 1317.9,488.6 	"/>
	<polygon class="st41" points="1337,499.6 1337,488.8 1327.6,483.4 1318.2,488.8 1318.2,499.6 1327.6,505 	"/>
	<polygon class="st26" points="1346.1,515.7 1346.1,504.9 1336.7,499.5 1327.4,504.9 1327.4,515.7 1336.7,521.1 	"/>
	<polygon class="st26" points="1317.9,499.6 1317.9,488.8 1308.5,483.4 1299.2,488.8 1299.2,499.6 1308.5,505 	"/>
	<polygon class="st26" points="1317.9,467.1 1317.9,456.3 1308.5,450.9 1299.2,456.3 1299.2,467.1 1308.5,472.5 	"/>
	<polygon class="st44" points="1327.3,515.7 1327.3,504.9 1317.9,499.5 1308.5,504.9 1308.5,515.7 1317.9,521.1 	"/>
</g>
<rect x="664.2" y="703.1" class="st24" width="171.8" height="46.7"/>
<g>
	<rect x="953.1" y="622.6" class="st26" width="14.2" height="14.4"/>
	<rect x="933.5" y="612.3" class="st26" width="14.2" height="24.6"/>
	<rect x="913.8" y="597.4" class="st26" width="14.2" height="39.6"/>
	<rect x="873.9" y="602.4" class="st26" width="14.2" height="34.6"/>
	<rect x="894.1" y="612.3" class="st26" width="14.2" height="24.6"/>
</g>
<g>
	<g>
		<g>
			<path class="st26" d="M1334.4,561.9c-1.3,0-2.7,0.2-3.8,1.8c-0.8,1.2-2.8,4.4-2.8,4.4c-0.4,0.7-0.2,1.6,0.5,2.1l4.9,2.9
				c0.7,0.4,1.7,0.2,2.1-0.5c0,0,2.8-4.5,3-4.9c0.3-0.4,0.6-0.5,0.8-0.2l-3.1-5.4C1335.3,561.9,1334.7,561.9,1334.4,561.9z"/>
		</g>
		<g>
			<path class="st26" d="M1349.6,564.5l-1.5,0.9c-0.6-0.9-1.1-1.9-1.3-2.2c-0.5-0.8-1.4-1.4-3.3-1.4c-1.4,0-7.3,0-7.3,0
				s4,6.9,4.5,7.9l-1.5,0.9c-0.9,0.5-0.9,1.2,0,1.4l8,2.3c0.9,0.2,1.7-0.3,1.9-1.1l1.8-8.1C1351.1,564.3,1350.5,564,1349.6,564.5z"
				/>
		</g>
	</g>
	<g>
		<g>
			<g>
				<path class="st26" d="M1331.9,590.9c0,0-5.4,0-6.3,0c-0.6,0-0.9-0.5-0.7-0.9c0,0-3.2,5.3-3.2,5.3c0.6,1.1,1.1,2,1.3,2.3
					c0.4,0.7,0.9,2.1,4.2,2c3.3,0,4.8,0,4.8,0c0.8,0,1.5-0.7,1.5-1.5l0-5.7C1333.4,591.5,1332.7,590.9,1331.9,590.9z"/>
			</g>
			<g>
				<path class="st26" d="M1327.9,578.9c-0.2-0.9-1.1-1.4-2-1.1l-7.9,2.5c-0.9,0.3-0.8,0.9,0.1,1.4l1.3,0.7
					c-0.7,1.3-1.5,2.8-1.7,3.2c-0.4,0.8-0.1,2.1,0.7,3.8c0.6,1.1,2.1,3.8,3.2,5.8c0,0,4.6-7.6,5.3-8.7l1.8,1
					c0.9,0.5,1.5,0.2,1.2-0.7L1327.9,578.9z"/>
			</g>
		</g>
		<g>
			<g>
				<path class="st26" d="M1353.3,591c-0.3,0-1.7,0-3,0l0-1.8c0-1-0.5-1.4-1.2-0.7l-6,5.7c-0.6,0.6-0.6,1.6,0,2.2l6.1,5.6
					c0.7,0.6,1.2,0.3,1.2-0.8l0-1.7c0.7,0,1.5,0,2.3,0c2.1,0,2.8-1.5,3.3-2.2c0.1-0.2,0.4-0.7,0.7-1.3l-2.9-5.7
					C1353.9,590.8,1353.8,591,1353.3,591z"/>
			</g>
			<g>
				<path class="st26" d="M1358.4,580.5c-0.4-0.7-1.3-1-2-0.6l-4.9,3c-0.7,0.4-1,1.4-0.6,2.1l5.8,11.1c0,0,2.7-5,3.4-6.4
					c0.9-1.9,1.2-3.5,0.8-4.3C1360.5,584.6,1358.4,580.5,1358.4,580.5z"/>
			</g>
		</g>
	</g>
</g>
<g>
	<rect x="731.5" y="690.5" class="st41" width="9.7" height="13"/>
	<ellipse class="st26" cx="736.3" cy="680.7" rx="12.8" ry="14.6"/>
	<ellipse class="st26" cx="736.3" cy="670" rx="12.8" ry="14.6"/>
	<ellipse class="st26" cx="736.3" cy="659.3" rx="12.8" ry="14.6"/>
</g>
<g>
	<rect x="1203.1" y="427.8" class="st41" width="8.1" height="10.8"/>
	<ellipse class="st26" cx="1207.1" cy="419.7" rx="10.7" ry="12.2"/>
	<ellipse class="st26" cx="1207.1" cy="410.7" rx="10.7" ry="12.2"/>
	<ellipse class="st26" cx="1207.1" cy="401.8" rx="10.7" ry="12.2"/>
</g>
<g>
	<rect x="1233.5" y="427.8" class="st41" width="8.1" height="10.8"/>
	<ellipse class="st26" cx="1237.6" cy="419.7" rx="10.7" ry="12.2"/>
	<ellipse class="st26" cx="1237.6" cy="410.7" rx="10.7" ry="12.2"/>
	<ellipse class="st26" cx="1237.6" cy="401.8" rx="10.7" ry="12.2"/>
</g>
<rect x="803.5" y="622.6" class="st45" width="48.3" height="28.6"/>
<rect x="1117.3" y="477.5" class="st45" width="61.5" height="36.4"/>
<rect x="1155.1" y="453.3" class="st46" width="35" height="35"/>
<polygon class="st47" points="1237.3,469.3 1220.7,498.1 1253.9,498.1 "/>
<circle class="st26" cx="1237.3" cy="468.1" r="8.3"/>
<circle class="st26" cx="1218.9" cy="497.2" r="8.3"/>
<circle class="st26" cx="1253.9" cy="497.2" r="8.3"/>
<g>
	<path class="st24" d="M1135.5,678.9c0,1.5-0.2,3-0.5,4.4c-1.3-0.3-2.7-0.4-4.1-0.4c-6.1,0-11.6,2.7-15.4,7
		c-3.7-3.6-8.7-5.8-14.3-5.8c-2,0-3.9,0.3-5.7,0.8c-0.6-1.9-0.9-3.9-0.9-6c0-11.3,9.1-20.4,20.4-20.4
		C1126.4,658.5,1135.5,667.6,1135.5,678.9z"/>
	<path class="st26" d="M1116.7,717.9c-3.7,4.3-9.2,7-15.4,7c-11.3,0-20.4-9.1-20.4-20.4c0-9.3,6.2-17.1,14.7-19.6
		c2.2,7.1,8.1,12.5,15.4,14c-0.3,1.4-0.5,2.9-0.5,4.4C1110.6,709,1112.9,714.2,1116.7,717.9z"/>
	<path class="st48" d="M1115.6,689.9c-2.2,2.5-3.8,5.6-4.5,9c-7.3-1.5-13.3-6.9-15.4-14c1.8-0.5,3.7-0.8,5.7-0.8
		C1106.9,684.1,1111.9,686.3,1115.6,689.9z"/>
	<path class="st49" d="M1135,683.3c-1.6,7.3-7.1,13.1-14.2,15.1c-1-3.3-2.8-6.2-5.2-8.6c3.7-4.3,9.2-7,15.4-7
		C1132.4,682.9,1133.7,683,1135,683.3z"/>
	<path class="st10" d="M1120.9,698.4c-1.8,0.5-3.7,0.8-5.7,0.8c-1.4,0-2.8-0.1-4.1-0.4c0.7-3.4,2.3-6.5,4.5-9
		C1118,692.2,1119.8,695.2,1120.9,698.4z"/>
	<path class="st50" d="M1121.8,704.5c0,5.1-1.9,9.8-5,13.4c-3.8-3.7-6.1-8.9-6.1-14.6c0-1.5,0.2-3,0.5-4.4c1.3,0.3,2.7,0.4,4.1,0.4
		c2,0,3.9-0.3,5.7-0.8C1121.4,700.4,1121.8,702.4,1121.8,704.5z"/>
	<path class="st29" d="M1151.4,703.3c0,11.3-9.1,20.4-20.4,20.4c-5.5,0-10.6-2.2-14.3-5.8c3.1-3.6,5-8.3,5-13.4c0-2.1-0.3-4.1-0.9-6
		c7.1-2.1,12.6-7.9,14.2-15.1C1144.4,685.2,1151.4,693.4,1151.4,703.3z"/>
</g>
<g>
	<path class="st35" d="M115.7,66.6l12.8-3.4c0.2,0.4,0.5,0.7,0.9,0.8l-0.9,48.7c0,0.7,0.5,1.3,1.2,1.3h0.7c0.7,0,1.2-0.6,1.2-1.3
		L130.7,64c0.1,0,0.2-0.1,0.3-0.1l0.8,0.8c0.4,0.9,0.9,2.5,1.4,3c0.5,0.5,4.8,4,6.9,5.5c0.3,0.2,0.6,0.3,0.8,0.1
		c0.2-0.2,0.2-0.4,0-0.6l-9.4-9.4c0.2-0.3,0.3-0.6,0.3-0.9c0-0.7-0.4-1.3-0.9-1.6l0.3-1.1c0.5-0.8,1.7-2,1.8-2.7
		c0.2-0.7,1-6.1,1.3-8.8c0-0.4-0.1-0.7-0.3-0.7c-0.2-0.1-0.4,0.1-0.5,0.3l-3.4,12.8c0,0,0,0-0.1,0c-1,0-1.8,0.8-1.8,1.8
		c0,0,0,0,0,0.1l-1.1,0.3c-1-0.1-2.6-0.4-3.3-0.2c-0.7,0.2-5.8,2.2-8.2,3.3c-0.4,0.2-0.5,0.4-0.5,0.6
		C115.3,66.6,115.5,66.7,115.7,66.6z"/>
	<path class="st35" d="M141.3,68.1h12c0.1,0.5,0.5,0.9,1,1.1l-0.8,43.5c0,0.7,0.5,1.3,1.2,1.3h0.4c0.7,0,1.2-0.6,1.2-1.3l-0.8-43.2
		l0.4,0.6c0.2,0.9,0.2,2.4,0.6,2.9c0.3,0.6,3.3,4.6,4.8,6.5c0.2,0.3,0.5,0.4,0.6,0.3c0.2-0.1,0.2-0.3,0.1-0.5l-6-10.4
		c0.3-0.3,0.5-0.7,0.5-1.2c0-0.5-0.2-0.9-0.5-1.2l0.5-0.9c0.7-0.6,1.9-1.4,2.3-1.9c0.3-0.6,2.4-5.1,3.2-7.4c0.1-0.3,0.1-0.6-0.1-0.7
		c-0.2-0.1-0.4,0-0.5,0.1l-6,10.4c-0.2,0-0.3-0.1-0.5-0.1c-0.8,0-1.4,0.5-1.6,1.3h-1c-0.9-0.3-2.2-1-2.8-1c-0.7,0-5.6,0.5-8,0.9
		c-0.4,0.1-0.6,0.2-0.6,0.4C141,67.9,141.1,68.1,141.3,68.1z"/>
	<path class="st35" d="M166.2,78.8h9.2c0.1,0.4,0.4,0.7,0.7,0.9l-0.6,33.3c0,0.5,0.4,1,0.9,1h0.3c0.5,0,1-0.4,0.9-1l-0.6-33.1
		l0.3,0.5c0.1,0.7,0.2,1.8,0.4,2.2c0.3,0.5,2.5,3.5,3.7,4.9c0.2,0.2,0.4,0.3,0.5,0.2c0.1-0.1,0.2-0.2,0.1-0.4l-4.6-8
		c0.2-0.2,0.4-0.5,0.4-0.9c0-0.4-0.2-0.7-0.4-0.9l0.4-0.7c0.5-0.5,1.5-1.1,1.7-1.5c0.3-0.5,1.8-3.9,2.4-5.7c0.1-0.3,0.1-0.5-0.1-0.5
		c-0.1-0.1-0.3,0-0.4,0.1l-4.6,8c-0.1,0-0.2-0.1-0.4-0.1c-0.6,0-1.1,0.4-1.2,1h-0.8c-0.7-0.2-1.7-0.8-2.2-0.8
		c-0.5,0-4.3,0.4-6.1,0.7c-0.3,0-0.4,0.2-0.4,0.3C165.9,78.7,166.1,78.8,166.2,78.8z"/>
</g>
<g>
	<rect x="1159.6" y="622.2" class="st22" width="1.8" height="16.7"/>
	<polygon class="st51" points="1150,625 1160.2,625 1160.2,610.7 	"/>
	<polygon class="st22" points="1160.3,610.6 1160.2,610.7 1160.2,625 1170.5,625 	"/>
	<polygon class="st22" points="1160.3,596.2 1160.2,596.3 1160.2,610.6 1170.5,610.6 	"/>
	<polygon class="st51" points="1150,610.6 1160.2,610.6 1160.2,596.3 	"/>
	<polygon class="st51" points="1150,596.2 1160.2,596.2 1160.2,581.9 	"/>
	<polygon class="st22" points="1160.3,581.8 1160.2,581.9 1160.2,596.2 1170.5,596.2 	"/>
</g>
</svg>
