<?xml version="1.0" encoding="utf-8"?>
<!-- Generator: Adobe Illustrator 27.0.1, SVG Export Plug-In . SVG Version: 6.00 Build 0)  -->
<svg version="1.1" id="Capa_1" xmlns="http://www.w3.org/2000/svg" xmlns:xlink="http://www.w3.org/1999/xlink" x="0px" y="0px"
	 width="85px" height="99.2px" viewBox="0 0 85 99.2" style="enable-background:new 0 0 85 99.2;" xml:space="preserve">
<style type="text/css">
	.st0{fill:#FFFFFF;}
</style>
<g>
	<g>
		<g>
			<path class="st0" d="M-49.2-124.6h-87.7c-3.4,0-6.2,2.8-6.2,6.2v68.3c0,3.4,2.8,6.2,6.2,6.2h29.7l-1.2,9.6h-5
				c-0.8,0-1.5,0.7-1.5,1.5s0.7,1.5,1.5,1.5h40.7c0.8,0,1.5-0.7,1.5-1.5s-0.7-1.5-1.5-1.5h-5l-1.2-9.6h29.7c3.4,0,6.2-2.8,6.2-6.2
				v-68.3C-43-121.8-45.8-124.6-49.2-124.6z M-105.4-34.4l1.2-9.6h5.4l0.5,2.1c0.6,2.4,2.8,4.1,5.3,4.1s4.7-1.7,5.3-4.1l0.5-2.1h5.4
				l1.2,9.6H-105.4z M-95.8-44h5.6l-0.4,1.4c-0.3,1.1-1.3,1.9-2.5,1.9s-2.2-0.8-2.5-1.9L-95.8-44z M-45.9-50.2L-45.9-50.2
				c0,1.8-1.4,3.2-3.2,3.2h-87.7c-1.8,0-3.2-1.5-3.2-3.2v-68.3c0-1.8,1.5-3.2,3.2-3.2h87.7c1.8,0,3.2,1.5,3.2,3.2L-45.9-50.2
				L-45.9-50.2z"/>
		</g>
	</g>
	<g>
		<g>
			<path class="st0" d="M-53.1-118.3h-82.1c-0.8,0-1.5,0.7-1.5,1.5v65.1c0,0.8,0.7,1.5,1.5,1.5h12.6c0.8,0,1.5-0.7,1.5-1.5
				s-0.7-1.5-1.5-1.5h-11.2v-62.2h80.7c0.8,0,1.5-0.7,1.5-1.5C-51.7-117.7-52.3-118.3-53.1-118.3z"/>
		</g>
	</g>
	<g>
		<g>
			<path class="st0" d="M-50.7-118.3h-3.1c-0.8,0-1.5,0.7-1.5,1.5s0.7,1.5,1.5,1.5h1.7v62.2h-73.7c-0.8,0-1.5,0.7-1.5,1.5
				s0.7,1.5,1.5,1.5h75.2c0.8,0,1.5-0.7,1.5-1.5v-65.3C-49.3-117.7-49.9-118.3-50.7-118.3z"/>
		</g>
	</g>
	<g>
		<g>
			<path class="st0" d="M-70.4-98.4c-0.3-0.4-0.7-0.6-1.1-0.6l-36.3-1.7h-0.1c-0.2-0.7-0.7-1.3-1.3-1.7l-4.4-3
				c-0.7-0.5-1.7-0.3-2.1,0.4c-0.5,0.7-0.3,1.7,0.4,2.1l4.4,3c0,0,0,0,0,0.1l5.7,19.8c0.2,0.6,0.5,1.2,0.8,1.7l-2.1,4.1
				c-0.5,1-0.4,2.2,0.1,3.1c0.2,0.3,0.5,0.6,0.8,0.9c-0.4,0.7-0.6,1.5-0.6,2.4c0,2.7,2.2,4.8,4.8,4.8s4.8-2.2,4.8-4.8
				c0-0.6-0.1-1.2-0.3-1.8h14.1c-0.2,0.5-0.3,1.1-0.3,1.8c0,2.7,2.2,4.8,4.8,4.8c2.7,0,4.8-2.2,4.8-4.8c0-0.8-0.2-1.5-0.5-2.2
				c0.3-0.3,0.5-0.7,0.5-1.1c0-0.9-0.7-1.5-1.5-1.5h-28.5c0,0-0.1,0-0.1-0.1v-0.1l1.9-3.8c0.4,0.1,0.8,0.2,1.2,0.2
				c0.2,0,0.4,0,0.6,0l21.7-2.6c2.8-0.3,5.1-2.4,5.6-5.2l2.6-13C-70-97.6-70.1-98.1-70.4-98.4z M-78.2-69.6c1,0,1.8,0.8,1.8,1.8
				s-0.8,1.8-1.8,1.8s-1.8-0.8-1.8-1.8C-79.9-68.8-79.1-69.6-78.2-69.6z M-101.3-69.6c1,0,1.8,0.8,1.8,1.8s-0.8,1.8-1.8,1.8
				s-1.8-0.8-1.8-1.8C-103-68.8-102.2-69.6-101.3-69.6z M-105-90.8l-1.9-6.8l6.2,0.3l1.1,6.5H-105z M-100.3-79.6
				c-0.9,0.1-1.7-0.4-1.9-1.3l-2-6.9h4.9l1.3,7.9L-100.3-79.6z M-91.3-80.6l-3.6,0.4l-1.2-7.5h4.8L-91.3-80.6L-91.3-80.6z
				 M-91.3-90.8h-5.4l-1-6.3l6.4,0.3V-90.8L-91.3-90.8z M-83.4-81.5l-4.7,0.6v-6.7h5.3L-83.4-81.5z M-82.6-90.8h-5.6v-5.9l6.1,0.3
				L-82.6-90.8z M-75.7-84.8c-0.3,1.4-1.5,2.5-2.9,2.7l-1.7,0.2l0.5-5.8h4.7L-75.7-84.8z M-74.5-90.8h-5l0.5-5.5l5.6,0.3L-74.5-90.8
				z"/>
		</g>
	</g>
</g>
<g id="Lgxj8l_00000060012113747674792270000009123363534765787069_">
	<g>
		<path class="st0" d="M459-15.1c1.2,0.3,2.4,0.5,3.5,1c3.3,1.5,5.7,3.8,6.4,7.5c0.1,0.4,0.3,0.6,0.7,0.8c6.2,3.6,9.1,9.1,9.3,16.1
			c0.1,2.3,0,4.6,0,6.9c0,3.2-1.4,5.5-4.5,6.7c-0.4,0.1-0.5,0.4-0.6,0.8c-0.8,5.8-3.9,10-9.1,12.7c-0.8,0.4-1,2.2-0.3,2.8
			c1.6,1.2,3.2,2.4,4.8,3.6c0.3,0.2,0.7,0.3,1,0.3c2.4,0.2,4.6,1,6.7,2.2c0.5,0.3,0.7,0.3,1-0.3c1.2-2.4,3.2-3.6,6-3.7
			c1.4,0,2.8,0,4.1,0c0.6,0,0.8-0.2,0.9-0.8c1.3-6.4,5.1-10.4,11.4-12c8-1.9,16.3,3.6,17.7,11.8c0.1,0.8,0.4,1,1.2,1
			c1.3-0.1,2.7,0,4,0c3.2,0.1,5.5,1.9,6.4,5c0,0.1,0.1,0.3,0.2,0.4c0,2.2,0,4.5,0,6.7c-0.5,1.8-1.1,3.4-2.6,4.5
			c-0.5,0.4-0.6,0.8-0.6,1.4c0,5.9,0,11.7,0,17.6c0,3.3-2,5.3-5.3,5.3c-11.8,0-23.5,0-35.3,0c-3.4,0-5.4-2-5.4-5.4
			c0-1.2,0-2.4,0-3.7c-1.5,0.9-3,0.9-4.4,0.9c-11.6,0-23.3,0-34.9,0c-1.2,0-2.4,0-3.7,0c-2.7-0.1-5-1.8-5.9-4.4
			c-0.1-0.3-0.1-0.7-0.3-1c0-4.6,0-9.2,0-13.8c0.2-0.8,0.4-1.6,0.7-2.4c1.9-5.1,5.8-7.9,10.9-9c2.2-0.5,4-1.3,5.7-2.7
			c0.6-0.5,1.3-1,1.9-1.4c1-0.7,0.8-2.5-0.3-3.1c-5-2.7-8-6.8-8.9-12.5c-0.1-0.4-0.2-0.7-0.6-0.8c-3.1-1.3-4.5-3.3-4.5-6.7
			c0-2.5-0.1-5,0-7.5c0.3-6.8,3.2-12.1,9.2-15.6c0.4-0.2,0.6-0.5,0.7-0.9c0.6-3.3,2.7-5.5,5.6-7c1.4-0.7,2.8-1,4.3-1.3
			C457.1-15.1,458-15.1,459-15.1z M471.1,47.4c0.2,1.2,0.5,2.3,0.6,3.3c0.3,2.5-1.6,4.6-4.1,4.6c-0.7,0-1,0.2-1.3,0.8
			c-1.9,3.5-3.8,6.9-5.7,10.3c-0.7,1.2-1.6,1.9-3,2c-1.4,0-2.4-0.7-3-2c-1.9-3.4-3.8-6.9-5.7-10.3c-0.3-0.6-0.6-0.8-1.3-0.8
			c-2.6,0-4.4-2-4.1-4.6c0.1-0.9,0.2-1.7,0.5-2.5c0.3-0.9-0.2-0.8-0.7-0.6c-2.1,0.6-3.9,1.6-5.5,3c-2,1.8-3,4-3,6.6
			c0,3.7,0,7.4,0,11c0,2.1,1.3,3.5,3.5,3.5c13,0,26,0,39,0c2.2,0,3.5-1.3,3.5-3.5c0-2.7,0-5.3,0-8c0-0.5-0.1-0.9-0.6-1.2
			c-1.4-1.1-2.2-2.5-2.6-4.3c-0.2-1.2-0.1-2.4-0.1-3.6c0-0.3,0-0.7-0.3-1C475.3,48.8,473.4,47.9,471.1,47.4z M475.6,15.9L475.6,15.9
			c0-0.8,0-1.6,0-2.4c0-0.4-0.3-0.7-0.7-0.7c-0.5,0-0.8,0.3-0.8,0.7c0,0.3,0,0.6,0,1c-0.1,0.8-0.5,1.3-1.3,1.5
			c-0.8,0.2-1.4-0.1-1.8-0.9c-0.1-0.3-0.2-0.5-0.4-0.8c-2-4.3-5.3-6.8-9.9-7.8c-1.5-0.3-2.9-0.3-4.1,0.8c-0.6,0.6-1.4,1-2.1,1.5
			c-3.4,2.3-6.8,4.5-10.2,6.8c-0.7,0.5-1.3,0.8-2.1,0.4c-0.7-0.4-0.9-1.1-0.9-1.9c0-0.1,0-0.1,0-0.2c0-0.6-0.2-1-0.8-1
			c-0.6,0-0.8,0.4-0.8,1c0,1.2,0,2.3,0,3.5c0,2.3,1,3.4,3.3,3.8c1,0.1,1.5,0.6,1.6,1.6c0.1,0.8,0.1,1.6,0.2,2.4
			c1.3,6.6,7.2,11.2,13.7,10.7c6.8-0.5,12-5.7,12.3-12.6c0.1-1.6,0.3-1.9,1.9-2.2c1.8-0.3,2.9-1.5,3-3.3
			C475.6,17.1,475.6,16.5,475.6,15.9z M480.6,51.1c0,0.7,0,1.5,0,2.2c0,1.7,0.8,3,2.4,3.8c4,1.8,7.9,3.6,11.9,5.4
			c0.5,0.2,0.6,0.1,0.8-0.4c0.8-2.2,2.5-3.4,4.9-3.4c2,0,4,0,6,0c2.5,0,4.2,1.1,5,3.5c0.2,0.5,0.4,0.5,0.7,0.3
			c4-1.8,7.9-3.6,11.9-5.4c1.6-0.7,2.4-2.1,2.4-3.8c0-1.2,0-2.5,0-3.7c0-2.7-1.2-3.9-3.9-3.9c-8.2,0-16.4,0-24.6,0
			c-4.7,0-9.4,0-14.1,0c-2,0-3.3,1.4-3.4,3.4C480.5,49.7,480.6,50.4,480.6,51.1z M484,61.1c-0.1,0.2-0.1,0.2-0.1,0.3
			c0,5.6,0,11.2,0,16.8c0,1.2,0.7,1.8,1.9,1.8c11.9,0,23.7,0,35.6,0c1.3,0,1.9-0.6,1.9-1.9c0-5.4,0-10.8,0-16.2
			c0-0.7-0.2-0.7-0.7-0.5c-3.4,1.6-6.8,3.1-10.2,4.6c-0.4,0.2-0.5,0.4-0.6,0.9c-0.2,3-2.1,4.9-5.2,4.9c-2,0-4,0-6,0
			c-3.1,0-5-1.8-5.2-4.9c0-0.3-0.1-0.6-0.4-0.8C491.3,64.5,487.7,62.8,484,61.1z M457.4-5.3c-2.2,0-4.6,0.3-7,0.9
			c-7.5,2.2-10.3,7.9-10.9,13c-0.1,0.6,0,0.9,0.8,0.9c1.3-0.1,2.4,0.5,3.2,1.5c0.4,0.6,0.7,0.5,1.2,0.2c3.3-2.2,6.7-4.4,10-6.7
			c2.1-1.5,4.2-1.7,6.6-1.3c4.3,0.9,7.8,3.1,10.4,6.6c0.3,0.5,0.5,0.6,1,0.2c0.6-0.4,1.3-0.7,2-0.6c0.9,0.1,0.9-0.3,0.8-1
			c-0.6-4.9-2.9-8.8-7.2-11.3C465-4.7,461.3-5.2,457.4-5.3z M503.5,32.5c-4.8,0-9.2,3.1-10.8,7.7c-0.8,2.2-0.8,2.2,1.6,2.2
			c0.1,0,0.1,0,0.2,0c0.8,0.2,1.1-0.2,1.3-1c1-3.3,3.9-5.4,7.4-5.6c3.3-0.2,6.6,1.6,7.7,4.8c0.6,1.7,1.6,1.9,3.1,1.8
			c0.8-0.1,0.9-0.3,0.8-1C513.6,36.2,508.9,32.4,503.5,32.5z M459.2,61.9c0.1,0,0.1,0,0.2,0.1c0.2-0.3,0.3-0.5,0.5-0.8
			c1.2-2.3,2.5-4.5,3.7-6.8c0.8-1.5,1.9-2.3,3.7-2.2c1.1,0,1.4-0.4,1.2-1.4c-0.2-1.3-0.5-2.5-0.7-3.8c0-0.2-0.1-0.4-0.3-0.6
			c-1.3-1-2.6-2-4-3c-1.4,4.2-2.7,8.2-4.1,12.2c0,0.1-0.1,0.3-0.1,0.5C459.2,58,459.2,60,459.2,61.9z M455.7,61.8
			c0.1-3,0.5-6-0.7-8.9c-1.3-3.1-2.2-6.3-3.3-9.6c-1.4,1.1-2.7,2-4.1,3c-0.2,0.1-0.2,0.4-0.3,0.6c-0.2,1.3-0.5,2.5-0.7,3.8
			c-0.2,1.1,0.1,1.5,1.2,1.4c1.7-0.1,2.8,0.7,3.6,2.2C452.9,56.8,454.3,59.3,455.7,61.8z M503.5,68.5c1.1,0,2.2,0,3.3,0
			s1.7-0.6,1.7-1.7c0-1.1,0-2.1,0-3.2c0-1-0.7-1.7-1.7-1.7c-2.1,0-4.3,0-6.4,0c-1,0-1.7,0.6-1.7,1.7c0,1.1,0,2.1,0,3.2
			s0.6,1.7,1.7,1.7C501.4,68.5,502.5,68.5,503.5,68.5z M457.5,50.1c0.1-0.2,0.2-0.3,0.2-0.5c1-3,2-5.9,3-8.9
			c0.2-0.5,0.1-0.9,0.1-1.4s-0.1-0.6-0.7-0.6c-1.5,0.3-3.1,0.3-4.6,0.1c-1.4-0.1-1.5,0-1.3,1.4c0,0.1,0,0.1,0,0.2
			C455.4,43.6,456.4,46.8,457.5,50.1z M465.1-7.6c-1.5-3-4.9-4.6-8.7-4.2c-2.7,0.3-5.7,2.2-6.2,4.1C455.1-8.9,460.1-8.9,465.1-7.6z
			 M503.5,42.3c1.3,0,2.6,0,3.9,0c0.6,0,0.7-0.2,0.4-0.7c-1-1.7-2.4-2.6-4.3-2.6c-1.9,0-3.4,0.9-4.3,2.6c-0.3,0.5-0.3,0.7,0.4,0.7
			C500.9,42.3,502.2,42.3,503.5,42.3z"/>
		<path class="st0" d="M457.5,32.4c-1.8,0-3.3-0.7-4.4-2.1c-0.7-0.8-0.6-1.8,0.1-2.4s1.6-0.5,2.3,0.2c1.5,1.4,2.6,1.4,4.1,0
			c0.7-0.7,1.7-0.7,2.3-0.2c0.7,0.6,0.7,1.6,0.1,2.4C460.8,31.7,459.3,32.4,457.5,32.4z"/>
	</g>
</g>
<g id="_x34_vMRZb_00000039107813478007409020000001538685548367076505_">
	
		<image style="overflow:visible;enable-background:new    ;" width="2243" height="788" id="_x34_vMRZb_00000051358350943365657310000002538365164619644598_" xlink:href="7EED83AAA20C1399.png"  transform="matrix(0.4998 0 0 0.4998 -1634.059 -49.4494)">
	</image>
</g>
<g id="Rid0db_00000085250729938649335650000009862021941856572289_">
	
		<image style="overflow:visible;enable-background:new    ;" width="706" height="719" id="Rid0db_00000103943825444783162610000002010025174839006391_" xlink:href="7EED83AAA20C139B.png"  transform="matrix(0.4993 0 0 0.4993 -1190.7321 -35.8615)">
	</image>
</g>
<g id="_x30_AY2EL_00000147220891550859000190000017768722214567979420_">
	
		<image style="overflow:visible;enable-background:new    ;" width="2170" height="776" id="_x30_AY2EL_00000136411506962016296270000007132599710910546819_" xlink:href="7EED83AAA20C139E.png"  transform="matrix(0.5 0 0 0.5 -1272.6549 -453.4012)">
	</image>
</g>
<g id="Rid0db_00000150816191624296016320000015597514347538331546_">
	
		<image style="overflow:visible;enable-background:new    ;" width="706" height="719" id="Rid0db_00000136398861443458459500000015008932001179697548_" xlink:href="7EED83AAA20C139F.png"  transform="matrix(0.4993 0 0 0.4993 -1635.6719 -446.8822)">
	</image>
</g>
<g id="_x31_kfMnH_00000022533040128607521020000009746301584997291692_">
	<g>
		<path class="st0" d="M84.8,98.4c-0.3,0.8-1,1.1-1.9,1.1c-27,0-54.2,0-81.2,0c-1.4,0-1.8-0.5-1.8-2c0-3.8,0-24.8,0-28.6
			c0-7.3,5.5-13.2,12.2-13.3c1.6,0,3.4,0,5,0c0.5,0,0.8-0.2,0.9-0.8c0.3-1.6,0.6-3.2,1-4.7c0.1-0.5,0-0.8-0.3-1
			c-1.8-1.7-2.8-3.9-3.3-6.3c-0.3-2-0.8-3.9-1.2-6c-0.1-0.5-0.3-0.9-0.5-1.4c-1.9-4.1-3.1-8.5-3.4-13.1C9.8,11.6,17.6,3,27.8,3.7
			c3.6,0.2,7.1,0.8,10.3,2.5c1.8,1,3.5,2.3,4.7,4c0.2,0.2,0.3,0.4,0.6,0.5c2.4,0.6,3.6,2.4,4.2,4.8c0.6,2.7,0.3,5.5-0.1,8.2
			c-0.5,3.4-1.2,6.7-2.6,9.8s-2,6.4-2.7,9.7c-0.5,2.4-1.5,4.4-3.2,6c-0.3,0.3-0.4,0.7-0.3,1.1c0.3,1.6,0.7,3.2,1,4.8
			c0.1,0.6,0.3,0.7,0.8,0.7c2.3,0,4.6-0.2,6.8,0.1c1.2,0.2,1.2,0.2,1.2-1.2c0-2.5,0-5.1,0-7.6c0-1.5,0.4-2,1.8-2
			c10.8,0,21.7,0,32.5,0c0.9,0,1.5,0.3,1.9,1.1C84.8,57.8,84.8,86.8,84.8,98.4z M69.9,91c3.7,0,7.5,0,11.3,0c0.6,0,0.8-0.2,0.8-0.8
			c0-8,0-33.2,0-41.2c0-0.7-0.1-0.8-0.8-0.8c-2.8,0-5.5,0-8.2,0c-0.6,0-0.8,0.2-0.8,0.8c0,3.5,0,7,0,10.4c0,0.8-0.2,1.4-0.9,1.8
			c-0.7,0.3-1.3,0.1-1.8-0.5c-0.8-0.8-1.6-1.6-2.3-2.5c-0.4-0.5-0.6-0.4-1,0c-0.7,0.8-1.5,1.5-2.2,2.4c-0.5,0.6-1.1,1-1.9,0.7
			c-0.8-0.4-0.9-1.1-0.9-2c0-3.4,0-6.9,0-10.2c0-0.7-0.1-0.8-0.8-0.8c-2.8,0-5.5,0-8.3,0c-0.5,0-0.7,0.2-0.7,0.8c0,2.5,0,5.1,0,7.6
			c0,0.6,0.2,0.9,0.6,1.2c2.9,2,4.7,4.7,5.5,8.3c0.3,1.2,0.3,19.8,0.3,21c0,1.3-0.2,2.6,0.1,3.9c1.2,0.2,2.4,0.1,3.6,0.1
			C64.3,91,67.1,91,69.9,91z M28.8,49.8c1,0,1.8-0.1,2.7-0.3c4.6-0.8,6.9-3.3,8-8.2c0.7-3.3,1.6-6.6,1.1-10
			c-0.3-2.6-0.6-5.2-1.7-7.5c-1.3-2.5-3.2-3.2-5.5-1.9c-3.5,2-7.1,3.2-11,3.5c-4.1,0.3-6.4,3.4-5.9,7.7c0.4,3.2,1.2,6.4,1.8,9.6
			c0.4,2.2,1.6,3.8,3.3,4.9C23.9,49.3,26.3,49.8,28.8,49.8z M14.2,28.3c0.3-0.5,0.3-0.8,0.4-0.9c1.6-2.9,3.9-4.6,6.8-4.9
			c3.9-0.3,7.5-1.4,10.8-3.4c2.9-1.7,6.2-0.9,8.2,1.9c0.6,0.8,1,1.7,1.4,2.6c0.6,1.6,1,3.2,1.2,4.9c0.2,0,0.3-0.1,0.3-0.3
			c0.7-2.6,1.3-5.3,1.5-8c0.1-1.6,0.1-3.2-0.4-4.8c-0.3-1-1-1.8-2.2-1.7c-0.6,0-1-0.3-1.3-0.8c-1.2-2.2-3-3.5-5.1-4.4
			c-3.4-1.5-6.9-2-10.6-1.7c-5.6,0.4-10.1,4.4-11.6,10.3C12.9,20.9,13.2,24.5,14.2,28.3z M15.9,58.9c-1.5,0-2.8-0.1-4.1,0
			c-5.2,0.3-8.8,4.1-9,9.8c-0.2,3.3,0,23.9-0.1,27.2c0,0.5,0.2,0.6,0.6,0.6c1.3,0,2.5,0,3.8,0c0.6,0,0.9-0.2,0.9-0.8
			c-0.1-2.4,0-4.8,0-7.2c0-0.4,0-0.8,0.2-1c0.3-0.7,0.9-1,1.6-0.8s1.1,0.8,1.1,1.5c0,2.5,0,5.1,0,7.5c0,0.8,0.2,0.9,0.9,0.9
			c4.3,0,8.7,0,13,0c0.2,0,0.4,0.1,0.6-0.1c-0.1-0.4-0.3-0.6-0.5-0.8c-3.7-4.3-7.5-26-11.3-30.3c-1.1-1.3-1.1-1.8-0.1-3.1
			C14.2,61.2,15,60.2,15.9,58.9z M41.7,58.8c1,1.2,1.8,2.4,2.6,3.4c1,1.2,1,1.8-0.1,2.9c-3.8,4.4-7.7,26.2-11.5,30.6
			c-0.2,0.2-0.4,0.3-0.3,0.7c4.2,0,8.3,0,12.5,0c2,0,2,0,2-2.2c0-2.1,0-4.1,0-6.2c0-0.9,0.5-1.6,1.3-1.7c0.7,0,1.2,0.3,1.5,1
			c0.1,0.4,0.1,0.8,0.1,1c0,2.4,0,4.7,0,7.1c0,0.6,0.1,0.8,0.7,0.8c1.3,0,2.6,0,3.9,0c0.5,0,0.7-0.1,0.7-0.7c0-3.2,0-23.7,0-26.9
			c-0.1-4.1-2.4-7.8-6-9.3C46.7,58.6,44.3,58.9,41.7,58.8z M36,51.5c-0.1,0-0.2,0-0.3,0c-4.5,2-9.1,2.1-13.6,0.1
			c-0.3-0.2-0.5,0-0.5,0.4c-0.3,1.3-0.5,2.7-0.8,4c-0.1,0.5,0.1,0.7,0.4,0.8c2.4,1.2,4.8,2.4,7.2,3.7c0.3,0.2,0.5,0.2,0.9,0
			c2.4-1.3,4.9-2.5,7.3-3.8c0.3-0.2,0.4-0.3,0.3-0.7C36.6,54.5,36.3,53,36,51.5z M22,60.6c2.3,5.5,4.6,28.2,6.8,33.7
			c2.3-5.5,4.5-28,6.8-33.4c-2,0.8-3.8,1.7-5.6,2.7c-0.8,0.4-1.5,0.4-2.2,0C25.9,62.6,24.1,61.7,22,60.6z M69.9,96.5
			c2.3,0,4.4,0,6.7,0c1.5,0,2.9,0,4.3,0c1.2,0,1,0.2,1.1-1.2c0.1-0.8-0.2-1.1-1-1.1c-6.3,0-12.6,0-19,0c-1.1,0-2.3,0-3.5,0
			c-0.5,0-0.7,0.2-0.6,0.7c0,0.3,0,0.5,0,0.8c-0.1,0.8,0.2,0.9,0.9,0.9C62.4,96.5,66.2,96.5,69.9,96.5z M69.3,56.1
			c0-2.6,0-5.1,0-7.5c0-0.5-0.3-0.5-0.5-0.5c-1.4,0-2.8,0-4.2,0c-0.3,0-0.5,0-0.5,0.4c0,2.4,0,4.9,0,7.5c0.6-0.7,1-1.1,1.6-1.6
			c0.7-0.7,1.4-0.7,2.1,0C68.2,55,68.7,55.5,69.3,56.1z M23.6,89.8L23.6,89.8c-1.6-4.1-3.3-25.4-5-29.5c-0.9,1.1-1.6,2.1-2.3,3.1
			c-0.3,0.3-0.2,0.5,0,0.8C18.8,66.8,21.2,87,23.6,89.8z M34,89.5c0.1,0,0.1,0.1,0.2,0.1C36.4,87,38.8,67,41,64.4
			c0.1-0.1,0.2-0.3,0.3-0.4c0.3-0.3,0.2-0.5,0-0.8c-0.6-0.8-1.1-1.5-1.7-2.3c-0.6-0.8-0.6-0.8-1,0.1c-1.3,3.2-2.7,23.6-4,26.8
			C34.5,88.5,34.2,88.9,34,89.5z"/>
		<path class="st0" d="M66.7,35.7c-0.7,0-1.4,0-2.1,0c-1.2,0-1.6-0.5-1.9-1.7c-0.2-1-0.3-2.1-0.5-3.1c-0.1-0.6-0.3-0.8-0.8-1.1
			c-0.5-0.3-1.1-0.6-1.6-0.9c-0.6-0.6-1.1-0.6-1.8-0.2c-0.9,0.4-1.7,0.7-2.6,1c-0.9,0.3-1.5,0.1-2-0.8c-0.8-1.4-1.6-2.9-2.3-4.3
			c-0.4-0.8-0.3-1.5,0.3-2.2c0.8-0.8,1.6-1.5,2.4-2.3c0.3-0.3,0.4-0.6,0.4-1c-0.1-0.7-0.2-1.3,0-2c0.2-1-0.2-1.5-0.9-2.1
			c-0.7-0.6-1.3-1.2-1.9-1.8c-0.7-0.7-0.8-1.3-0.3-2.3c0.7-1.4,1.5-2.8,2.3-4.2c0.5-0.9,1-1.2,2-0.8c1,0.4,2.1,0.8,3,1.1
			c0.3,0.2,0.7,0.1,1-0.2c0.6-0.6,1.3-0.9,2-1.2c0.5-0.2,0.7-0.6,0.7-1c0.3-1.3,0.5-2.4,0.7-3.4c0.2-1.1,0.7-1.5,1.7-1.5
			c1.5,0,2.9,0,4.5,0c1,0,1.4,0.4,1.6,1.4c0.1,1,0.3,2.2,0.5,3.3c0.1,0.6,0.3,0.8,0.8,1c0.5,0.2,1,0.5,1.4,0.8
			c0.8,0.8,1.6,0.8,2.4,0.3c0.6-0.4,1.4-0.7,2.2-0.9c0.9-0.3,1.5-0.1,2,0.8c0.8,1.4,1.5,2.8,2.3,4.2c0.5,1,0.4,1.6-0.4,2.4
			c-0.8,0.8-1.6,1.5-2.3,2.2c-0.3,0.3-0.5,0.6-0.4,1c0.1,0.4,0.2,0.8,0.1,1.2c-0.3,1.6,0.3,2.6,1.5,3.4c0.5,0.4,1,0.8,1.4,1.3
			c0.6,0.6,0.8,1.3,0.3,2.1c-0.8,1.5-1.6,3-2.3,4.4c-0.4,0.8-1,1-1.9,0.8c-1-0.4-1.9-0.7-2.9-1.1c-0.5-0.2-0.9-0.2-1.3,0.2
			c-0.4,0.4-0.9,0.8-1.4,0.9c-1,0.3-1.2,1-1.3,2c-0.1,0.8-0.3,1.7-0.4,2.5c-0.3,1.1-0.7,1.5-1.7,1.5C68.2,35.7,67.5,35.7,66.7,35.7z
			 M79.2,11.5c-0.5-0.8-0.9-1.6-1.3-2.3c-0.1-0.2-0.3,0-0.5,0.1c-0.9,0.3-1.8,0.7-2.7,1c-0.7,0.3-1.3,0.2-1.8-0.4
			c-0.6-0.6-1.2-1.1-2-1.4c-2.7-0.9-2.2-1.3-2.7-3.8c-0.4-2-0.3-1.9-2.2-1.9c-0.4,0-0.7,0.1-0.8,0.7c-0.2,1-0.3,2-0.5,3
			c-0.1,0.8-0.5,1.2-1.1,1.5c-1,0.4-1.9,0.8-2.6,1.5c-1,1.1-2.1,1.1-3.2,0.5c-0.2-0.1-0.4-0.2-0.6-0.3c-1.7-0.7-1.7-0.7-2.6,1
			c-0.3,0.5-0.3,0.8,0.2,1.1c0.8,0.7,1.4,1.3,2.2,2c0.5,0.5,0.7,1,0.5,1.8c-0.2,1-0.3,2.2-0.1,3.1c0.3,1.6-0.2,2.6-1.3,3.5
			c-0.2,0.1-0.3,0.2-0.3,0.4c-1.5,1.4-1.5,1.3-0.4,3.2c0.3,0.4,0.4,0.5,0.8,0.3c0.9-0.4,1.8-0.7,2.7-1c0.7-0.3,1.3-0.2,1.8,0.4
			c0.7,0.7,1.4,1.3,2.3,1.6c1.6,0.5,2.2,1.6,2.3,3.2c0,0.1,0,0.3,0.1,0.4c0.3,2,0.3,2,2.3,2c0.4,0,0.7-0.1,0.8-0.7
			c0.1-0.9,0.3-1.9,0.5-2.8c0.1-0.8,0.5-1.3,1.2-1.6c1-0.4,1.9-0.8,2.6-1.5c1-1,1.9-1.1,3-0.6c0.2,0.1,0.4,0.2,0.6,0.3
			c1.9,0.8,1.9,0.8,2.9-1.2c0.2-0.4,0.1-0.6-0.2-0.8c-0.7-0.7-1.4-1.3-2.2-2c-0.5-0.5-0.8-1-0.7-1.8c0.3-1.4,0.3-2.8,0-4.2
			c-0.1-0.8,0.1-1.3,0.6-1.8c0.7-0.7,1.4-1.3,2.2-2C78.9,11.6,79.1,11.6,79.2,11.5z"/>
		<path class="st0" d="M73,17.8c0,3.8-2.9,6.9-6.3,6.9c-3.5,0-6.4-3.2-6.3-7c0-3.8,2.9-6.9,6.3-6.9C70.2,10.8,73,13.9,73,17.8z
			 M66.7,13.9c-1.9,0-3.5,1.7-3.4,3.8c0,2.1,1.6,3.8,3.5,3.8s3.5-1.8,3.5-3.9C70.2,15.6,68.6,13.9,66.7,13.9z"/>
	</g>
</g>
</svg>
