<?xml version="1.0" encoding="utf-8"?>
<!-- Generator: Adobe Illustrator 27.0.1, SVG Export Plug-In . SVG Version: 6.00 Build 0)  -->
<svg version="1.1" id="Capa_1" xmlns="http://www.w3.org/2000/svg" xmlns:xlink="http://www.w3.org/1999/xlink" x="0px" y="0px"
	 width="85px" height="99.2px" viewBox="0 0 85 99.2" style="enable-background:new 0 0 85 99.2;" xml:space="preserve">
<style type="text/css">
	.st0{fill:#FFFFFF;}
</style>
<g>
	<path class="st0" d="M-37.6-111.2h-15.6c-1.9,0-1.9,2.9,0,2.9h15.6c4.5,0,8.1,3.6,8.1,8v34c0,4.4-3.6,8-8.1,8h-4.9
		c-0.3,0-0.6,0.1-0.9,0.3l-9,6.9v-5.7c0-0.8-0.7-1.5-1.5-1.5h-17.9c-1.5,0-2.9-0.4-4.1-1.1v-16.5c0-3.1-1.6-5.8-4-7.4v-17
		c0-4.4,3.6-8,8.1-8h20.6c1.9,0,1.9-2.9,0-2.9h-20.6c-6.1,0-11,4.9-11,11v15.7c-0.7-0.2-1.4-0.2-2.1-0.2h-26.9c-5,0-9,4-9,9v14.2
		c0,1.9,2.9,1.9,2.9,0v-14.2c0-3.3,2.7-6,6.1-6h26.9c3.3,0,6.1,2.7,6.1,6v17.1c0,0.1,0,0.3,0,0.4v9.3c0,0.2,0,0.4,0,0.6h-3
		c-3.3,0-6.1,2.4-6.7,5.6c-0.1,0.1-0.3,0.1-0.4,0.2l-6.6,5.1v-3.9c0-0.8-0.7-1.5-1.5-1.5h-14.8c-3.3,0-6.1-2.7-6.1-6v-14.8
		c0-1.9-2.9-1.9-2.9,0v14.8c0,4.9,4,9,9,9h13.3v5.4c0,1.2,1.4,1.9,2.4,1.2l7.4-5.7v16.5c0,3.7,3.1,6.8,6.8,6.8h9v3.4
		c0,1.2,1.4,1.9,2.4,1.2l5.9-4.6h1.8c3.8,0,6.8-3,6.8-6.8v-13.8c0-1.9-2.9-1.9-2.9,0v13.8c0,2.1-1.7,3.9-3.9,3.9h-2.3
		c-0.3,0-0.6,0.1-0.9,0.3l-4,3.1V-17c0-0.8-0.7-1.5-1.5-1.5H-82c-2.1,0-3.9-1.7-3.9-3.9v-19c0-2.1,1.7-3.9,3.9-3.9h19.1
		c2.1,0,3.9,1.7,3.9,3.9v7.2c0,1.9,2.9,1.9,2.9,0v-7.2c0-3.7-3.1-6.8-6.8-6.8H-76c0-0.2,0-7.6,0-7.6c1.3,0.5,2.7,0.8,4.1,0.8h16.4
		v7.2c0,1.2,1.4,1.9,2.4,1.2l10.9-8.4h4.4c6.1,0,11-4.9,11-11v-34C-26.6-106.3-31.5-111.2-37.6-111.2L-37.6-111.2z"/>
	<path class="st0" d="M-51-100.4c-1.9-0.5-3.8,1-3.8,2.9c0,2.1-0.8,4.1-2.2,5.7l-4,4.6c-0.3-0.4-0.7-0.7-1.2-0.7h-7.9
		c-0.8,0-1.5,0.7-1.5,1.5v17.8c0,0.8,0.7,1.5,1.5,1.5h7.9c0.6,0,1.1-0.4,1.3-0.9c1.6,1,3.5,1.5,5.3,1.5h14c2.1,0,3.9-1.9,3.8-4
		c0-0.9,0-13.6,0-13.9c0-2.1-1.7-3.8-3.8-3.8h-7.3l0.3-0.7c1.4-3.3,1.1-7-0.6-10.1C-49.5-99.7-50.2-100.2-51-100.4
		S-50.2-100.2-51-100.4C-52.9-100.9-50.2-100.2-51-100.4L-51-100.4z M-63.7-70.1h-5v-14.8h5V-70.1z M-41.6-85.2
		c0.5,0,0.9,0.4,0.9,0.9c0,0.3,0,1,0,2.1c0,5.7,0,11.1,0,12c0,0.3-0.1,0.5-0.2,0.6c-0.2,0.2-0.4,0.3-0.6,0.3h-14
		c-1.7,0-3.3-0.6-4.6-1.6l-0.6-0.5v-11.5l6-6.8c1.9-2.1,2.9-4.8,2.9-7.7c0-0.1,0.1-0.1,0.2,0c1.3,2.3,1.5,5.1,0.4,7.5l-1.2,2.7
		c-0.2,0.5-0.1,1,0.1,1.4c0.3,0.4,0.7,0.7,1.2,0.7L-41.6-85.2z"/>
	<path class="st0" d="M-108.1-60.2c-0.8,0-1.5,0.7-1.5,1.5s0.7,1.5,1.5,1.5h4.3l-0.8,4.9c-0.1,0.8,0.4,1.6,1.2,1.7
		c0.1,0,0.2,0,0.2,0c0.7,0,1.3-0.5,1.4-1.2l0.9-5.4h3.5l-0.8,4.9c-0.1,0.8,0.4,1.6,1.2,1.7c0.1,0,0.2,0,0.2,0c0.7,0,1.3-0.5,1.4-1.2
		l0.9-5.4h5.9c0.8,0,1.5-0.7,1.5-1.5s-0.7-1.5-1.5-1.5H-94l0.6-3.6h4.8c0.8,0,1.5-0.7,1.5-1.5c0-0.8-0.7-1.5-1.5-1.5h-4.3l0.8-4.9
		c0.1-0.8-0.4-1.6-1.2-1.7c-0.8-0.1-1.6,0.4-1.7,1.2l-0.9,5.4h-3.5l0.8-4.9c0.1-0.8-0.4-1.6-1.2-1.7c-0.8-0.1-1.6,0.4-1.7,1.2
		l-0.9,5.4h-5.9c-0.8,0-1.5,0.7-1.5,1.5s0.7,1.5,1.5,1.5h5.4l-0.6,3.6L-108.1-60.2L-108.1-60.2z M-99.8-63.8h3.5l-0.6,3.6h-3.5
		L-99.8-63.8z"/>
	<path class="st0" d="M-72.3-37.9c-1.2-1-2.8-1.4-4.3-1c-2,0.5-4.1,2.4-4.1,5.5c0,1.9,0.7,3.6,2.2,5.2c1.2,1.2,2.9,2.4,5.6,3.9
		c0.2,0.1,0.5,0.2,0.7,0.2s0.5-0.1,0.7-0.2c4.7-2.5,7.8-4.9,7.8-9c0-3.1-2.1-5-4.2-5.5C-69.7-39.2-71.2-38.9-72.3-37.9L-72.3-37.9z
		 M-66.8-33.4c0,2.2-1.5,3.8-5.5,6c-4-2.2-5.5-3.9-5.5-6c0-1.6,0.9-2.4,1.8-2.7c0.2,0,0.3-0.1,0.5-0.1c0.7,0,1.4,0.3,1.8,1.2
		c0.3,0.5,0.8,0.8,1.3,0.8c0.6,0,1.1-0.3,1.3-0.8c0.5-1,1.5-1.2,2.3-1C-67.8-35.8-66.8-35-66.8-33.4z"/>
</g>
<g id="_x30_QbTMQ_00000178174563421118953580000002934678207100901817_">
	<g>
		<path class="st0" d="M57.5,47.8c-6.8,0-13.6,0-20.3,0c-1.5,0-2-0.5-2-2.2c0-14.4,0-28.7,0-43.1c0-1.7,0.4-2.2,2-2.2
			c3.9,0,7.7,0,11.5,0c0.7,0,1.2,0.2,1.8,0.6c10.9,8.4,21.9,16.8,32.9,25.3c0.8,0.6,1.1,1.2,1.1,2.3c0,5.7,0,11.4,0,17.1
			c0,1.7-0.4,2.2-2,2.2c-0.6,0-0.9,0.1-0.9,0.8c0,0.1,0,0.2,0,0.3c0,0.6-0.2,1.2,0.1,1.7c0.3,0.6,0.9,0.1,1.5,0.2
			c0.8,0.2,1.2,0.7,1.3,1.5c0,0.3,0,0.5,0,0.7c0,12.3,0,31.3,0,43.5c0,1.9-0.4,2.2-2.1,2.2c-12.6,0-25.2,0-37.8,0
			c-0.8,0-1-0.2-0.9-1c0.1-2.1,0-2.1,1.9-2.1c2.4,0,4.8,0,7.2,0c0.7,0,0.8-0.2,0.8-0.9c0-5.1,0-10.3,0-15.3c0-1.6,0.4-2.1,1.9-2.1
			c3.4,0,6.8,0,10.2,0c1.5,0,2,0.5,2,2.2c0,5.1,0,10.2,0,15.2c0,0.7,0.2,0.9,0.9,0.9c4.1,0,8.3,0,12.4,0c0.6,0,0.9-0.1,0.9-0.8
			c0-11.1,0-29,0-40.2c0-0.8-0.3-0.8-0.9-0.8c-12,0-24.1,0-36,0c-0.9,0-1.1-0.2-1-1.1c0.1-2,0-2,1.8-2c10.8,0,21.7,0,32.5,0
			c0.9,0,1-0.3,1-1.1c-0.1-2,0-2-1.8-2C70.6,47.8,64,47.8,57.5,47.8z M59.9,44.7c7,0,13.9,0,20.8,0c0.9,0,1-0.3,0.9-1.1
			c0-4.7,0-9.4,0-14.1c0-0.6-0.2-0.9-0.6-1.2C70.6,20.2,60,12.1,49.4,4c-0.3-0.3-0.8-0.5-1.2-0.5c-3.1,0-6.2,0-9.3,0
			c-0.7,0-0.9,0.3-0.9,0.9c0,13.1,0,26.2,0,39.4c0,0.7,0.2,1,0.9,1C45.9,44.7,52.9,44.7,59.9,44.7z M64.8,88.3c0-2.2,0-4.5,0-6.7
			c0-0.7-0.1-0.9-0.8-0.8c-2.3,0-4.7,0-7.1,0c-0.5,0-0.7,0.1-0.7,0.7c0,4.6,0,9.3,0,13.8c0,0.7,0.2,0.7,0.7,0.7c2.3,0,4.7,0,7.1,0
			c0.6,0,0.8-0.2,0.8-0.7C64.8,92.8,64.8,90.5,64.8,88.3z"/>
		<path class="st0" d="M16,52.4c-0.2-0.7-0.4-1.3-0.4-1.9c0.1-2.7-0.7-5.3-1.1-8c-0.8-4.4,2.4-8.4,6.5-8.5c3.3-0.1,6.5,0,9.8,0
			c1.1,0,1.6,0.6,1.6,1.8c0,1.3,0.1,2.6-0.1,3.9c-0.2,1.9-0.9,3.5-2.2,4.7c-0.4,0.4-0.5,0.7-0.5,1.3c0,2.2,0.3,4.4-0.6,6.6
			c0.6,0,1.2,0,1.7,0c2.5,0.1,4.9-0.3,7.4,0.2c3.8,0.7,6.9,4.3,7,8.5c0.1,5.4,0.1,17.6,0,23.1c-0.1,3.1-1.3,5.6-3.5,7.6
			c-0.5,0.5-0.7,0.9-0.7,1.6c0.1,1.6,0,3.2,0,4.8c0,0.5-0.1,0.7-0.6,0.7c-2.2,0.1-2.2,0.1-2.2-2.4c0-0.8,0.3-1.8-0.1-2.3
			c-0.4-0.6-1.3,0.1-2,0.1c-4.5,0-8.9,0.3-13.3-0.1c-4-0.4-7.7-1.7-11-3.9c-0.5-0.4-1.1-0.6-1.7-0.6c-0.8,0.1-1.5-0.1-2.2-0.3
			c-0.5-0.2-0.7-0.1-0.7,0.6c0,2.7,0,5.3,0,8c0,0.7-0.2,0.9-0.9,0.8c-2,0-2,0-2-2.2c0-2.8,0-5.5,0-8.3c0-0.5-0.2-0.7-0.5-1.1
			C1.3,85,0,82.2,0,78.6c0-3.4,0-13.5,0-16.9c0-5.5,3.7-9.4,8.8-9.4C11.1,52.4,13.6,52.4,16,52.4z M14.8,88.6
			c3.1,1.7,6.3,2.5,9.5,2.6c3.5,0.1,7.1,0,10.6,0c4.2,0,7.3-3.3,7.3-7.9c0-5,0-16.6,0-21.5c0-3.7-2.4-6.4-5.8-6.4
			c-2.8,0-5.7,0-8.5,0c-0.7,0-1.3,0.2-1.9,0.6c-0.6,0.4-0.4,0.6-0.1,0.9c0.9,0.9,1.6,1.9,2.6,2.7c0.7,0.7,0.7,1.1,0,1.7
			c-0.4,0.4-0.8,1-1.2,1.1c-0.4,0.1-0.8-0.7-1.1-1c-0.3-0.4-0.5-0.2-0.6,0.2c-0.1,0.3,0,0.6,0,0.8c0.3,1.5,0.6,9.8,0.9,11.3
			c0.1,0.6,0.3,0.7,0.8,0.7c1.7,0,3.5-0.3,5.2,0.8c0-2.2,0-11.1,0-13.1c0-2.2,0-2.1,2-2.2c0.8,0,0.9,0.3,0.9,1c0,5,0,16.8,0,21.7
			c0,2-0.3,2.4-2.2,2.3c-4.4-0.1-8.7-0.1-12.9,1.7C18.5,87.6,16.7,88.1,14.8,88.6z M19.3,61.2c-0.6,0.3-0.9,1.3-1.5,1.2
			c-0.5-0.1-0.9-0.9-1.4-1.4c-0.4-0.4-0.5-0.7,0-1.2c1.1-1.1,2.2-2.3,3.4-3.6c-0.8-0.3-1.3-0.9-2.1-0.8c-3.1,0.1-6.2,0-9.2,0
			c-3.3,0.1-5.7,2.7-5.7,6.2c0,3.5,0,13.8,0,17.2c0.1,5.2,4.5,8.9,9,7.5c3.4-1,6.7-2.2,10.1-3.3c0.5-0.2,0.6-0.4,0.5-0.8
			c0-1.3-0.1-2.6,0-3.9c0-0.7-0.2-0.8-0.8-0.8c-3.4,0-6.6,0-10,0c-1.5,0-2-0.5-2-2.2c0-2.1,0-11,0-13c0-2.2,0-2.2,2.2-2.2
			c0.6,0,0.7,0.3,0.7,0.8c0,2.1,0,10.9,0,12.8c0,0.5,0.1,0.7,0.6,0.7c1.5,0,3.2,0,4.7,0c0.3,0,0.6-0.1,0.7-0.6
			c0.3-1.6,0.6-9.9,0.9-11.5C19.7,62,19.7,61.6,19.3,61.2z M26.8,48.3c0-0.4,0-0.8,0-1.2c0.1-0.6-0.1-0.8-0.7-0.7
			c-1.8,0.1-3.4-0.5-4.7-1.8c-0.2-0.2-0.3-0.6-0.6-0.2c-1.2,1.4-2.9,2.4-2.4,4.9c0,0.1,0,0.3,0,0.4c0.1,2.2,1.7,4.1,3.8,4.3
			c2.1,0.3,4-1.2,4.6-3.4C26.8,49.8,26.8,49,26.8,48.3z M17.6,43.6c0.8-0.9,1.5-1.8,2.2-2.5c1.1-1.2,1.9-1.1,2.8,0.3
			c0.9,1.5,2.1,2.2,3.7,1.9c1.6-0.3,2.7-1.3,3.2-3c0.2-0.7,0.1-1.5,0.2-2.2c0.1-0.7-0.1-0.9-0.8-0.9c-2.5,0.1-4.9,0-7.4,0
			C18.2,37.2,16.4,40,17.6,43.6z M28.9,82.1c1,0,2,0,3,0c0.2,0,0.5,0.1,0.5-0.3c0.3-2.2-0.6-4.1-2.8-4.3c-1.2-0.1-2.5,0-3.7,0
			c-0.5,0-0.6,0.2-0.6,0.7c0,1.1,0,2.2,0,3.3c0,0.6,0.1,0.7,0.6,0.7C27,82.1,27.9,82.1,28.9,82.1z M22.4,74.5c1.3,0,1.3,0,1-1.2
			c-0.2-0.9-0.3-8.7-0.5-9.7c0-0.2,0-0.5-0.3-0.5s-0.3,0.3-0.4,0.5c-0.2,1-0.3,8.7-0.6,9.8C21.4,74.3,21.6,74.7,22.4,74.5z
			 M22.6,60.1c0.8,0.2,0.9-0.7,0.9-1.1c0-0.6-0.5-1.1-0.9-1.1s-1,0.6-0.9,1.1C21.6,59.4,21.7,60.2,22.6,60.1z"/>
		<path class="st0" d="M78.9,83.7c0,1.4,0,2.9,0,4.3c0,1.2-0.5,1.8-1.6,1.8c-1.7,0-3.4,0-5.2,0c-1.1,0-1.6-0.6-1.6-1.8
			c0-2.9,0-5.8,0-8.7c0-1.2,0.5-1.8,1.6-1.8c1.7,0,3.4,0,5.2,0c1.1,0,1.6,0.6,1.6,1.8C78.9,80.8,78.9,82.3,78.9,83.7z M76.1,83.7
			c0-0.3,0-0.6,0-0.8c0-2.3,0-2.3-2.2-2.2c-0.5,0-0.7,0.1-0.7,0.7c0,1,0,2.1,0,3.2c0,2.4,0,2.3,2.2,2.3c0.4,0,0.6-0.1,0.6-0.7
			C76,85.3,76.1,84.5,76.1,83.7z"/>
		<path class="st0" d="M54.9,61.6c-0.8,0-1.5,0-2.2,0c-0.5,0-0.6-0.2-0.6-0.7c-0.1-2.3-0.1-2.3,2.1-2.3c0.9,0,1.9,0,2.9,0
			c0.6,0,0.7,0.2,0.7,0.7c0,2.3,0,2.3-2.2,2.3C55.4,61.6,55.2,61.6,54.9,61.6z"/>
		<path class="st0" d="M64.7,61.6c-0.3,0-0.4,0-0.7,0c-2.3,0-2.3-0.1-2.1-2.6c0-0.4,0.2-0.5,0.5-0.5c1.5,0,3.1,0,4.6,0
			c0.3,0,0.5,0.1,0.5,0.6c0,0.1,0,0.1,0,0.2c0.1,2.3,0.1,2.3-2.1,2.3C65.2,61.6,65,61.6,64.7,61.6z"/>
		<path class="st0" d="M74.6,61.6c-0.7,0-1.4,0-2.1,0c-0.5,0-0.7-0.1-0.7-0.7c0-2.3-0.1-2.3,2.1-2.3c1,0,2,0,3,0
			c0.8,0,0.7,0.6,0.5,0.9c-0.3,0.7,0.7,1.8-0.5,2.1C76.2,61.8,75.4,61.6,74.6,61.6z"/>
		<path class="st0" d="M54.9,74.5c-0.8,0-1.5,0-2.3,0c-0.3,0-0.6-0.1-0.5-0.6c0-0.1,0-0.1,0-0.2c-0.1-2.3-0.1-2.3,2.1-2.3
			c0.9,0,1.9,0,2.9,0c0.4,0,0.7,0.1,0.7,0.7c0.1,2.4,0.1,2.4-2.2,2.4C55.4,74.5,55.2,74.5,54.9,74.5z"/>
		<path class="st0" d="M64.8,71.4c0.8,0,1.5,0,2.2,0c0.5,0,0.6,0.2,0.6,0.7c0,2.3,0.1,2.3-2.1,2.3c-0.9,0-1.9-0.1-2.9,0
			c-0.8,0.1-0.8-0.5-0.6-0.9c0.3-0.7-0.7-1.9,0.6-2.2C63.4,71.3,64,71.4,64.8,71.4z"/>
		<path class="st0" d="M74.7,74.5c-0.3,0-0.5,0-0.8,0c-2.2,0-2.3-0.1-2.1-2.6c0-0.4,0.2-0.5,0.5-0.5c1.5,0,3.1,0,4.6,0
			c0.3,0,0.5,0.1,0.5,0.6c0.2,2.5,0.2,2.5-2.2,2.5C75.1,74.5,74.9,74.5,74.7,74.5z"/>
		<path class="st0" d="M45,34.1c-0.2,0-0.4,0-0.6,0c-2.2,0-2.2,0-2.2-2.4c0-0.5,0.1-0.7,0.6-0.7c1.5,0,3,0,4.5,0
			c0.4,0,0.6,0.2,0.6,0.7c0.1,2.4,0.1,2.4-2.2,2.4C45.5,34.1,45.3,34.1,45,34.1z"/>
		<path class="st0" d="M55,31c0.3,0,0.4,0,0.7,0c2.2,0,2.3,0.1,2.1,2.6c0,0.4-0.2,0.5-0.5,0.5c-1.5,0-3.1,0-4.6,0
			c-0.3,0-0.5-0.1-0.5-0.6C51.9,31,51.9,31,54.2,31C54.5,31,54.8,31,55,31z"/>
		<path class="st0" d="M64.7,34.1c-0.8,0-1.5,0-2.3,0c-0.3,0-0.5-0.1-0.5-0.6C61.7,31,61.7,31,64,31c1,0,2,0,3,0
			c0.4,0,0.5,0.1,0.5,0.6c0.1,2.4,0.2,2.4-2.2,2.4C65.2,34.1,65,34.1,64.7,34.1z"/>
		<path class="st0" d="M74.6,34.1c-0.8,0-1.5,0-2.2,0c-0.5,0-0.6-0.2-0.6-0.7C71.7,31,71.7,31,73.8,31c0.9,0,1.9,0,2.9,0
			c0.6,0,0.7,0.2,0.7,0.7c0,2.3,0,2.3-2.2,2.3C75.1,34.1,74.9,34.1,74.6,34.1z"/>
		<path class="st0" d="M45.1,40.2c-0.8,0-1.5,0-2.2,0c-0.5,0-0.6-0.2-0.6-0.7c-0.1-2.3-0.1-2.3,2.1-2.3c0.9,0,1.9,0.1,2.8,0
			c0.9-0.1,0.9,0.6,0.7,1c-0.3,0.7,0.9,1.9-0.7,2.1C46.5,40.3,45.8,40.2,45.1,40.2z"/>
		<path class="st0" d="M54.9,40.2c-0.8,0-1.5,0-2.3,0c-0.3,0-0.5-0.2-0.5-0.6c-0.2-2.5-0.2-2.5,2.2-2.5c1,0,2,0,3,0
			c0.4,0,0.5,0.2,0.5,0.6c0.1,2.4,0.2,2.4-2.2,2.4C55.4,40.2,55.1,40.2,54.9,40.2z"/>
		<path class="st0" d="M64.8,40.2c-0.8,0-1.5,0-2.3,0c-0.4,0-0.5-0.2-0.5-0.6c-0.1-2.4-0.2-2.4,2.2-2.4c0.9,0,1.9,0,2.9,0
			c0.4,0,0.6,0.2,0.6,0.7c0.1,2.4,0.1,2.4-2.2,2.4C65.2,40.2,65.1,40.2,64.8,40.2z"/>
		<path class="st0" d="M54.9,28c-0.8,0-1.5,0-2.3,0c-0.4,0-0.5-0.2-0.5-0.6C52,25,51.9,25,54.2,25c0.9,0,1.9,0,2.9,0
			c0.4,0,0.6,0.2,0.6,0.7c0.1,2.4,0.1,2.4-2.2,2.4C55.4,28,55.2,28,54.9,28z"/>
		<path class="st0" d="M64.7,28c-0.2,0-0.4,0-0.6,0c-2.2,0-2.2,0-2.2-2.4c0-0.5,0.1-0.7,0.6-0.7c1.5,0,3,0,4.5,0
			c0.4,0,0.6,0.2,0.6,0.7c0.1,2.4,0.1,2.4-2.2,2.4C65.2,28,65,28,64.7,28z"/>
		<path class="st0" d="M45,28c-0.8,0-1.5,0-2.2,0c-0.5,0-0.6-0.2-0.6-0.7c-0.1-2.4-0.1-2.4,2.2-2.4c0.9,0,1.9,0,2.9,0
			c0.5,0,0.6,0.2,0.6,0.7C48,28,48,28,45.8,28C45.5,28,45.3,28,45,28z"/>
		<path class="st0" d="M55,21.8c-0.3,0-0.6,0-0.9,0c-0.6-0.1-1.6,0.3-1.8-0.2C52,21,52.3,20,52.2,19.1c0-0.4,0.2-0.4,0.4-0.4
			c1.5,0,3.2,0,4.7,0c0.3,0,0.4,0.1,0.4,0.5c0,0.1,0,0.2,0,0.3c0.1,2.3,0.1,2.3-2.1,2.3C55.4,21.8,55.2,21.8,55,21.8z"/>
		<path class="st0" d="M45.1,18.8c0.8,0,1.5,0,2.3,0c0.3,0,0.5,0.1,0.5,0.6c0,0.1,0,0.1,0,0.2c0.1,2.3,0.1,2.3-2.1,2.3c-1,0-2,0-3,0
			c-0.4,0-0.5-0.1-0.6-0.6c-0.2-2.5-0.2-2.4,2.2-2.4C44.6,18.8,44.9,18.8,45.1,18.8z"/>
		<path class="st0" d="M45,15.7c-0.2,0-0.4,0-0.6,0c-2.2,0-2.2,0-2.2-2.4c0-0.5,0.1-0.7,0.6-0.7c1.5,0,3,0,4.5,0
			c0.4,0,0.6,0.2,0.6,0.7c0.1,2.4,0.1,2.4-2.2,2.4C45.5,15.7,45.3,15.7,45,15.7z"/>
		<path class="st0" d="M45,9.7c-0.8,0-1.5,0-2.2,0c-0.5,0-0.6-0.2-0.6-0.7c-0.1-2.4-0.1-2.4,2.2-2.4c0.9,0,1.9,0,2.9,0
			c0.5,0,0.6,0.2,0.6,0.7C48,9.7,48,9.7,45.8,9.7C45.5,9.7,45.3,9.7,45,9.7z"/>
		<path class="st0" d="M74.7,40.2c-0.3,0-0.6,0-0.9,0c-0.6-0.1-1.6,0.3-1.8-0.2c-0.3-0.7-0.1-1.7-0.2-2.5c0-0.4,0.2-0.4,0.4-0.4
			c1.5,0,3.2,0,4.7,0c0.3,0,0.4,0.1,0.4,0.5c0,0.1,0,0.2,0,0.3c0.1,2.3,0.1,2.3-2.1,2.3C75.1,40.2,74.9,40.2,74.7,40.2z"/>
	</g>
</g>
</svg>
