<?xml version="1.0" encoding="utf-8"?>
<!-- Generator: Adobe Illustrator 27.0.1, SVG Export Plug-In . SVG Version: 6.00 Build 0)  -->
<svg version="1.1" id="Capa_1" xmlns="http://www.w3.org/2000/svg" xmlns:xlink="http://www.w3.org/1999/xlink" x="0px" y="0px"
	 width="87.3px" height="99.2px" viewBox="0 0 87.3 99.2" style="enable-background:new 0 0 87.3 99.2;" xml:space="preserve">
<style type="text/css">
	.st0{fill:#FFFFFF;}
	.st1{fill:#FFFFFF;stroke:#FFFFFF;stroke-miterlimit:10;}
</style>
<g>
	<path class="st0" d="M-45.6,74.5c-1.8-3.1-5.9-4.2-9-2.4l-17.4,10c-0.3-2.7-2.3-5-5-5.7l-15.5-2.8c-2.2-0.5-4.4-1.3-6.4-2.4
		c-4.1-2.1-8.7-3.2-13.4-3.2c-4.6-0.1-9.1,1-13.2,3.1c-0.6,0.3-1.2,0.5-1.9,0.7c-2.6,0.8-5.3,1.2-8.1,1.2h-6.7
		c-0.9,0-1.7,0.7-1.7,1.7v23.1c0,0.9,0.7,1.7,1.7,1.7h10.1c0.9,0,1.8,0.1,2.8,0.2l40.3,6.2c1.2,0.2,2.3,0,3.4-0.6L-48,83.6
		c2.1-1.2,3.3-3.4,3.3-5.7C-44.7,76.6-45,75.5-45.6,74.5L-45.6,74.5z M-49.6,80.6L-49.6,80.6l-37.6,21.7c-0.4,0.2-0.8,0.3-1.2,0.2
		l-40.3-6.2c-1.1-0.2-2.2-0.2-3.3-0.2h-8.4V76.3h5c3.1,0,6.1-0.4,9-1.3c0.8-0.2,1.6-0.6,2.4-1c3.6-1.8,7.6-2.7,11.6-2.7
		c4.1-0.1,8.1,0.9,11.8,2.8c2.3,1.3,4.8,2.2,7.3,2.8l15.5,2.7c1.8,0.5,2.8,2.3,2.3,4.1c-0.1,0.3-0.2,0.5-0.3,0.8l0,0l0,0
		c-0.8,1.3-2.3,1.9-3.7,1.5c-0.1,0-21.1-3.1-21.1-3.1c-0.9-0.2-1.8,0.4-1.9,1.3c-0.2,0.9,0.4,1.8,1.3,1.9h0.1c0,0,21.8,3.2,22.4,3.2
		l0,0c2.2,0,4.2-1.1,5.4-2.9l20.1-11.6c1.6-0.9,3.6-0.4,4.5,1.2c0.3,0.5,0.4,1.1,0.4,1.7C-48,79-48.6,80.1-49.6,80.6z"/>
	<path class="st1" d="M-73.1,17.5L-73.1,17.5c-2.2,2.2-2.2,5.7-0.1,7.8c2.2,2.1,5.6,2.1,7.8,0c2.1-2.1,2.1-5.6,0-7.8
		C-67.5,15.4-70.9,15.4-73.1,17.5z M-66.9,23.8c-1.3,1.3-3.4,1.3-4.7,0c-1.3-1.3-1.3-3.4,0-4.7c1.3-1.3,3.4-1.3,4.7,0
		c0.6,0.6,1,1.5,1,2.3C-65.9,22.3-66.3,23.2-66.9,23.8z"/>
	<g>
		
			<rect x="-113.4" y="36.5" transform="matrix(0.7077 -0.7065 0.7065 0.7077 -59.4762 -68.1997)" class="st0" width="2.5" height="2.5"/>
		
			<rect x="-92.1" y="57.8" transform="matrix(0.7071 -0.7071 0.7071 0.7071 -68.3688 -46.9149)" class="st0" width="2.5" height="2.5"/>
		
			<rect x="-88.5" y="61.4" transform="matrix(0.7071 -0.7071 0.7071 0.7071 -69.8309 -43.3175)" class="st0" width="2.5" height="2.5"/>
		
			<rect x="-109.9" y="40" transform="matrix(0.7071 -0.7071 0.7071 0.7071 -60.9958 -64.7157)" class="st0" width="2.5" height="2.5"/>
		
			<rect x="-106.2" y="43.6" transform="matrix(0.7074 -0.7068 0.7068 0.7074 -62.4065 -61.0962)" class="st0" width="2.5" height="2.5"/>
		
			<rect x="-102.8" y="47.1" transform="matrix(0.7072 -0.707 0.707 0.7072 -63.936 -57.6101)" class="st0" width="2.5" height="2.5"/>
		
			<rect x="-99.2" y="50.7" transform="matrix(0.7071 -0.7071 0.7071 0.7071 -65.4097 -54.0183)" class="st0" width="2.5" height="2.5"/>
		
			<rect x="-95.6" y="54.3" transform="matrix(0.7066 -0.7076 0.7076 0.7066 -67.0149 -50.4633)" class="st0" width="2.5" height="2.5"/>
	</g>
	<path class="st1" d="M-51.1,35.5l-1.3-17.4c-0.1-1.6-1.4-2.9-3-3l-2.2-0.2l-0.2-2.3c-0.1-1.6-1.4-2.8-3-3l-21.3-2
		c-1-0.1-2,0.3-2.7,1l-32,32c-1.3,1.3-1.3,3.4,0,4.7l0,0l23.4,23.3c1.3,1.3,3.4,1.3,4.7,0l0,0l0.8-0.8l0.8,0.8
		c1.3,1.3,3.4,1.3,4.7,0L-52,38.2C-51.4,37.4-51,36.5-51.1,35.5z M-90.3,67c-0.4,0.4-1.1,0.4-1.6,0l0,0l-23.3-23.4
		c-0.4-0.4-0.4-1.1,0-1.6l0,0l32-32c0.2-0.2,0.5-0.3,0.8-0.3h0.1l21.3,2.1c0.5,0.1,0.9,0.5,1,1l2.1,21.3c0,0.3-0.1,0.6-0.3,0.9
		L-90.3,67z M-53.6,36.6L-84,67c-0.4,0.4-1.1,0.4-1.6,0l-0.8-0.8l29.7-29.6c0.7-0.7,1-1.7,1-2.7l-1.6-16.8l1.8,0.2
		c0.5,0.1,0.9,0.5,1,1l1.3,17.4C-53.3,36-53.4,36.3-53.6,36.6z"/>
</g>
<g id="SR6Ygs_00000040575765003611463890000009500812768494988417_">
	<g>
		<path class="st0" d="M72.8,28.4C72.3,46,59.8,56.9,44.1,57.1c-15.6,0.1-28.9-10.5-29.3-28.5C14.5,13.2,27.6,0.3,43.4,0.1
			C59.6,0,72.6,12.6,72.8,28.4z M50.4,4.4c-2.4-0.7-4.7-0.9-7.1-0.9c-0.2,0-0.5,0-0.5,0.3c-0.2,2.4-1.5,4.6-1.3,7
			c0.1,1.3-0.2,2.6-0.9,3.7c-0.9,1.3-2.4,1.9-3.6,1.2c-1.4-0.8-2.3-1.9-3-3.3c-0.6-1.4-1.1-2.7-0.1-4.1C33,8,32.3,7.7,31.9,7.1
			c-0.1-0.3-0.3-0.5-0.7-0.3c-0.4,0.2-0.3,0.5-0.1,0.7c0.4,0.7,0.5,1.5,0.2,2.3c-0.2,0.5,0,0.7,0.3,1.1c1.6,1.8,2.2,3.9,1.7,6.3
			c-0.5,2.4-1.1,4.8-1.6,7.2c-0.2,0.8-0.4,1.5-0.8,2.2c-1.1,2.1-2.6,2.4-4.5,0.9c-0.5-0.4-0.9-0.8-1.7-0.4c0.6,0.4,1,0.8,1.5,1.1
			c0.8,0.5,1.5,1.2,1.8,2.1c0.2,0.6,0.5,0.7,1.1,0.5c2.2-0.5,4.4-0.5,6.6,0.4c3.2,1.3,5.1,4.3,4.6,7.4c-0.3,1.8-1.1,3.3-2.1,4.7
			c-1.7,2.5-2.8,5.2-3.7,8c-0.2,0.6-0.1,0.9,0.5,1.2c4.3,1.5,8.8,1.8,13.4,1.1c0.7-0.1,1-0.4,1.1-1.1c0.3-2.4,0.4-4.9,0.3-7.2
			c-0.1-1.9-1-3.4-2.7-4.5c-0.9-0.6-1.9-1.1-2.7-1.8c-1.9-1.4-2.6-3.3-2.4-5.6c0.3-2.6,1.6-4.6,3.8-6c-2.8-0.7-4.1-2-4.6-4.4
			c-0.6-2.7,0.2-4.2,2.9-5.1c0.4-0.1,0.7-0.2,0.8-0.8c0.2-1.9,1.4-3,3.1-3.7c0.8-0.3,1.6-0.6,2.5-0.9c-0.5-0.3-0.9-0.2-1.3-0.3
			c-0.7-0.1-1.2-0.3-1.7-0.7C46.3,10.5,46.1,9,47,7.5C47.8,6.2,49,5.3,50.4,4.4z M50.2,8.9C51,9,51.8,9,52.5,9.2
			c2,0.4,2.9,2.4,1.9,4.2c-0.6,1.1-1.5,1.9-2.6,2.4c-0.8,0.3-1.5,0.6-2.3,0.9c-0.8,0.3-1.2,0.7-1.2,1.6c0.1,1.2-0.6,2-1.6,2.5
			c-0.5,0.2-1,0.4-1.5,0.5c-0.6,0.2-0.9,0.4-0.6,1c0.2,0.6,0.3,1.5,1.1,1.6c0.7,0.2,0.9-0.6,1.3-1.1c0.3-0.4,0.6-0.8,0.9-1.2
			c0.4-0.6,0.9-1.1,1.4-1.6c1.4-1.2,2.7-1.2,4.1,0c0.3,0.2,0.4,0.2,0.7,0.1c1.9-0.7,3.3-0.3,4.3,1.4c0.6,1.1,1.3,1.5,2.6,1.5
			c1.4-0.1,2.1,1,1.7,2.3c-0.5,2.1-1.7,3.7-2.9,5.4c-1.6,2.1-5,2.6-6.7,0.2c-0.5-0.8-1.3-1.1-2.2-1.1c-1.4,0-2.8,0.4-3.9,1.3
			c-2.1,1.7-1.9,4.5,0.3,5.9c0.2,0.1,0.4,0.3,0.7,0.4c3.9,2,5.5,5.3,5.4,9.4c0,1.6,0,3.2-0.2,4.8c0.5-0.1,0.8-0.4,1.1-0.6
			c2.2-1.7,3.7-4,4.8-6.6c1-2.4,1.7-4.8,2.4-7.2c0.5-1.8,0.8-3.6,0.4-5.5c-0.2-1-0.1-1.9,0.4-2.8c1-2.1,1.3-4.4,1.5-6.7
			c0.1-0.8,0-1.5-0.4-2.2c-0.8-1.6-0.2-3,1.5-3.6c0.3-0.1,0.7-0.2,1.1-0.3c-1.9-3.3-4.4-5.7-7.2-8c-2.4-2-4.6-1.6-7.1-0.5
			C51,8,50.5,8.3,50.2,8.9z M27.8,9.1c-0.3,0.3-0.5,0.4-0.6,0.5c-4.9,4.2-7.9,9.4-8.8,15.9c-0.4,2.9-0.7,2.4,1.9,3.8
			c2.6,1.4,4.1,3.5,4.1,6.5c0,2.1,0.8,3.9,1.9,5.6c0.5,0.7,0.9,1.4,1.3,2.1c0.9,1.7,1.4,3.4,1,5.3c-0.1,0.4,0,0.6,0.3,0.8
			c0.5,0.3,0.9,0.6,1.3,0.9c0.5,0.4,0.8,0.3,1-0.4c0.6-2.4,1.5-4.7,2.8-6.8c0.7-1.1,1.4-2.2,2-3.3c1.4-2.7,0.3-5-2.6-5.8
			c-1.6-0.4-3.2-0.1-4.8,0.3c-2,0.5-3.1-0.1-3.7-2.1c-0.2-0.7-0.6-1.2-1.2-1.6c-1-0.7-2-1.4-2.7-2.4c-1.1-1.4-0.8-2.9,0.8-3.8
			c1.8-1,3.6-1.5,5.6-0.4c0.3,0.2,0.6,0.3,0.7-0.2c0.6-2.8,1.3-5.5,1.8-8.2c0.2-1.1-0.2-2.1-1.3-2.7c-0.9-0.4-1.2-1.1-1.1-2
			C27.6,10.4,27.7,9.9,27.8,9.1z M62.2,46.3c0.3-0.3,0.6-0.6,0.9-1c4.5-5.2,6.4-11.1,6.2-17.9c-0.1-2.6-0.6-5.1-1.5-7.4
			c-0.1-0.2-0.1-0.6-0.6-0.6c-0.3,0.1-0.2,0.3-0.2,0.5c0.4,3.4-0.1,6.7-1.4,9.7c-0.2,0.5-0.4,1-0.3,1.5c0.5,2.8-0.1,5.5-1,8.1
			C63.6,41.6,62.9,43.9,62.2,46.3z M48.3,26.3c0.2,0.1,0.2,0.1,0.3,0.1c2.8-0.6,5.3-0.1,7.2,2.3c0.3,0.4,0.7,0.4,1,0
			c0.6-0.7,1.1-1.4,1.7-2.1c0.2-0.3,0.3-0.5-0.2-0.7c-1.1-0.4-1.9-1.2-2.4-2.2c-0.2-0.5-0.5-0.6-1.1-0.4c-1,0.4-2,0.3-2.9-0.3
			c-0.5-0.3-0.8-0.3-1.1,0.2C50,24.3,49.3,25.3,48.3,26.3z M24.9,45.7c0.2-0.5-0.1-0.8-0.3-1.1c-2.2-3-3.6-6.2-3.7-9.9
			c0-1.4-1.2-2.1-2.5-2.7C19.2,37.4,21.3,41.8,24.9,45.7z M35.3,5c0.1,0.1,0.1,0.2,0.2,0.2c2.7,1.2,2.9,1.9,1.6,4.6
			c-0.4,0.8,0,1.6,1,2.2c0-2.6,0.2-5.1,1.2-7.4C39.5,4,39.1,3.9,38.8,4C37.5,4.3,36.4,4.5,35.3,5z"/>
		<path class="st0" d="M87,43.3c-0.2,5.4-0.4,11.6-1.6,17.9c-0.3,1.8-0.9,3.5-2,5.1c-3.2,4.8-6.6,9.4-10.8,13.6
			c-0.2,0.2-0.4,0.4-0.6,0.6c-0.8,0.7-1.7,0.6-2.3,0c-0.6-0.6-0.7-1.6,0-2.4c0.5-0.6,1.2-1.2,1.7-1.8c3.6-4,6.8-8.2,9.7-12.7
			c1-1.5,1.1-3.3,1.3-5c1-7.6,1.4-15.4,1.2-23.1c0-0.8,0-1.9-0.9-2c-0.9-0.1-1.1,1-1.3,1.7c-1.2,4.8-2.3,9.6-3.5,14.4
			c-0.1,0.4,0,0.8,0.4,1.1c1.5,1.2,1.7,2.7,1.2,4.5c-0.5,2-1.7,3.6-2.9,5.2c-1.6,2-3.4,3.8-5.4,5.5c-0.9,0.8-1.9,0.8-2.6,0
			c-0.7-0.8-0.6-1.7,0.4-2.6c2.1-1.9,4.1-4,5.8-6.3c0.6-0.8,1.1-1.6,1.4-2.6S76,52.8,75,52.8c-0.8,0-1.5,0.5-2.1,1
			c-1.6,1.3-3,2.8-4.3,4.3c-1.2,1.5-2.8,2.5-4.5,3.3c-1.5,0.6-3.1,1.3-4.4,2.3c-3,2.4-4.5,5.7-5.2,9.3c-0.4,1.9-0.5,3.8-0.5,5.7
			c0,1.3-0.6,2.1-1.7,2.1s-1.7-0.7-1.7-2c-0.1-4.2,0.6-8.2,2.4-12.1c1.7-3.6,4.4-6.2,8.2-7.6c2.5-1,4.5-2.4,6.2-4.5
			c1.4-1.8,3-3.6,5.2-4.4c1.7-0.6,2.2-1.6,2.5-3.2c0.8-4.1,1.9-8,2.9-12.1c0.3-1.2,0.7-2.4,1.5-3.3c2-2.3,5.2-2,6.7,0.6
			c0.5,0.9,0.8,2,0.8,3C87,37.6,87,39.9,87,43.3z"/>
		<path class="st0" d="M3.7,42.7C4,48.5,4.2,54.5,5.3,60.6C5.5,62,6,63.2,6.8,64.3c3.2,4.7,6.6,9.1,10.6,13.1
			c0.1,0.1,0.2,0.2,0.2,0.2c0.9,1,1,1.9,0.2,2.7c-0.8,0.7-1.6,0.7-2.6-0.3c-1.5-1.5-2.9-3-4.2-4.6c-2.4-2.9-4.6-5.9-6.7-8.8
			c-1.5-2.1-2.2-4.4-2.5-6.9c-1.1-8-1.5-16.1-1.4-24.1c0-1.3,0.2-2.5,0.9-3.6c1.5-2.6,4.6-2.9,6.5-0.7c0.9,1,1.4,2.2,1.7,3.4
			c1.1,4.5,2.1,8.9,3.2,13.4c0.2,0.8,0.4,1.3,1.3,1.5c1.5,0.4,2.6,1.4,3.7,2.3c1.3,1.2,2.6,2.5,3.7,3.9c0.8,1,1.8,1.8,3.1,2.2
			c8.5,3,11.6,9.5,12.3,17.7c0.1,0.9,0.1,1.7,0.1,2.6c0,1.6-0.6,2.3-1.7,2.3s-1.7-0.8-1.7-2.3c0-2.8-0.3-5.6-1.2-8.1
			c-1.3-4-3.8-7-7.9-8.4c-2.6-1-4.7-2.5-6.4-4.6c-0.7-0.9-1.6-1.8-2.5-2.6c-0.5-0.5-1.2-1-1.8-1.4c-0.7-0.5-1.6-0.8-2.3-0.1
			c-0.7,0.6-0.2,1.4,0.2,2.1c1.6,2.8,3.9,5.1,6.2,7.2c0.3,0.3,0.7,0.6,1,0.9c0.6,0.7,0.7,1.5,0.1,2.2c-0.6,0.7-1.5,0.9-2.2,0.3
			c-3.3-2.8-6.4-5.8-8.4-9.8c-0.9-2-1-4,1-5.6c0.4-0.3,0.3-0.7,0.2-1.1c-1.1-4.7-2.2-9.3-3.3-13.9c-0.2-0.8-0.4-2.1-1.3-2
			c-1,0.1-0.9,1.4-0.9,2.3C3.6,38,3.7,40.1,3.7,42.7z"/>
		<path class="st0" d="M60.9,81.7c3.8,0,7.6,0,11.4,0c1.6,0,2.2,0.5,2.2,2.1c0,4.4,0,8.8,0,13.2c0,1.3-0.6,2-1.6,2.1
			C71.7,99.2,71,98.4,71,97c0-3.5,0-6.9,0-10.3c0-1.9,0.2-1.6-1.6-1.6c-5.8,0-11.7,0-17.5,0c-1,0-1.3,0.2-1.3,1.2
			c0.1,3.6,0,7,0,10.6c0,0.8-0.2,1.6-1,2c-1.2,0.6-2.4-0.3-2.4-1.7c0-3.3,0-6.7,0-9.9c0-1.2,0-2.4,0-3.6c0-1.3,0.6-1.9,2-1.9
			C53,81.7,56.9,81.7,60.9,81.7z"/>
		<path class="st0" d="M26.6,81.7c3.8,0,7.6,0,11.4,0c1.6,0,2.2,0.5,2.2,2.2c0,4.4,0,8.6,0,13c0,1.5-0.6,2.2-1.7,2.2
			s-1.7-0.7-1.7-2.2c0-3.6,0-7.1,0-10.7c0-0.8-0.2-1.1-1.1-1.1c-6.1,0-12.2,0-18.3,0c-0.9,0-1.1,0.3-1.1,1.1c0,3.6,0,7.1,0,10.7
			c0,1-0.2,1.9-1.4,2.1c-1.2,0.2-2-0.5-2-1.8c0-2.7,0-5.3,0-7.9c0-1.8,0-3.6,0-5.4c0-1.6,0.5-2.2,2.2-2.2
			C18.9,81.7,22.8,81.7,26.6,81.7z"/>
		<path class="st0" d="M34.8,88.2c0,1-0.9,1.9-1.9,1.9s-1.9-0.9-1.9-2c0-1,0.9-1.8,1.9-1.8C34,86.3,34.8,87.2,34.8,88.2z"/>
		<path class="st0" d="M56.2,88.2c0,1-0.8,1.9-1.8,1.9s-2-0.9-1.9-1.9c0-1,0.9-1.9,1.9-1.8C55.4,86.3,56.2,87.1,56.2,88.2z"/>
	</g>
</g>
</svg>
