<?xml version="1.0" encoding="utf-8"?>
<!-- Generator: Adobe Illustrator 27.0.1, SVG Export Plug-In . SVG Version: 6.00 Build 0)  -->
<svg version="1.1" id="圖層_1" xmlns="http://www.w3.org/2000/svg" xmlns:xlink="http://www.w3.org/1999/xlink" x="0px" y="0px"
	 width="800px" height="314px" viewBox="0 0 800 314" style="enable-background:new 0 0 800 314;" xml:space="preserve">
<style type="text/css">
	.st0{fill:#00B9C9;}
	.st1{fill:url(#SVGID_1_);}
	.st2{fill:url(#SVGID_00000021800889594227441140000016131160646879468734_);}
	.st3{fill:url(#SVGID_00000164490923218560897260000017722992965171689397_);}
	.st4{fill:url(#SVGID_00000172432337471623355030000018222621913299472290_);}
	.st5{fill:url(#SVGID_00000183212915890036396300000000327935524627093898_);}
	.st6{fill:#014153;}
	.st7{fill:#007888;}
	.st8{fill:#FFE200;}
	.st9{fill:#FFFFFF;}
</style>
<g>
	<g>
		<path class="st0" d="M74.1,172.7c-4.6-0.5-8.4-0.8-17.6-0.8H22.7c-8.1,0-11.2,0.1-15.8,0.3c1-4.3,1.6-8.2,2.2-15.6l5.1-58.5
			c0.6-6.6,0.7-10.4,0.5-15.6c4.4,0.2,7.4,0.3,15.7,0.3h34.2c7.3,0,10.9-0.2,16-0.7l-1.8,20c-4.9-0.5-8.7-0.8-15.9-0.8H35.2
			L33.8,117H57c7.1,0,9.7-0.1,16.1-0.8L71.4,136c-5-0.5-8.6-0.7-16-0.7H32.2l-1.6,18h27.6c8.1,0,12.9-0.2,17.5-0.8L74.1,172.7z"/>
		<path class="st0" d="M107.2,142.9c0.1,3.9,0.7,5.8,2.1,7.9c2.3,3.2,6.6,5,12.1,5c8.2,0,13.5-3.6,14-9.6c0.3-3.3-1.2-6.2-3.8-7.5
			c-2.2-1.1-4.8-1.8-15.7-4.4c-9.7-2.1-13-3.4-16.7-6.2c-6.3-4.7-9.4-11.9-8.6-20.6C92,91,106.2,80.6,127.3,80.6
			c13.6,0,23.6,4.2,28.7,12.2c2.4,3.5,3.4,6.7,4.2,12.9l-22.9,2.5c-0.7-7-4.3-9.9-12.4-9.9c-6.5,0-11.7,3.5-12.1,8.5
			c-0.3,3,1.1,5.3,4.4,6.9c2.1,1,2.1,1,14.5,3.5c8,1.7,13,3.5,16.8,6.1c7.3,4.8,10.5,12,9.7,21.9c-0.7,8-3.9,14.9-9.2,19.7
			c-6.7,6-16.4,9.1-29,9.1c-9.1,0-17.9-1.9-23.4-5.2c-5.1-3-8.7-7.6-10.4-13.7c-0.8-2.6-1.2-5-1.5-10L107.2,142.9z"/>
		<path class="st0" d="M221.7,139.3c-5.5,0-7.3,0.1-10.7,0.5l1.7-19c3.9,0.5,6.5,0.6,14,0.6h8.6c5.5,0,9.4-0.1,14.2-0.5
			c-0.9,4.1-1.4,7.6-2,14.6l-1,12c-0.7,7.6-0.9,11-0.6,16c-6.2,3.7-9.2,5.1-14.2,6.7c-7.2,2.4-15.1,3.6-23,3.6
			c-13.6,0-23.9-3.8-30.8-11.5c-7.4-8.1-10.8-20.9-9.5-35.6c2.5-28.2,21.1-46.1,48.1-46.1c13.4,0,23.2,4.2,29.5,12.8
			c2.6,3.3,4,6.5,5.3,11.7l-22.3,5c-0.8-3.9-1.9-5.9-4.1-7.7c-2.6-2.3-6-3.3-10.5-3.3c-13.7,0-22.1,10-23.7,28
			c-0.9,10,0.7,17.7,4.6,22.4c3.1,3.8,8.2,5.8,14.9,5.8c5.7,0,10.4-1.2,15.9-3.9l1.1-12.2L221.7,139.3L221.7,139.3z"/>
		
			<linearGradient id="SVGID_1_" gradientUnits="userSpaceOnUse" x1="324.9722" y1="343.914" x2="312.7852" y2="130.6413" gradientTransform="matrix(1 0 0 -1 0 313.7008)">
			<stop  offset="0" style="stop-color:#002B38"/>
			<stop  offset="1" style="stop-color:#0093A3"/>
		</linearGradient>
		<path class="st1" d="M279.1,99.7c-4.8,0-7,0.1-10.2,0.4l1.3-14.5c3.1,0.4,4.7,0.5,10.1,0.5h5.1l0.1-1.2c0.3-2.9,0.2-5,0-7.7h14.9
			c-0.6,2.4-1.1,4.7-1.3,7.7l-0.1,1.2h3.1c5.4,0,7.1-0.1,10.2-0.5L311,100c-3.2-0.3-4.2-0.3-10.2-0.3h-3.1l-0.3,4h4.4
			c5.6,0,6.7,0,8.6-0.2c-0.5,2.2-0.7,3.9-1.3,10.7l-1.8,20.6c-0.6,6.3-0.7,9.1-0.7,12.2c-1.6-0.1-3.2-0.1-9.1-0.1h-3.9l-0.4,4.2h5
			c3.8,0,5.9-0.1,8.3-0.5l-1.3,14.7c-2.5-0.3-4.7-0.4-8.2-0.4h-5l-0.4,4.3c-0.3,3.4-0.3,6.3-0.3,9.3h-14.8c0.7-2.9,1.2-6.1,1.5-10.1
			l0.3-3.5h-5.4c-5.2,0-7,0.1-10.2,0.5l1.3-14.8c3,0.4,4.9,0.5,10.1,0.5h5.4l0.4-4.2h-2.5c-5.2,0-7.1,0-11.3,0.2
			c0.6-3.6,1.1-7.4,1.6-13.3l1.6-18.2c0.5-5.8,0.7-9,0.6-12.2c3.3,0.3,4.8,0.3,11.1,0.3h2.6l0.3-4H279.1z M279.6,130l-0.5,5.6h3.6
			l0.5-5.6H279.6z M281,114.9l-0.5,5.4h3.6l0.5-5.4H281z M293.1,135.6h3.5l0.5-5.6h-3.5L293.1,135.6z M294.4,120.3h3.5l0.5-5.4h-3.5
			L294.4,120.3z M354.9,140.5c-0.3-1.1-0.5-1.4-0.9-2.5c-11.6,1.6-19.7,2.4-38,3.4c-1.6,0.1-3.2,0.3-5.6,0.8l-1-13.4
			c2.4,0.2,4.9,0.3,9.8,0.3c3.5,0,7,0,11.3-0.1l0.3-3.5h-10.5c-4.6,0-6.2,0-8.6,0.2c0.5-2.4,0.8-4.4,1.2-8.6l0.9-10.6
			c0.4-4.1,0.4-6.3,0.3-8.7c2.6,0.2,4.7,0.3,8.5,0.3h10.5l0.2-2.5h-6.6c-5.2,0-10.1,0.2-13.2,0.5l1.1-12.6c3.3,0.4,7.3,0.6,13.1,0.6
			h5.9c0.2-3.1,0.2-4.6,0.1-6.9h15.5c-0.6,2.2-0.9,4-1.2,6.9h10.2c5.3,0,8.4-0.2,11.1-0.6l-1.1,12.6c-3-0.3-7.5-0.5-12.7-0.5h-8.9
			l-0.2,2.5h11.7c4.2,0,5.7-0.1,8.1-0.3c-0.5,2.2-0.8,4.7-1.3,9.7l-0.7,8.5c-0.4,5-0.6,7.6-0.4,9.7c-1.3-0.1-1.6-0.1-2.9-0.2
			c2.9,5.6,3.8,7.5,5.6,11.7l-10.9,5.5c-0.1,1-0.2,1.3-0.3,2.1c4.9-0.1,7-0.2,10.1-0.6l-1.2,13.3c-2.7-0.4-5-0.5-10-0.6l-0.9,9.7
			c-0.7,8.2-5.5,11.3-18.1,11.3c-1,0-2.6-0.1-4.6-0.2c-0.3-3.1-0.5-4.2-1.3-7.4l-7.5,5.9c-3.3-5.9-5-8.2-10.1-14l7.4-5.2h-0.8
			c-3.9,0-6.3,0.1-10.3,0.6l1.2-13.2c3,0.4,5.6,0.5,10.2,0.5h21.1c0.1-2.1,0.1-2.9,0-4.4L354.9,140.5L354.9,140.5z M325,156.9
			c2.3,2.6,3.5,4,5.6,6.9c1.7,0.2,2.7,0.3,4.6,0.3c3.1,0,3.8-0.3,3.9-2.2l0.4-4.9H325V156.9z M325.6,115.6l-0.2,2.8h6.1l0.2-2.8
			H325.6z M326.4,105.8l-0.2,2.8h6.1l0.2-2.8H326.4z M343.8,128.4c2.9-0.2,3-0.2,5.7-0.4c-0.5-1.2-0.7-1.5-1.3-2.5H344L343.8,128.4z
			 M344.6,118.3h6.5l0.2-2.8h-6.5L344.6,118.3z M345.5,108.6h6.5l0.2-2.8h-6.5L345.5,108.6z"/>
		
			<linearGradient id="SVGID_00000106851324704381441940000008261283312791710642_" gradientUnits="userSpaceOnUse" x1="431.0629" y1="337.8517" x2="418.8759" y2="124.579" gradientTransform="matrix(1 0 0 -1 0 313.7008)">
			<stop  offset="0" style="stop-color:#002B38"/>
			<stop  offset="0.2429" style="stop-color:#004453"/>
			<stop  offset="1" style="stop-color:#0093A3"/>
		</linearGradient>
		<path style="fill:url(#SVGID_00000106851324704381441940000008261283312791710642_);" d="M381,140.3c-3-4-5.1-6.3-8.6-9.1
			c6.9-4.3,10-7.9,12.5-14.7c-4.3,0-6.8,0.1-9.9,0.5l1.3-15.4c3.5,0.4,6.2,0.5,11.2,0.5l0.7-7.5c-4.8,0-6.3,0.1-9.1,0.4l1.3-15.3
			c3.7,0.4,7.3,0.6,12.3,0.6h28c6.3,0,9.1-0.1,12.4-0.6L431.8,95c-2.4-0.3-3.5-0.3-6.8-0.4l-0.7,7.5c4.2-0.1,5.9-0.1,8.4-0.4
			l-1.3,15.2c-2.7-0.3-4.4-0.3-8.3-0.4l-0.6,6.4c-0.3,4-0.5,6.2-0.7,8.9h9.2c-0.5,1.8-0.7,3.1-0.9,5.7l-0.3,2.9h20
			c5.9,0,10.7-0.2,13.4-0.5l-1.4,15.5c-3.1-0.3-7.5-0.5-13-0.5h-20.4l-0.5,5.7h28.3c5.6,0,9.6-0.2,13-0.5l-1.4,15.9
			c-3.9-0.4-8.1-0.6-14.4-0.6h-69.2c-6.1,0-10.3,0.2-14.2,0.6l1.4-15.9c3.5,0.3,7.5,0.5,12.9,0.5h27.1l0.5-5.7h-19.4
			c-5,0-9.6,0.2-12.9,0.5L381,140.3z M401.2,116.5c-2.4,10.2-6.7,17.4-14.4,23.8c1.9,0.1,2.8,0.1,5,0.1h21.4l0.4-4.1h-8.4
			c0.7-3.9,1.3-8.4,1.7-13.2l0.6-6.6C407.5,116.5,401.2,116.5,401.2,116.5z M403.2,102.2h5.6l0.7-7.5h-5.6L403.2,102.2z
			 M449.3,119.5c-0.1,0.9-0.1,1.4-0.2,2.8c0.3-0.1,0.5-0.1,0.7-0.1c4.7,0,4.7,0,4.9-2.1l3-33.7c0.3-3.7,0.4-5.8,0.2-8.2H475
			c-0.6,2.1-1,5.1-1.4,9.5l-3.1,35.8c-0.6,7.3-2.4,10.4-6.7,12.1c-2.5,1.1-6.5,1.5-12.5,1.5c-1.8,0-3.3,0-7.9-0.2
			c-0.1-4.8-0.4-6.7-1.3-10.9h-9.3c0.5-2,0.8-4.6,1.1-7.7l2.4-26.9c0.3-3.3,0.4-5.8,0.3-8h16.3c-0.4,1.9-0.7,4.2-0.9,7.1
			L449.3,119.5z"/>
		
			<linearGradient id="SVGID_00000054232442828941226620000015472660056070769851_" gradientUnits="userSpaceOnUse" x1="537.6934" y1="331.7585" x2="525.5063" y2="118.4859" gradientTransform="matrix(1 0 0 -1 0 313.7008)">
			<stop  offset="0" style="stop-color:#002B38"/>
			<stop  offset="1" style="stop-color:#0093A3"/>
		</linearGradient>
		<path style="fill:url(#SVGID_00000054232442828941226620000015472660056070769851_);" d="M502,124.9h-8.2c-6.1,0-9.4,0.1-12.6,0.5
			l1.4-15.5c2.7,0.4,7.2,0.6,12.7,0.6h5.9l0.7-7.5h-4.1c-5.1,0-8.7,0.1-11.7,0.4l1.3-15.1c3.1,0.4,6.5,0.6,11.4,0.6h4.3l0.2-1.8
			c0.4-4.1,0.3-6.2,0.1-8.9H520c-0.8,2.5-1,4.6-1.4,8.9l-0.2,1.8h4.3c5.1,0,7.5-0.1,10.4-0.5l-1.3,15c-3-0.3-5.7-0.4-10.4-0.4h-4.3
			l-0.7,7.5h4.7c5.4,0,8.2-0.1,11.3-0.5l-1.3,15.4c-3.4-0.4-5.6-0.5-10.5-0.5h-3.1l-0.8,8.7h3.9c4.7,0,6.2-0.1,9.5-0.5l-1.3,14.9
			c-2.9-0.4-4.7-0.5-9.4-0.5h-3.9l-1,11.8c5,1.4,12.3,2,22.9,2c17.6,0,29.8-0.6,42.4-2.2c-2.9,6.2-4,9.7-5.6,17
			c-4.1,0-4.1,0-14.6,0.5c-0.7,0-0.7,0-19.7,0c-20.1,0-30.1-1.4-37-5c-4.7-2.6-7.5-5.2-10.8-10c-2.2,7.3-3.3,10-6.5,16.1
			c-4.1-5.1-6-7.2-10.7-10.9c5.8-11,8.7-20.9,9.9-34.5c0.1-1.3,0.1-2.7,0.2-4.3l13.4,2.1c-0.3,1.4-0.5,2-0.7,4.5
			c-0.4,3.1-0.9,6.2-1.6,10.2c1.1,2.2,1.8,3.2,3.7,5.4L502,124.9z M576.2,112.5c-0.6,6.3-0.7,7.8-0.5,11c-3.4-0.2-5.8-0.3-11.8-0.3
			h-13.4l-1.3,15.3c-0.2,2.6,0.5,3,5,3c9.3,0,9.8-0.3,10.5-8.5l0.5-5.1c5.8,2.7,9.5,3.9,14.8,4.8c-1.3,11.2-2.6,16.3-4.9,19.1
			c-3.2,4-8.6,4.9-26.6,4.9c-7.7,0-11.2-0.4-13.4-1.8c-2.4-1.4-3-3.7-2.4-10.4l2.1-23.6c0.5-5.2,0.6-8.1,0.6-12
			c3.4,0.3,6,0.4,10.6,0.4h14.6l1.1-12.2h-14.8c-5.1,0-7.3,0.1-11.1,0.6l1.4-15.5c3.4,0.4,6.9,0.6,12.5,0.6H568
			c5.7,0,8.2-0.1,11.5-0.5c-0.7,2.9-0.9,5-1.3,10.2L576.2,112.5z"/>
		
			<linearGradient id="SVGID_00000174592036639030603640000004596290036572532894_" gradientUnits="userSpaceOnUse" x1="644.8988" y1="325.6325" x2="632.7119" y2="112.3598" gradientTransform="matrix(1 0 0 -1 0 313.7008)">
			<stop  offset="0" style="stop-color:#002B38"/>
			<stop  offset="1" style="stop-color:#0093A3"/>
		</linearGradient>
		<path style="fill:url(#SVGID_00000174592036639030603640000004596290036572532894_);" d="M632.7,97.9c-9.4,0.6-18,1-31.9,1.2
			c-0.9-6-1.6-9-3.8-14.9c3.1,0,5.6,0,7.2,0c19.6,0,39.2-1.4,53.1-3.8c7.3-1.2,9.3-1.7,15.1-3.6L682.5,92
			c-12.5,2.4-21.7,3.6-32.7,4.6l-0.9,9.9h18.6c7.2,0,11.4-0.2,15.4-0.6l-1.4,16.3c-4.2-0.3-8.6-0.5-15.1-0.5h-18.9l-0.8,9.2h24.2
			c7.1,0,11.1-0.2,15.1-0.6l-1.4,16.5c-4-0.4-8-0.6-14.9-0.6h-24.2l-1.5,17.1c-0.5,5.9-2.3,9.3-5.6,11.1c-2.8,1.4-8.5,2.5-13.2,2.5
			c-0.1,0-0.8,0-1.6,0c-0.1,0-1.3-0.1-2.6-0.1c-2.8,0-3.3,0-11.8-0.5c-0.2-6.4-0.8-10.1-3.1-15.9c6.8,0.7,12.6,1.2,17,1.2
			c3,0,4-0.8,4.3-3.4l1-12h-26.9c-6.8,0-10.8,0.2-14.9,0.6l1.4-16.5c3.9,0.4,7.9,0.6,14.8,0.6h26.9l0.8-9.2h-20.9
			c-5.8,0-10.8,0.2-15.4,0.5l1.4-16.3c3.9,0.4,8,0.6,15.3,0.6H632L632.7,97.9z"/>
		
			<linearGradient id="SVGID_00000009574883775669987770000001834173480961733514_" gradientUnits="userSpaceOnUse" x1="752.4577" y1="319.4862" x2="740.2707" y2="106.2136" gradientTransform="matrix(1 0 0 -1 0 313.7008)">
			<stop  offset="0" style="stop-color:#002B38"/>
			<stop  offset="1" style="stop-color:#0093A3"/>
		</linearGradient>
		<path style="fill:url(#SVGID_00000009574883775669987770000001834173480961733514_);" d="M710.4,133.6c-3.9,0-8.5,0.2-11.8,0.4
			l1.3-15.4c2.5,0.3,7.2,0.5,12.2,0.5h24.2c4.8,0,9.4-0.2,12-0.5L747,134c-3.3-0.2-7.9-0.4-11.9-0.4h-4.2l-1.7,19.8
			c6.9-1.2,10.9-2,20.4-4.2l-1.3,15.2c-20.4,4.6-30.9,6.5-47.2,8.9c-3.6,0.5-5.3,0.8-7.5,1.3l-0.9-16.8c4.3,0,10.3-0.5,20.2-1.9
			l1.9-22.3H710.4z M785.6,93.8c5.2,0,7.9-0.1,10.4-0.5l-1.4,16.3c-3.3-0.4-8.1-0.6-13.9-0.6h-12.3c-0.4,15.4,0.3,24.5,2.4,32.9
			c1.7,6.9,3.3,11,6.2,15.2c1.7-3.4,2.9-7.9,4.4-15.6c4,3.3,7.5,5.6,12.6,7.9c-2.5,10.9-4.7,17.1-8,22.1c-2.7,3.9-6.1,6-9.6,6
			c-6.2,0-12.7-6.2-17.3-16.6c-5.4-12.1-7.7-28.6-7-51.9h-40.8c-5,0-9.2,0.2-14,0.6l1.4-16.4c3.6,0.4,8.1,0.6,13.9,0.6h40.3
			c0.6-12.1,0.6-12.1,0.5-15.1h17.7c-0.5,2-0.8,4-1,6.3c-0.1,1-0.3,3.2-0.7,8.8h9.9c-3.2-4.8-3.9-5.7-7.3-9.2l12.8-6.2
			c5,5.7,5,5.7,8.7,11.1l-8.7,4.3H785.6z"/>
	</g>
	<g>
		<g>
			<g>
				<path class="st6" d="M757.6,313.7H41.4C18.5,313.7,0,295.2,0,272.3l0,0c0-22.8,18.5-41.4,41.4-41.4h716.3
					c22.8,0,41.4,18.5,41.4,41.4l0,0C799,295.2,780.5,313.7,757.6,313.7z"/>
				<path class="st7" d="M757.6,296.6H41.4C18.5,296.6,0,278.1,0,255.2l0,0c0-22.8,18.5-41.4,41.4-41.4h716.3
					c22.8,0,41.4,18.5,41.4,41.4l0,0C799,278.1,780.5,296.6,757.6,296.6z"/>
			</g>
		</g>
		<g>
			<path class="st8" d="M84.7,259.2c-2.2-2.1-6.7-4.9-10.3-6.5l2.7-4.2c3.5,1.4,8.2,3.9,10.5,6L84.7,259.2z M75.8,282.3
				c2.9-4.5,7.2-12,10.3-18.7l3.7,3.7c-2.9,6.1-6.6,13.1-9.7,18.7L75.8,282.3z M87.6,243.3c-2.1-2.2-6.6-5.1-10.2-6.9l2.8-4.2
				c3.5,1.6,8.1,4.3,10.3,6.5L87.6,243.3z M130,263.9h-4.5v9.1h-14v7.5c0,2.9-0.6,4.4-2.5,5.2c-2,0.8-5.1,0.8-9.6,0.8
				c-0.2-1.4-0.9-3.6-1.6-5.1c3.2,0.1,6.4,0.1,7.3,0.1c1-0.1,1.3-0.3,1.3-1.1V273H93.1v-4.5h13.3v-4.6H89.9v-4.8h16.5v-4.5h-13v-4.5
				h3.1c-0.5-2.1-1.9-5.1-3.3-7.3l3.9-1.7c1.6,2.2,3.1,5.2,3.7,7.2l-3.9,1.7h28.5v8.9h4.5v5H130z M125.8,235.8
				c-8.8,2.5-21.9,4-33,4.8c-0.2-1.3-0.8-3.2-1.3-4.3c10.8-0.8,23.4-2.3,30.5-4.5L125.8,235.8z M107.9,249.4
				c-0.3-2.2-1.6-5.6-2.9-8.2l4.2-1.3c1.3,2.5,2.7,5.8,3.2,8L107.9,249.4z M111.5,259.1h9.1v-4.5h-9.1V259.1z M120.7,263.9h-9.1v4.6
				h9.1V263.9z M116.1,247.9c1.6-2.4,3.6-6.3,4.7-9.1l5.2,1.5c-1.7,3.3-3.7,6.7-5.3,9L116.1,247.9z"/>
			<path class="st8" d="M173.6,255.6c-0.4,0.3-0.8,0.6-1.2,1c5.6,2.8,15.5,5.5,24.4,6.7c-1.1,1.1-2.6,3.2-3.4,4.6
				c-4-0.7-8.3-1.9-12.2-3.2v2.2h-24.8v-2.3c-3.7,1.4-7.4,2.6-10.9,3.5c-1.1-1.1-3.1-3-4.3-3.8c9.7-2.2,20.3-6,26.8-10.5h-2v-9.4
				h-17.8v7h-5v-10.8H166v-2.8h-19.1v-4.2h43.7v4.2h-19.2v2.8h23v10.8h-5.2v-7h-17.9v9.4h-1.7L173.6,255.6z M148,253.5
				c3.5-0.6,8.2-1.7,13.4-2.8c-2.8-1-7.5-2.2-11.1-3l1.6-2.9c3.7,0.6,8.8,1.9,11.6,2.8l-1.4,2.9l1.6-0.4l0.4,3.3
				c-5.1,1.4-10,2.8-14.3,4L148,253.5z M183.4,268.9l3.6,2.3c-2.8,3.7-7.5,7.2-11.7,9.9c1.9,0.8,3.5,1.6,4.9,2.2l-2.5,3.9
				c-4.7-2.3-13.9-6.3-20.7-8.8l2.3-3.4c3.1,1.1,6.8,2.5,10.4,3.9c2.8-1.4,6-3.4,8.5-5.4h-29.7v-4.2h33.9L183.4,268.9z M177.8,263.3
				c-3.6-1.4-6.8-2.9-9.2-4.4c-2.8,1.6-6,3.1-9.2,4.4H177.8z M174.9,249.8l0.6,0.1l-1.5-2.2c3.4-0.6,8.4-2.2,11.4-3.1l2.3,3
				c-3.1,1.2-7.4,2-10.7,2.6c4.5,1,9.6,2.5,12.6,3.6l-1.4,3.4c-3.3-1.3-9.8-3.2-14.7-4.5L174.9,249.8z"/>
			<path class="st8" d="M216.5,279.4v4.6h-4.6v-20.2c-0.9,1.4-1.8,2.8-2.8,4c-0.2-1.4-1.4-4.8-2.2-6.3c4-5.4,6.6-13.4,8.2-21.9h-7
				v-5.1h20.2v5.1h-7.9c-0.9,4.6-2.1,9.1-3.5,13.3h10v26.5L216.5,279.4L216.5,279.4z M222.5,257.9h-6v16.6h6V257.9z M239.6,271.8
				c-1-2.3-3-6.1-4.8-9.1c-0.1,7.4-1.1,17.4-5.4,24.1c-0.9-0.8-3.1-2.3-4.3-2.8c4.3-6.7,4.8-16.1,4.8-22.8v-11.9H262v4.8h-27.2v7.2
				v0.4l3.1-1.7c1.9,3.1,4.3,7.1,5.5,9.4L239.6,271.8z M260.2,245.9h-29.5v-12.5h5.1v7.9h7v-9.8h4.9v9.8h7.2v-7.9h5.2v12.5H260.2z
				 M250.5,256.3c-0.1,3.3-0.4,6.4-0.7,9.3c2.2,7.3,6.6,13.7,12.6,16.7c-1.1,1-2.6,2.8-3.3,4.1c-4.7-2.8-8.4-7.5-11-13.2
				c-1.8,5.8-5.2,10.3-11.4,13.5c-0.5-1.3-2-3.1-3.1-4c10.2-4.8,11.5-14,12-26.4H250.5z M251.9,269c1.9-2.4,4.6-6.6,6-9.4l4.3,2.9
				c-2.5,3.1-5,6.6-7.1,8.8L251.9,269z"/>
			<path class="st8" d="M292.1,261.8c-2,0.7-4.2,1.3-6.2,2v16.8c0,2.8-0.5,4.3-2.2,5.2c-1.6,0.8-4,1-7.8,1c-0.1-1.3-0.8-3.7-1.5-5.2
				c2.4,0.1,4.6,0.1,5.3,0c0.8,0,1.1-0.2,1.1-1v-15.2c-2.3,0.7-4.6,1.4-6.6,2L273,262c2.2-0.5,4.9-1.3,7.8-2.2v-11.4h-7v-5.2h7
				v-11.6h5.1v11.6h6v5.2h-6v9.9l5.5-1.6L292.1,261.8z M302.2,231.5h5v25.2c0,11.9-1.3,22.7-12,30.1c-0.9-1.1-2.8-2.9-4-3.7
				c4.9-3.3,7.7-7.4,9.2-12c-2.9,1.1-5.9,2.2-8.5,3.2l-2.2-4.8c3.2-0.8,7.5-2.2,11.9-3.6c0.3-2.2,0.5-4.5,0.5-6.9h-8.9v-5h8.9v-7.4
				h-9.4v-5.1h9.4v-10H302.2z M328.8,272h-11v14.6h-5.3v-55.2h5.3v10h10v5.1h-10v7.4h9.3v5h-9.3v7.9h11V272z"/>
			<path class="st9" d="M393.3,240.9c0,0,0,1.9-0.1,2.6c-0.8,27.1-1.6,36.5-4,39.5c-1.5,2-2.9,2.5-5.2,2.8c-2.1,0.2-5.7,0.2-9.1,0
				c-0.1-1.5-0.8-3.9-1.8-5.4c3.9,0.3,7.3,0.4,8.8,0.4c1.2,0,1.9-0.2,2.5-1c1.9-2,2.7-11.1,3.5-33.8h-14.2
				c-1.7,3.9-3.5,7.3-5.5,10.1c-0.9-0.8-3-2.3-4.4-3.1v27.6h-16.3v4.6h-5.1v-44h6.7c0.8-2.9,1.7-6.9,2.1-9.7l6.1,1
				c-1,3-2.2,6.2-3.1,8.7h9.6v11.4c4-5.2,7.2-13.2,9-21.1l5.4,1.3c-0.7,2.8-1.5,5.5-2.5,8.2L393.3,240.9L393.3,240.9z M347.6,246.1
				v11.4h11.2v-11.4H347.6z M358.8,275.7v-13.3h-11.2v13.3H358.8z M378.8,271c-1.7-3.7-5.6-9.6-8.8-13.9l4.4-2.5
				c3.2,4.2,7.3,9.9,9.1,13.4L378.8,271z"/>
			<path class="st9" d="M437,267.7c4.9,4.9,14.1,10,24.6,12c-1.1,1.2-2.8,3.5-3.5,4.9c-8.5-2.2-16-6.6-21.1-11.1v13.1h-6v-13.3
				c-5.7,5.3-13.4,9.4-21.3,11.6c-0.7-1.4-2.3-3.5-3.5-4.7c9.9-2.2,19.6-7.1,24.8-13.3v-4.8h-13.4v11.1h-5.9v-15.8H431v-3.9h-23.3
				v-4.9H431v-3.5h4.9c-1-0.9-2.7-2.2-3.7-2.9c3.2-2.7,6-6.9,7.5-11.2l5.1,1.3c-0.4,1.1-0.8,2.1-1.3,3.2h17.3v4.4H449
				c1.9,1.4,4,3.3,5.2,4.6l-3.8,3.3c-1.3-1.6-4-4.1-6.1-5.8l2.6-2.1H441c-1.3,2-2.8,3.8-4.3,5.2h0.2v3.5h22.3v4.9H437v3.9h19.1V268
				c0,2.5-0.5,3.7-2.3,4.4c-1.9,0.7-4.4,0.8-7.7,0.8c-0.4-1.4-1.3-3.2-1.9-4.5c2.2,0.1,4.6,0.1,5.2,0.1c0.7,0,1-0.2,1-0.8v-5.8H437
				V267.7z M416.2,239.9c-1.9,3-4,5.7-6.1,7.8c-0.8-0.9-2.7-2.8-3.8-3.7c3.5-3.2,6.9-8.1,8.8-12.9l5,1.4c-0.4,1-0.8,2-1.4,3H433v4.4
				h-10.1c1.8,1.6,3.7,3.5,4.8,4.8l-3.6,3.2c-1.2-1.6-3.8-4.2-5.8-6.1l2.2-1.9H416.2z"/>
			<path class="st9" d="M526.5,239.4c-2.3,5.8-6,10.8-10.5,14.9c3.5,2.5,7.6,4.5,12.2,5.7c-0.7,1.4-1.3,3.9-1.5,5.5
				c-0.9-0.2-1.7-0.5-2.6-0.9v21.6H519v-2.9h-14.1v3.1H500v-22c-1.2,0.5-2.4,1-3.6,1.3c-0.4-1.4-1.3-3.9-2-5.1v15.7h-15.7v4.2h-4.3
				V236h20v24.4c4.9-1.4,9.7-3.6,13.8-6.4c-2-2.2-3.8-4.5-5.3-7c-1.6,2-3.3,3.9-5.1,5.5c-0.6-1-2.2-3.2-3.2-4.3
				c4.8-4,9.1-10.3,11.6-16.9l4.8,1.4c-0.6,1.7-1.4,3.4-2.3,5h13.6l1.1-0.2L526.5,239.4z M478.5,240.9v12.6h4v-12.6H478.5z
				 M478.5,271.5h4v-13.7h-4V271.5z M490,240.9h-3.9v12.6h3.9V240.9z M490,271.5v-13.7h-3.9v13.7H490z M522.9,264.1
				c-4-1.7-7.6-3.9-10.9-6.4c-3.5,2.6-7.5,4.8-11.4,6.4H522.9z M518.9,278.4V269h-14.1v9.3h14.1V278.4z M505.9,242.7
				c1.5,3.1,3.6,5.9,6.1,8.4c2.8-2.5,5.3-5.3,7.1-8.4H505.9z"/>
			<path class="st9" d="M593.1,272.9h-54.3v-5.2h5.7l-1.1-31.3c3.8-1.2,8.2-3,11.2-4.5l2.6,4.5c-2.6,1.1-5.7,2-8.6,2.8l0.2,6.4h7.5
				v4.6H549l0.2,6.3h7.3v4.7h-7.2l0.2,6.4h32.7c0.1-1.9,0.2-4,0.4-6.2h-7.1v-4.6h7.3c0.1-2.1,0.1-4.3,0.2-6.4h-7v-4.6h7.2
				c0.1-2.2,0.1-4.4,0.1-6.5h-7.9v-4.9h13.1c-0.1,10.6-0.4,24.4-0.9,33.3h5.5L593.1,272.9L593.1,272.9z M560.6,276.7
				c-5,3.5-12.3,7.5-18.1,9.9c-0.7-1.1-2.2-3.1-3.2-4.2c5.7-2.2,12.9-6.1,16.7-9.3L560.6,276.7z M564.9,254.4
				c-0.6,4.1-1.7,8.1-3.4,10.8c-0.8-0.6-2.6-1.8-3.7-2.3c1.7-2.5,2.4-5.8,2.8-9.2L564.9,254.4z M568.5,251.5h-9.3V232h4.8v4.9h9.6
				v4.6H564v5.5h7.3v0.1h1.9v15.5c0,2.1-0.4,3.1-1.8,3.7c-1.5,0.7-3.6,0.7-6.6,0.7c-0.2-1.1-0.8-2.6-1.3-3.6c1.9,0.1,3.7,0.1,4.2,0
				c0.6,0,0.8-0.2,0.8-0.7L568.5,251.5L568.5,251.5z M588,286.5c-3.9-2.8-10.5-6.7-16.7-9.6l3.1-4c6.3,2.9,13.1,6.7,17.3,9.4
				L588,286.5z"/>
			<path class="st9" d="M625.6,246.4c-1.9,3.1-4.1,6.2-6.6,9.2v31.3h-5.6v-25.1c-2,2-4,3.9-6,5.4c-0.7-1.2-2.7-3.7-3.9-4.8
				c6.1-4.4,12.6-11.3,16.7-18L625.6,246.4z M623.3,233.7c-4.1,5.4-10.3,11.3-15.9,15.2c-0.7-1.3-2.2-3.4-3.2-4.5
				c5-3.2,10.8-8.6,13.7-12.9L623.3,233.7z M659.4,256.8h-8.7V280c0,3.2-0.7,4.8-3,5.7c-2.2,0.8-5.8,0.9-11.4,0.9
				c-0.2-1.6-1-4-1.8-5.6c3.9,0.1,7.9,0.1,9,0.1s1.5-0.3,1.5-1.1v-23.1h-19v-5.4h33.4V256.8z M657.7,240.4h-29.2V235h29.2V240.4z"/>
			<path class="st9" d="M724.7,245.3c0,0-0.1,1.9-0.1,2.6c-0.7,24.8-1.2,33.4-3.1,36c-1.1,1.8-2.4,2.3-4.3,2.6
				c-1.8,0.2-4.6,0.2-7.4,0.1c-0.1-1.5-0.7-3.8-1.6-5.3c2.8,0.2,5.2,0.2,6.3,0.2c1,0,1.6-0.2,2.2-1c1.3-1.7,1.9-9.3,2.4-30H712
				c-0.8,16-3.5,28.8-13.8,36.7c-0.8-1.3-2.7-3.2-4-4.2c0.4-0.2,0.7-0.5,1.1-0.8c-8.7,1-17.3,1.9-23.8,2.5l-0.7-4.8
				c3.5-0.2,7.8-0.6,12.6-1v-4.6h-11v-4.1h11v-3.1h-10.8V249h10.8v-3.1H671v-4.2h12.4v-3.4c-3.7,0.3-7.3,0.5-10.7,0.6
				c-0.2-1.1-0.8-2.9-1.3-4c8.9-0.5,19.6-1.6,25.8-2.9l2.6,4.2c-3.2,0.7-7.2,1.3-11.3,1.7v3.9h12.2v3.5h6.3
				c0.1-4.1,0.1-8.4,0.1-12.9h5.4c0,4.5-0.1,8.8-0.1,12.9L724.7,245.3L724.7,245.3z M677.1,256.4h6.2v-3.7h-6.2V256.4z M683.3,263.5
				v-3.7h-6.2v3.7H683.3z M688.4,278.4c3.7-0.4,7.6-0.7,11.4-1.1c4.9-6.8,6.4-15.9,6.9-26.8h-6.4V246h-11.9v3.1h11.2v18.1h-11.2v3.1
				h11.3v4.1h-11.3V278.4z M694.9,256.4v-3.7h-6.4v3.7H694.9z M688.4,259.8v3.7h6.4v-3.7H688.4z"/>
		</g>
	</g>
</g>
</svg>
